<?xml version="1.0" encoding="utf-8" standalone="no"?>
<!DOCTYPE svg PUBLIC "-//W3C//DTD SVG 1.1//EN"
  "http://www.w3.org/Graphics/SVG/1.1/DTD/svg11.dtd">
<svg xmlns:xlink="http://www.w3.org/1999/xlink" width="853.237187pt" height="421.617812pt" viewBox="0 0 853.237187 421.617812" xmlns="http://www.w3.org/2000/svg" version="1.1">
 <metadata>
  <rdf:RDF xmlns:dc="http://purl.org/dc/elements/1.1/" xmlns:cc="http://creativecommons.org/ns#" xmlns:rdf="http://www.w3.org/1999/02/22-rdf-syntax-ns#">
   <cc:Work>
    <dc:type rdf:resource="http://purl.org/dc/dcmitype/StillImage"/>
    <dc:date>2024-01-17T17:31:15.579381</dc:date>
    <dc:format>image/svg+xml</dc:format>
    <dc:creator>
     <cc:Agent>
      <dc:title>Matplotlib v3.7.2, https://matplotlib.org/</dc:title>
     </cc:Agent>
    </dc:creator>
   </cc:Work>
  </rdf:RDF>
 </metadata>
 <defs>
  <style type="text/css">*{stroke-linejoin: round; stroke-linecap: butt}</style>
 </defs>
 <g id="figure_1">
  <g id="patch_1">
   <path d="M 0 421.617812 
L 853.237187 421.617812 
L 853.237187 0 
L 0 0 
z
" style="fill: #ffffff"/>
  </g>
  <g id="axes_1">
   <g id="patch_2">
    <path d="M 49.807187 122.698125 
L 846.037188 122.698125 
L 846.037188 22.318125 
L 49.807187 22.318125 
z
" style="fill: #eaeaf2"/>
   </g>
   <g id="matplotlib.axis_1">
    <g id="xtick_1">
     <g id="line2d_1">
      <path d="M 85.99946 122.698125 
L 85.99946 22.318125 
" clip-path="url(#p1b24375ae8)" style="fill: none; stroke: #ffffff; stroke-linecap: round"/>
     </g>
    </g>
    <g id="xtick_2">
     <g id="line2d_2">
      <path d="M 176.934819 122.698125 
L 176.934819 22.318125 
" clip-path="url(#p1b24375ae8)" style="fill: none; stroke: #ffffff; stroke-linecap: round"/>
     </g>
    </g>
    <g id="xtick_3">
     <g id="line2d_3">
      <path d="M 267.870177 122.698125 
L 267.870177 22.318125 
" clip-path="url(#p1b24375ae8)" style="fill: none; stroke: #ffffff; stroke-linecap: round"/>
     </g>
    </g>
    <g id="xtick_4">
     <g id="line2d_4">
      <path d="M 358.805536 122.698125 
L 358.805536 22.318125 
" clip-path="url(#p1b24375ae8)" style="fill: none; stroke: #ffffff; stroke-linecap: round"/>
     </g>
    </g>
    <g id="xtick_5">
     <g id="line2d_5">
      <path d="M 449.740895 122.698125 
L 449.740895 22.318125 
" clip-path="url(#p1b24375ae8)" style="fill: none; stroke: #ffffff; stroke-linecap: round"/>
     </g>
    </g>
    <g id="xtick_6">
     <g id="line2d_6">
      <path d="M 540.676253 122.698125 
L 540.676253 22.318125 
" clip-path="url(#p1b24375ae8)" style="fill: none; stroke: #ffffff; stroke-linecap: round"/>
     </g>
    </g>
    <g id="xtick_7">
     <g id="line2d_7">
      <path d="M 631.611612 122.698125 
L 631.611612 22.318125 
" clip-path="url(#p1b24375ae8)" style="fill: none; stroke: #ffffff; stroke-linecap: round"/>
     </g>
    </g>
    <g id="xtick_8">
     <g id="line2d_8">
      <path d="M 722.546971 122.698125 
L 722.546971 22.318125 
" clip-path="url(#p1b24375ae8)" style="fill: none; stroke: #ffffff; stroke-linecap: round"/>
     </g>
    </g>
    <g id="xtick_9">
     <g id="line2d_9">
      <path d="M 813.482329 122.698125 
L 813.482329 22.318125 
" clip-path="url(#p1b24375ae8)" style="fill: none; stroke: #ffffff; stroke-linecap: round"/>
     </g>
    </g>
   </g>
   <g id="matplotlib.axis_2">
    <g id="ytick_1">
     <g id="line2d_10">
      <path d="M 49.807187 95.240718 
L 846.037188 95.240718 
" clip-path="url(#p1b24375ae8)" style="fill: none; stroke: #ffffff; stroke-linecap: round"/>
     </g>
     <g id="text_1">
      <!-- 0.2 -->
      <g style="fill: #262626" transform="translate(22.81375 99.419859) scale(0.11 -0.11)">
       <defs>
        <path id="DejaVuSans-30" d="M 2034 4250 
Q 1547 4250 1301 3770 
Q 1056 3291 1056 2328 
Q 1056 1369 1301 889 
Q 1547 409 2034 409 
Q 2525 409 2770 889 
Q 3016 1369 3016 2328 
Q 3016 3291 2770 3770 
Q 2525 4250 2034 4250 
z
M 2034 4750 
Q 2819 4750 3233 4129 
Q 3647 3509 3647 2328 
Q 3647 1150 3233 529 
Q 2819 -91 2034 -91 
Q 1250 -91 836 529 
Q 422 1150 422 2328 
Q 422 3509 836 4129 
Q 1250 4750 2034 4750 
z
" transform="scale(0.015625)"/>
        <path id="DejaVuSans-2e" d="M 684 794 
L 1344 794 
L 1344 0 
L 684 0 
L 684 794 
z
" transform="scale(0.015625)"/>
        <path id="DejaVuSans-32" d="M 1228 531 
L 3431 531 
L 3431 0 
L 469 0 
L 469 531 
Q 828 903 1448 1529 
Q 2069 2156 2228 2338 
Q 2531 2678 2651 2914 
Q 2772 3150 2772 3378 
Q 2772 3750 2511 3984 
Q 2250 4219 1831 4219 
Q 1534 4219 1204 4116 
Q 875 4013 500 3803 
L 500 4441 
Q 881 4594 1212 4672 
Q 1544 4750 1819 4750 
Q 2544 4750 2975 4387 
Q 3406 4025 3406 3419 
Q 3406 3131 3298 2873 
Q 3191 2616 2906 2266 
Q 2828 2175 2409 1742 
Q 1991 1309 1228 531 
z
" transform="scale(0.015625)"/>
       </defs>
       <use xlink:href="#DejaVuSans-30"/>
       <use xlink:href="#DejaVuSans-2e" x="63.623047"/>
       <use xlink:href="#DejaVuSans-32" x="95.410156"/>
      </g>
     </g>
    </g>
    <g id="ytick_2">
     <g id="line2d_11">
      <path d="M 49.807187 67.342282 
L 846.037188 67.342282 
" clip-path="url(#p1b24375ae8)" style="fill: none; stroke: #ffffff; stroke-linecap: round"/>
     </g>
     <g id="text_2">
      <!-- 0.4 -->
      <g style="fill: #262626" transform="translate(22.81375 71.521423) scale(0.11 -0.11)">
       <defs>
        <path id="DejaVuSans-34" d="M 2419 4116 
L 825 1625 
L 2419 1625 
L 2419 4116 
z
M 2253 4666 
L 3047 4666 
L 3047 1625 
L 3713 1625 
L 3713 1100 
L 3047 1100 
L 3047 0 
L 2419 0 
L 2419 1100 
L 313 1100 
L 313 1709 
L 2253 4666 
z
" transform="scale(0.015625)"/>
       </defs>
       <use xlink:href="#DejaVuSans-30"/>
       <use xlink:href="#DejaVuSans-2e" x="63.623047"/>
       <use xlink:href="#DejaVuSans-34" x="95.410156"/>
      </g>
     </g>
    </g>
    <g id="ytick_3">
     <g id="line2d_12">
      <path d="M 49.807187 39.443846 
L 846.037188 39.443846 
" clip-path="url(#p1b24375ae8)" style="fill: none; stroke: #ffffff; stroke-linecap: round"/>
     </g>
     <g id="text_3">
      <!-- 0.6 -->
      <g style="fill: #262626" transform="translate(22.81375 43.622987) scale(0.11 -0.11)">
       <defs>
        <path id="DejaVuSans-36" d="M 2113 2584 
Q 1688 2584 1439 2293 
Q 1191 2003 1191 1497 
Q 1191 994 1439 701 
Q 1688 409 2113 409 
Q 2538 409 2786 701 
Q 3034 994 3034 1497 
Q 3034 2003 2786 2293 
Q 2538 2584 2113 2584 
z
M 3366 4563 
L 3366 3988 
Q 3128 4100 2886 4159 
Q 2644 4219 2406 4219 
Q 1781 4219 1451 3797 
Q 1122 3375 1075 2522 
Q 1259 2794 1537 2939 
Q 1816 3084 2150 3084 
Q 2853 3084 3261 2657 
Q 3669 2231 3669 1497 
Q 3669 778 3244 343 
Q 2819 -91 2113 -91 
Q 1303 -91 875 529 
Q 447 1150 447 2328 
Q 447 3434 972 4092 
Q 1497 4750 2381 4750 
Q 2619 4750 2861 4703 
Q 3103 4656 3366 4563 
z
" transform="scale(0.015625)"/>
       </defs>
       <use xlink:href="#DejaVuSans-30"/>
       <use xlink:href="#DejaVuSans-2e" x="63.623047"/>
       <use xlink:href="#DejaVuSans-36" x="95.410156"/>
      </g>
     </g>
    </g>
    <g id="text_4">
     <!-- regularity -->
     <g style="fill: #262626" transform="translate(16.318125 101.52375) rotate(-90) scale(0.12 -0.12)">
      <defs>
       <path id="DejaVuSans-72" d="M 2631 2963 
Q 2534 3019 2420 3045 
Q 2306 3072 2169 3072 
Q 1681 3072 1420 2755 
Q 1159 2438 1159 1844 
L 1159 0 
L 581 0 
L 581 3500 
L 1159 3500 
L 1159 2956 
Q 1341 3275 1631 3429 
Q 1922 3584 2338 3584 
Q 2397 3584 2469 3576 
Q 2541 3569 2628 3553 
L 2631 2963 
z
" transform="scale(0.015625)"/>
       <path id="DejaVuSans-65" d="M 3597 1894 
L 3597 1613 
L 953 1613 
Q 991 1019 1311 708 
Q 1631 397 2203 397 
Q 2534 397 2845 478 
Q 3156 559 3463 722 
L 3463 178 
Q 3153 47 2828 -22 
Q 2503 -91 2169 -91 
Q 1331 -91 842 396 
Q 353 884 353 1716 
Q 353 2575 817 3079 
Q 1281 3584 2069 3584 
Q 2775 3584 3186 3129 
Q 3597 2675 3597 1894 
z
M 3022 2063 
Q 3016 2534 2758 2815 
Q 2500 3097 2075 3097 
Q 1594 3097 1305 2825 
Q 1016 2553 972 2059 
L 3022 2063 
z
" transform="scale(0.015625)"/>
       <path id="DejaVuSans-67" d="M 2906 1791 
Q 2906 2416 2648 2759 
Q 2391 3103 1925 3103 
Q 1463 3103 1205 2759 
Q 947 2416 947 1791 
Q 947 1169 1205 825 
Q 1463 481 1925 481 
Q 2391 481 2648 825 
Q 2906 1169 2906 1791 
z
M 3481 434 
Q 3481 -459 3084 -895 
Q 2688 -1331 1869 -1331 
Q 1566 -1331 1297 -1286 
Q 1028 -1241 775 -1147 
L 775 -588 
Q 1028 -725 1275 -790 
Q 1522 -856 1778 -856 
Q 2344 -856 2625 -561 
Q 2906 -266 2906 331 
L 2906 616 
Q 2728 306 2450 153 
Q 2172 0 1784 0 
Q 1141 0 747 490 
Q 353 981 353 1791 
Q 353 2603 747 3093 
Q 1141 3584 1784 3584 
Q 2172 3584 2450 3431 
Q 2728 3278 2906 2969 
L 2906 3500 
L 3481 3500 
L 3481 434 
z
" transform="scale(0.015625)"/>
       <path id="DejaVuSans-75" d="M 544 1381 
L 544 3500 
L 1119 3500 
L 1119 1403 
Q 1119 906 1312 657 
Q 1506 409 1894 409 
Q 2359 409 2629 706 
Q 2900 1003 2900 1516 
L 2900 3500 
L 3475 3500 
L 3475 0 
L 2900 0 
L 2900 538 
Q 2691 219 2414 64 
Q 2138 -91 1772 -91 
Q 1169 -91 856 284 
Q 544 659 544 1381 
z
M 1991 3584 
L 1991 3584 
z
" transform="scale(0.015625)"/>
       <path id="DejaVuSans-6c" d="M 603 4863 
L 1178 4863 
L 1178 0 
L 603 0 
L 603 4863 
z
" transform="scale(0.015625)"/>
       <path id="DejaVuSans-61" d="M 2194 1759 
Q 1497 1759 1228 1600 
Q 959 1441 959 1056 
Q 959 750 1161 570 
Q 1363 391 1709 391 
Q 2188 391 2477 730 
Q 2766 1069 2766 1631 
L 2766 1759 
L 2194 1759 
z
M 3341 1997 
L 3341 0 
L 2766 0 
L 2766 531 
Q 2569 213 2275 61 
Q 1981 -91 1556 -91 
Q 1019 -91 701 211 
Q 384 513 384 1019 
Q 384 1609 779 1909 
Q 1175 2209 1959 2209 
L 2766 2209 
L 2766 2266 
Q 2766 2663 2505 2880 
Q 2244 3097 1772 3097 
Q 1472 3097 1187 3025 
Q 903 2953 641 2809 
L 641 3341 
Q 956 3463 1253 3523 
Q 1550 3584 1831 3584 
Q 2591 3584 2966 3190 
Q 3341 2797 3341 1997 
z
" transform="scale(0.015625)"/>
       <path id="DejaVuSans-69" d="M 603 3500 
L 1178 3500 
L 1178 0 
L 603 0 
L 603 3500 
z
M 603 4863 
L 1178 4863 
L 1178 4134 
L 603 4134 
L 603 4863 
z
" transform="scale(0.015625)"/>
       <path id="DejaVuSans-74" d="M 1172 4494 
L 1172 3500 
L 2356 3500 
L 2356 3053 
L 1172 3053 
L 1172 1153 
Q 1172 725 1289 603 
Q 1406 481 1766 481 
L 2356 481 
L 2356 0 
L 1766 0 
Q 1100 0 847 248 
Q 594 497 594 1153 
L 594 3053 
L 172 3053 
L 172 3500 
L 594 3500 
L 594 4494 
L 1172 4494 
z
" transform="scale(0.015625)"/>
       <path id="DejaVuSans-79" d="M 2059 -325 
Q 1816 -950 1584 -1140 
Q 1353 -1331 966 -1331 
L 506 -1331 
L 506 -850 
L 844 -850 
Q 1081 -850 1212 -737 
Q 1344 -625 1503 -206 
L 1606 56 
L 191 3500 
L 800 3500 
L 1894 763 
L 2988 3500 
L 3597 3500 
L 2059 -325 
z
" transform="scale(0.015625)"/>
      </defs>
      <use xlink:href="#DejaVuSans-72"/>
      <use xlink:href="#DejaVuSans-65" x="38.863281"/>
      <use xlink:href="#DejaVuSans-67" x="100.386719"/>
      <use xlink:href="#DejaVuSans-75" x="163.863281"/>
      <use xlink:href="#DejaVuSans-6c" x="227.242188"/>
      <use xlink:href="#DejaVuSans-61" x="255.025391"/>
      <use xlink:href="#DejaVuSans-72" x="316.304688"/>
      <use xlink:href="#DejaVuSans-69" x="357.417969"/>
      <use xlink:href="#DejaVuSans-74" x="385.201172"/>
      <use xlink:href="#DejaVuSans-79" x="424.410156"/>
     </g>
    </g>
   </g>
   <g id="PolyCollection_1"/>
   <g id="line2d_13">
    <path d="M 85.99946 69.732114 
L 89.636875 96.633376 
L 93.274289 93.942782 
L 96.911703 93.702876 
L 100.549118 111.765248 
L 104.186532 96.960904 
L 107.823946 83.760443 
L 111.461361 65.6185 
L 115.098775 65.577847 
L 118.736189 72.436329 
L 122.373604 88.29203 
L 126.011018 84.996405 
L 129.648432 111.263003 
L 133.285847 111.809261 
L 136.923261 109.18136 
L 140.560675 99.670903 
L 144.19809 100.227377 
L 147.835504 77.984167 
L 151.472918 69.48942 
L 155.110333 70.885825 
L 158.747747 85.363325 
L 162.385161 94.046592 
L 166.022576 80.787186 
L 169.65999 84.248665 
L 173.297404 78.752074 
L 176.934819 69.085644 
L 180.572233 68.165467 
L 184.209648 98.998976 
L 187.847062 78.943085 
L 191.484476 86.986818 
L 195.121891 109.520682 
L 198.759305 108.750256 
L 202.396719 103.655743 
L 209.671548 104.207426 
L 213.308962 58.835626 
L 216.946377 59.076235 
L 220.583791 106.172999 
L 224.221205 110.369175 
L 227.85862 110.130739 
L 231.496034 113.919779 
L 235.133448 114.273708 
L 238.770863 110.519582 
L 242.408277 85.018238 
L 246.045691 91.464219 
L 249.683106 100.769751 
L 253.32052 105.641402 
L 256.957934 89.15788 
L 260.595349 80.781456 
L 264.232763 83.116688 
L 267.870177 83.253535 
L 271.507592 104.667077 
L 275.145006 99.630081 
L 278.78242 58.155396 
L 282.419835 59.537458 
L 286.057249 86.071173 
L 289.694664 75.676921 
L 293.332078 69.556355 
L 296.969492 57.977712 
L 300.606907 92.889266 
L 304.244321 93.570445 
L 307.881735 86.000202 
L 311.51915 82.714674 
L 315.156564 87.175738 
L 318.793978 77.990362 
L 322.431393 78.648645 
L 326.068807 95.397059 
L 329.706221 88.204225 
L 333.343636 99.632422 
L 336.98105 99.705101 
L 340.618464 64.722984 
L 344.255879 65.857851 
L 347.893293 72.178274 
L 351.530707 72.187123 
L 355.168122 66.313239 
L 358.805536 89.897194 
L 362.44295 105.264915 
L 366.080365 101.85576 
L 373.355193 95.892146 
L 376.992608 85.87254 
L 380.630022 84.876817 
L 384.267436 81.540469 
L 387.904851 68.089579 
L 391.542265 102.059246 
L 395.17968 83.753995 
L 398.817094 87.949879 
L 402.454508 81.923031 
L 406.091923 89.148147 
L 409.729337 83.068546 
L 413.366751 86.744688 
L 417.004166 98.412663 
L 424.278994 97.960436 
L 427.916409 79.221397 
L 431.553823 85.595289 
L 435.191237 86.245282 
L 438.828652 88.233183 
L 442.466066 86.197641 
L 446.10348 80.652205 
L 449.740895 84.932397 
L 453.378309 77.007082 
L 457.015723 87.434747 
L 460.653138 89.966138 
L 464.290552 62.178511 
L 467.927966 62.512061 
L 471.565381 61.482469 
L 475.202795 47.495553 
L 478.840209 48.565933 
L 482.477624 46.651345 
L 486.115038 107.192312 
L 489.752452 104.703617 
L 493.389867 104.088835 
L 497.027281 93.10592 
L 500.664695 81.491173 
L 504.30211 72.232578 
L 507.939524 100.429055 
L 511.576939 86.219654 
L 515.214353 102.240445 
L 518.851767 105.997396 
L 522.489182 52.954992 
L 526.126596 52.010745 
L 529.76401 72.877428 
L 533.401425 57.846832 
L 537.038839 60.125144 
L 540.676253 80.384308 
L 544.313668 78.125251 
L 547.951082 77.605787 
L 551.588496 48.238129 
L 555.225911 109.055738 
L 558.863325 109.006676 
L 562.500739 104.931314 
L 566.138154 85.751556 
L 569.775568 78.322513 
L 573.412982 78.964764 
L 580.687811 75.817846 
L 584.325225 86.146766 
L 587.96264 81.998444 
L 591.600054 110.407348 
L 595.237468 100.980715 
L 598.874883 101.044371 
L 602.512297 104.368407 
L 606.149711 90.472005 
L 609.787126 87.050806 
L 613.42454 81.951469 
L 617.061955 65.155574 
L 620.699369 80.156013 
L 624.336783 92.152164 
L 627.974198 105.641166 
L 631.611612 95.369664 
L 635.249026 78.069463 
L 638.886441 77.291454 
L 642.523855 62.83149 
L 646.161269 63.713026 
L 653.436098 66.835212 
L 657.073512 68.417222 
L 660.710927 83.191894 
L 664.348341 104.635903 
L 667.985755 87.502139 
L 671.62317 99.944241 
L 675.260584 71.043706 
L 678.897998 94.864759 
L 682.535413 54.590711 
L 686.172827 58.742193 
L 689.810241 102.7141 
L 693.447656 72.038041 
L 697.08507 66.490564 
L 700.722484 83.245817 
L 704.359899 81.52347 
L 707.997313 95.205632 
L 711.634727 98.160164 
L 715.272142 81.911045 
L 718.909556 62.874621 
L 722.546971 93.707824 
L 726.184385 92.755426 
L 729.821799 90.338629 
L 733.459214 90.320237 
L 737.096628 65.3881 
L 740.734042 66.839447 
L 744.371457 53.958392 
L 748.008871 52.525381 
L 751.646285 94.95948 
L 755.2837 85.795282 
L 758.921114 101.968281 
L 762.558528 103.939865 
L 766.195943 97.046016 
L 769.833357 104.601303 
L 773.470771 89.004144 
L 777.108186 90.690872 
L 780.7456 93.271326 
L 784.383014 96.242621 
L 788.020429 80.985311 
L 791.657843 88.024749 
L 795.295257 68.667905 
L 798.932672 68.415917 
L 802.570086 69.989286 
L 806.2075 108.854024 
L 809.844915 106.358169 
L 809.844915 106.358169 
" clip-path="url(#p1b24375ae8)" style="fill: none; stroke: #4c72b0; stroke-width: 1.5; stroke-linecap: round"/>
   </g>
   <g id="line2d_14">
    <defs>
     <path id="m7df5b32419" d="M 0 3 
C 0.795609 3 1.55874 2.683901 2.12132 2.12132 
C 2.683901 1.55874 3 0.795609 3 0 
C 3 -0.795609 2.683901 -1.55874 2.12132 -2.12132 
C 1.55874 -2.683901 0.795609 -3 0 -3 
C -0.795609 -3 -1.55874 -2.683901 -2.12132 -2.12132 
C -2.683901 -1.55874 -3 -0.795609 -3 0 
C -3 0.795609 -2.683901 1.55874 -2.12132 2.12132 
C -1.55874 2.683901 -0.795609 3 0 3 
z
" style="stroke: #4c72b0"/>
    </defs>
    <g clip-path="url(#p1b24375ae8)">
     <use xlink:href="#m7df5b32419" x="809.844915" y="106.358169" style="fill: #4c72b0; stroke: #4c72b0"/>
    </g>
   </g>
   <g id="patch_3">
    <path d="M 49.807187 122.698125 
L 49.807187 22.318125 
" style="fill: none; stroke: #ffffff; stroke-width: 1.25; stroke-linejoin: miter; stroke-linecap: square"/>
   </g>
   <g id="patch_4">
    <path d="M 49.807187 122.698125 
L 846.037188 122.698125 
" style="fill: none; stroke: #ffffff; stroke-width: 1.25; stroke-linejoin: miter; stroke-linecap: square"/>
   </g>
   <g id="text_5">
    <!-- chain = 0 -->
    <g style="fill: #262626" transform="translate(419.015312 16.318125) scale(0.12 -0.12)">
     <defs>
      <path id="DejaVuSans-63" d="M 3122 3366 
L 3122 2828 
Q 2878 2963 2633 3030 
Q 2388 3097 2138 3097 
Q 1578 3097 1268 2742 
Q 959 2388 959 1747 
Q 959 1106 1268 751 
Q 1578 397 2138 397 
Q 2388 397 2633 464 
Q 2878 531 3122 666 
L 3122 134 
Q 2881 22 2623 -34 
Q 2366 -91 2075 -91 
Q 1284 -91 818 406 
Q 353 903 353 1747 
Q 353 2603 823 3093 
Q 1294 3584 2113 3584 
Q 2378 3584 2631 3529 
Q 2884 3475 3122 3366 
z
" transform="scale(0.015625)"/>
      <path id="DejaVuSans-68" d="M 3513 2113 
L 3513 0 
L 2938 0 
L 2938 2094 
Q 2938 2591 2744 2837 
Q 2550 3084 2163 3084 
Q 1697 3084 1428 2787 
Q 1159 2491 1159 1978 
L 1159 0 
L 581 0 
L 581 4863 
L 1159 4863 
L 1159 2956 
Q 1366 3272 1645 3428 
Q 1925 3584 2291 3584 
Q 2894 3584 3203 3211 
Q 3513 2838 3513 2113 
z
" transform="scale(0.015625)"/>
      <path id="DejaVuSans-6e" d="M 3513 2113 
L 3513 0 
L 2938 0 
L 2938 2094 
Q 2938 2591 2744 2837 
Q 2550 3084 2163 3084 
Q 1697 3084 1428 2787 
Q 1159 2491 1159 1978 
L 1159 0 
L 581 0 
L 581 3500 
L 1159 3500 
L 1159 2956 
Q 1366 3272 1645 3428 
Q 1925 3584 2291 3584 
Q 2894 3584 3203 3211 
Q 3513 2838 3513 2113 
z
" transform="scale(0.015625)"/>
      <path id="DejaVuSans-20" transform="scale(0.015625)"/>
      <path id="DejaVuSans-3d" d="M 678 2906 
L 4684 2906 
L 4684 2381 
L 678 2381 
L 678 2906 
z
M 678 1631 
L 4684 1631 
L 4684 1100 
L 678 1100 
L 678 1631 
z
" transform="scale(0.015625)"/>
     </defs>
     <use xlink:href="#DejaVuSans-63"/>
     <use xlink:href="#DejaVuSans-68" x="54.980469"/>
     <use xlink:href="#DejaVuSans-61" x="118.359375"/>
     <use xlink:href="#DejaVuSans-69" x="179.638672"/>
     <use xlink:href="#DejaVuSans-6e" x="207.421875"/>
     <use xlink:href="#DejaVuSans-20" x="270.800781"/>
     <use xlink:href="#DejaVuSans-3d" x="302.587891"/>
     <use xlink:href="#DejaVuSans-20" x="386.376953"/>
     <use xlink:href="#DejaVuSans-30" x="418.164062"/>
    </g>
   </g>
  </g>
  <g id="axes_2">
   <g id="patch_5">
    <path d="M 49.807187 250.678125 
L 846.037188 250.678125 
L 846.037188 150.298125 
L 49.807187 150.298125 
z
" style="fill: #eaeaf2"/>
   </g>
   <g id="matplotlib.axis_3">
    <g id="xtick_10">
     <g id="line2d_15">
      <path d="M 85.99946 250.678125 
L 85.99946 150.298125 
" clip-path="url(#pd342d11c06)" style="fill: none; stroke: #ffffff; stroke-linecap: round"/>
     </g>
    </g>
    <g id="xtick_11">
     <g id="line2d_16">
      <path d="M 176.934819 250.678125 
L 176.934819 150.298125 
" clip-path="url(#pd342d11c06)" style="fill: none; stroke: #ffffff; stroke-linecap: round"/>
     </g>
    </g>
    <g id="xtick_12">
     <g id="line2d_17">
      <path d="M 267.870177 250.678125 
L 267.870177 150.298125 
" clip-path="url(#pd342d11c06)" style="fill: none; stroke: #ffffff; stroke-linecap: round"/>
     </g>
    </g>
    <g id="xtick_13">
     <g id="line2d_18">
      <path d="M 358.805536 250.678125 
L 358.805536 150.298125 
" clip-path="url(#pd342d11c06)" style="fill: none; stroke: #ffffff; stroke-linecap: round"/>
     </g>
    </g>
    <g id="xtick_14">
     <g id="line2d_19">
      <path d="M 449.740895 250.678125 
L 449.740895 150.298125 
" clip-path="url(#pd342d11c06)" style="fill: none; stroke: #ffffff; stroke-linecap: round"/>
     </g>
    </g>
    <g id="xtick_15">
     <g id="line2d_20">
      <path d="M 540.676253 250.678125 
L 540.676253 150.298125 
" clip-path="url(#pd342d11c06)" style="fill: none; stroke: #ffffff; stroke-linecap: round"/>
     </g>
    </g>
    <g id="xtick_16">
     <g id="line2d_21">
      <path d="M 631.611612 250.678125 
L 631.611612 150.298125 
" clip-path="url(#pd342d11c06)" style="fill: none; stroke: #ffffff; stroke-linecap: round"/>
     </g>
    </g>
    <g id="xtick_17">
     <g id="line2d_22">
      <path d="M 722.546971 250.678125 
L 722.546971 150.298125 
" clip-path="url(#pd342d11c06)" style="fill: none; stroke: #ffffff; stroke-linecap: round"/>
     </g>
    </g>
    <g id="xtick_18">
     <g id="line2d_23">
      <path d="M 813.482329 250.678125 
L 813.482329 150.298125 
" clip-path="url(#pd342d11c06)" style="fill: none; stroke: #ffffff; stroke-linecap: round"/>
     </g>
    </g>
   </g>
   <g id="matplotlib.axis_4">
    <g id="ytick_4">
     <g id="line2d_24">
      <path d="M 49.807187 223.220718 
L 846.037188 223.220718 
" clip-path="url(#pd342d11c06)" style="fill: none; stroke: #ffffff; stroke-linecap: round"/>
     </g>
     <g id="text_6">
      <!-- 0.2 -->
      <g style="fill: #262626" transform="translate(22.81375 227.399859) scale(0.11 -0.11)">
       <use xlink:href="#DejaVuSans-30"/>
       <use xlink:href="#DejaVuSans-2e" x="63.623047"/>
       <use xlink:href="#DejaVuSans-32" x="95.410156"/>
      </g>
     </g>
    </g>
    <g id="ytick_5">
     <g id="line2d_25">
      <path d="M 49.807187 195.322282 
L 846.037188 195.322282 
" clip-path="url(#pd342d11c06)" style="fill: none; stroke: #ffffff; stroke-linecap: round"/>
     </g>
     <g id="text_7">
      <!-- 0.4 -->
      <g style="fill: #262626" transform="translate(22.81375 199.501423) scale(0.11 -0.11)">
       <use xlink:href="#DejaVuSans-30"/>
       <use xlink:href="#DejaVuSans-2e" x="63.623047"/>
       <use xlink:href="#DejaVuSans-34" x="95.410156"/>
      </g>
     </g>
    </g>
    <g id="ytick_6">
     <g id="line2d_26">
      <path d="M 49.807187 167.423846 
L 846.037188 167.423846 
" clip-path="url(#pd342d11c06)" style="fill: none; stroke: #ffffff; stroke-linecap: round"/>
     </g>
     <g id="text_8">
      <!-- 0.6 -->
      <g style="fill: #262626" transform="translate(22.81375 171.602987) scale(0.11 -0.11)">
       <use xlink:href="#DejaVuSans-30"/>
       <use xlink:href="#DejaVuSans-2e" x="63.623047"/>
       <use xlink:href="#DejaVuSans-36" x="95.410156"/>
      </g>
     </g>
    </g>
    <g id="text_9">
     <!-- regularity -->
     <g style="fill: #262626" transform="translate(16.318125 229.50375) rotate(-90) scale(0.12 -0.12)">
      <use xlink:href="#DejaVuSans-72"/>
      <use xlink:href="#DejaVuSans-65" x="38.863281"/>
      <use xlink:href="#DejaVuSans-67" x="100.386719"/>
      <use xlink:href="#DejaVuSans-75" x="163.863281"/>
      <use xlink:href="#DejaVuSans-6c" x="227.242188"/>
      <use xlink:href="#DejaVuSans-61" x="255.025391"/>
      <use xlink:href="#DejaVuSans-72" x="316.304688"/>
      <use xlink:href="#DejaVuSans-69" x="357.417969"/>
      <use xlink:href="#DejaVuSans-74" x="385.201172"/>
      <use xlink:href="#DejaVuSans-79" x="424.410156"/>
     </g>
    </g>
   </g>
   <g id="PolyCollection_2"/>
   <g id="line2d_27">
    <path d="M 85.99946 211.510474 
L 89.636875 187.391662 
L 93.274289 185.708369 
L 96.911703 177.031361 
L 100.549118 177.549137 
L 104.186532 180.461624 
L 107.823946 190.917962 
L 111.461361 190.093329 
L 115.098775 188.531393 
L 118.736189 198.659197 
L 122.373604 192.327997 
L 126.011018 236.09918 
L 129.648432 235.799903 
L 133.285847 231.977379 
L 136.923261 213.835586 
L 140.560675 224.592579 
L 144.19809 231.891965 
L 147.835504 231.922034 
L 151.472918 228.504809 
L 155.110333 228.440173 
L 158.747747 208.2593 
L 162.385161 227.628394 
L 166.022576 228.447399 
L 169.65999 214.819018 
L 173.297404 212.900295 
L 176.934819 227.821361 
L 180.572233 191.290143 
L 184.209648 192.543492 
L 187.847062 193.405066 
L 191.484476 195.21883 
L 195.121891 186.021238 
L 198.759305 197.445904 
L 202.396719 217.919957 
L 206.034134 215.721093 
L 209.671548 220.31408 
L 213.308962 219.981096 
L 216.946377 216.169661 
L 220.583791 192.178249 
L 224.221205 192.961484 
L 227.85862 177.476612 
L 231.496034 180.940253 
L 235.133448 211.077604 
L 238.770863 231.085773 
L 242.408277 230.254976 
L 246.045691 226.596765 
L 249.683106 227.734475 
L 253.32052 218.573301 
L 256.957934 216.842895 
L 260.595349 233.419113 
L 264.232763 228.182703 
L 267.870177 230.621689 
L 271.507592 233.31857 
L 275.145006 231.020877 
L 278.78242 227.151837 
L 282.419835 201.847857 
L 286.057249 205.547492 
L 289.694664 227.153658 
L 293.332078 234.438292 
L 296.969492 227.581195 
L 300.606907 209.005102 
L 304.244321 194.369735 
L 307.881735 193.687644 
L 311.51915 194.935697 
L 315.156564 165.029052 
L 318.793978 177.212168 
L 322.431393 174.815228 
L 326.068807 176.588676 
L 329.706221 184.567249 
L 333.343636 238.256312 
L 336.98105 244.37281 
L 340.618464 155.534789 
L 344.255879 154.860852 
L 347.893293 170.481871 
L 351.530707 166.329186 
L 355.168122 215.043965 
L 358.805536 201.816549 
L 362.44295 200.832072 
L 366.080365 227.541804 
L 369.717779 226.79264 
L 373.355193 226.594391 
L 376.992608 226.895277 
L 380.630022 236.629857 
L 384.267436 223.700617 
L 387.904851 212.604692 
L 391.542265 208.444052 
L 395.17968 208.489286 
L 398.817094 214.274869 
L 402.454508 211.985295 
L 406.091923 210.134415 
L 409.729337 187.249553 
L 413.366751 188.919658 
L 417.004166 189.413038 
L 420.64158 197.496406 
L 424.278994 226.2418 
L 427.916409 207.011979 
L 431.553823 217.337363 
L 435.191237 207.82004 
L 438.828652 242.135013 
L 442.466066 242.013357 
L 446.10348 242.49115 
L 449.740895 201.397289 
L 453.378309 212.551008 
L 457.015723 188.714591 
L 460.653138 229.692523 
L 464.290552 213.307142 
L 467.927966 195.61797 
L 471.565381 195.369272 
L 475.202795 237.386624 
L 478.840209 237.358872 
L 482.477624 226.573578 
L 486.115038 197.435553 
L 489.752452 239.4848 
L 493.389867 239.176093 
L 497.027281 183.411847 
L 500.664695 178.353693 
L 504.30211 201.754446 
L 507.939524 219.466367 
L 511.576939 210.5256 
L 515.214353 223.577627 
L 518.851767 228.247517 
L 522.489182 233.163829 
L 526.126596 229.036451 
L 529.76401 225.963858 
L 533.401425 232.859174 
L 537.038839 222.019862 
L 540.676253 222.409777 
L 544.313668 187.062791 
L 547.951082 234.457268 
L 551.588496 231.501232 
L 555.225911 172.10237 
L 558.863325 175.465884 
L 562.500739 174.219628 
L 566.138154 185.414341 
L 569.775568 200.569398 
L 573.412982 222.960283 
L 577.050397 199.142281 
L 580.687811 208.055785 
L 584.325225 205.090822 
L 587.96264 204.604503 
L 591.600054 208.31889 
L 595.237468 171.218624 
L 598.874883 217.742109 
L 602.512297 224.011793 
L 606.149711 219.094662 
L 609.787126 227.632193 
L 613.42454 227.423755 
L 617.061955 205.885024 
L 620.699369 206.188466 
L 624.336783 210.58372 
L 627.974198 212.870412 
L 631.611612 229.693232 
L 635.249026 197.340589 
L 638.886441 226.59035 
L 642.523855 222.961675 
L 646.161269 236.143999 
L 649.798684 235.442831 
L 653.436098 216.616209 
L 657.073512 217.640466 
L 660.710927 220.05774 
L 664.348341 219.094001 
L 667.985755 211.357805 
L 671.62317 206.050387 
L 675.260584 212.712304 
L 678.897998 213.695927 
L 682.535413 221.730697 
L 686.172827 212.770097 
L 689.810241 218.027884 
L 693.447656 208.122091 
L 697.08507 219.592467 
L 700.722484 221.868713 
L 704.359899 221.347011 
L 707.997313 238.069905 
L 711.634727 221.437917 
L 715.272142 217.238309 
L 718.909556 215.058483 
L 722.546971 231.452355 
L 726.184385 226.811241 
L 729.821799 227.706132 
L 733.459214 192.849598 
L 737.096628 237.795081 
L 744.371457 244.488876 
L 748.008871 243.983143 
L 751.646285 243.868796 
L 755.2837 240.933789 
L 758.921114 237.397822 
L 762.558528 241.238962 
L 766.195943 217.431872 
L 769.833357 221.275136 
L 773.470771 197.706571 
L 777.108186 196.374224 
L 780.7456 222.137874 
L 784.383014 229.145781 
L 788.020429 228.548187 
L 791.657843 231.304653 
L 795.295257 210.945177 
L 798.932672 222.560291 
L 802.570086 216.086885 
L 806.2075 212.13559 
L 809.844915 202.257375 
L 809.844915 202.257375 
" clip-path="url(#pd342d11c06)" style="fill: none; stroke: #4c72b0; stroke-width: 1.5; stroke-linecap: round"/>
   </g>
   <g id="line2d_28">
    <g clip-path="url(#pd342d11c06)">
     <use xlink:href="#m7df5b32419" x="809.844915" y="202.257375" style="fill: #4c72b0; stroke: #4c72b0"/>
    </g>
   </g>
   <g id="patch_6">
    <path d="M 49.807187 250.678125 
L 49.807187 150.298125 
" style="fill: none; stroke: #ffffff; stroke-width: 1.25; stroke-linejoin: miter; stroke-linecap: square"/>
   </g>
   <g id="patch_7">
    <path d="M 49.807187 250.678125 
L 846.037188 250.678125 
" style="fill: none; stroke: #ffffff; stroke-width: 1.25; stroke-linejoin: miter; stroke-linecap: square"/>
   </g>
   <g id="text_10">
    <!-- chain = 1 -->
    <g style="fill: #262626" transform="translate(419.015312 144.298125) scale(0.12 -0.12)">
     <defs>
      <path id="DejaVuSans-31" d="M 794 531 
L 1825 531 
L 1825 4091 
L 703 3866 
L 703 4441 
L 1819 4666 
L 2450 4666 
L 2450 531 
L 3481 531 
L 3481 0 
L 794 0 
L 794 531 
z
" transform="scale(0.015625)"/>
     </defs>
     <use xlink:href="#DejaVuSans-63"/>
     <use xlink:href="#DejaVuSans-68" x="54.980469"/>
     <use xlink:href="#DejaVuSans-61" x="118.359375"/>
     <use xlink:href="#DejaVuSans-69" x="179.638672"/>
     <use xlink:href="#DejaVuSans-6e" x="207.421875"/>
     <use xlink:href="#DejaVuSans-20" x="270.800781"/>
     <use xlink:href="#DejaVuSans-3d" x="302.587891"/>
     <use xlink:href="#DejaVuSans-20" x="386.376953"/>
     <use xlink:href="#DejaVuSans-31" x="418.164062"/>
    </g>
   </g>
  </g>
  <g id="axes_3">
   <g id="patch_8">
    <path d="M 49.807187 378.658125 
L 846.037188 378.658125 
L 846.037188 278.278125 
L 49.807187 278.278125 
z
" style="fill: #eaeaf2"/>
   </g>
   <g id="matplotlib.axis_5">
    <g id="xtick_19">
     <g id="line2d_29">
      <path d="M 85.99946 378.658125 
L 85.99946 278.278125 
" clip-path="url(#pc68a248407)" style="fill: none; stroke: #ffffff; stroke-linecap: round"/>
     </g>
     <g id="text_11">
      <!-- 0 -->
      <g style="fill: #262626" transform="translate(82.500085 396.516406) scale(0.11 -0.11)">
       <use xlink:href="#DejaVuSans-30"/>
      </g>
     </g>
    </g>
    <g id="xtick_20">
     <g id="line2d_30">
      <path d="M 176.934819 378.658125 
L 176.934819 278.278125 
" clip-path="url(#pc68a248407)" style="fill: none; stroke: #ffffff; stroke-linecap: round"/>
     </g>
     <g id="text_12">
      <!-- 25 -->
      <g style="fill: #262626" transform="translate(169.936069 396.516406) scale(0.11 -0.11)">
       <defs>
        <path id="DejaVuSans-35" d="M 691 4666 
L 3169 4666 
L 3169 4134 
L 1269 4134 
L 1269 2991 
Q 1406 3038 1543 3061 
Q 1681 3084 1819 3084 
Q 2600 3084 3056 2656 
Q 3513 2228 3513 1497 
Q 3513 744 3044 326 
Q 2575 -91 1722 -91 
Q 1428 -91 1123 -41 
Q 819 9 494 109 
L 494 744 
Q 775 591 1075 516 
Q 1375 441 1709 441 
Q 2250 441 2565 725 
Q 2881 1009 2881 1497 
Q 2881 1984 2565 2268 
Q 2250 2553 1709 2553 
Q 1456 2553 1204 2497 
Q 953 2441 691 2322 
L 691 4666 
z
" transform="scale(0.015625)"/>
       </defs>
       <use xlink:href="#DejaVuSans-32"/>
       <use xlink:href="#DejaVuSans-35" x="63.623047"/>
      </g>
     </g>
    </g>
    <g id="xtick_21">
     <g id="line2d_31">
      <path d="M 267.870177 378.658125 
L 267.870177 278.278125 
" clip-path="url(#pc68a248407)" style="fill: none; stroke: #ffffff; stroke-linecap: round"/>
     </g>
     <g id="text_13">
      <!-- 50 -->
      <g style="fill: #262626" transform="translate(260.871427 396.516406) scale(0.11 -0.11)">
       <use xlink:href="#DejaVuSans-35"/>
       <use xlink:href="#DejaVuSans-30" x="63.623047"/>
      </g>
     </g>
    </g>
    <g id="xtick_22">
     <g id="line2d_32">
      <path d="M 358.805536 378.658125 
L 358.805536 278.278125 
" clip-path="url(#pc68a248407)" style="fill: none; stroke: #ffffff; stroke-linecap: round"/>
     </g>
     <g id="text_14">
      <!-- 75 -->
      <g style="fill: #262626" transform="translate(351.806786 396.516406) scale(0.11 -0.11)">
       <defs>
        <path id="DejaVuSans-37" d="M 525 4666 
L 3525 4666 
L 3525 4397 
L 1831 0 
L 1172 0 
L 2766 4134 
L 525 4134 
L 525 4666 
z
" transform="scale(0.015625)"/>
       </defs>
       <use xlink:href="#DejaVuSans-37"/>
       <use xlink:href="#DejaVuSans-35" x="63.623047"/>
      </g>
     </g>
    </g>
    <g id="xtick_23">
     <g id="line2d_33">
      <path d="M 449.740895 378.658125 
L 449.740895 278.278125 
" clip-path="url(#pc68a248407)" style="fill: none; stroke: #ffffff; stroke-linecap: round"/>
     </g>
     <g id="text_15">
      <!-- 100 -->
      <g style="fill: #262626" transform="translate(439.24277 396.516406) scale(0.11 -0.11)">
       <use xlink:href="#DejaVuSans-31"/>
       <use xlink:href="#DejaVuSans-30" x="63.623047"/>
       <use xlink:href="#DejaVuSans-30" x="127.246094"/>
      </g>
     </g>
    </g>
    <g id="xtick_24">
     <g id="line2d_34">
      <path d="M 540.676253 378.658125 
L 540.676253 278.278125 
" clip-path="url(#pc68a248407)" style="fill: none; stroke: #ffffff; stroke-linecap: round"/>
     </g>
     <g id="text_16">
      <!-- 125 -->
      <g style="fill: #262626" transform="translate(530.178128 396.516406) scale(0.11 -0.11)">
       <use xlink:href="#DejaVuSans-31"/>
       <use xlink:href="#DejaVuSans-32" x="63.623047"/>
       <use xlink:href="#DejaVuSans-35" x="127.246094"/>
      </g>
     </g>
    </g>
    <g id="xtick_25">
     <g id="line2d_35">
      <path d="M 631.611612 378.658125 
L 631.611612 278.278125 
" clip-path="url(#pc68a248407)" style="fill: none; stroke: #ffffff; stroke-linecap: round"/>
     </g>
     <g id="text_17">
      <!-- 150 -->
      <g style="fill: #262626" transform="translate(621.113487 396.516406) scale(0.11 -0.11)">
       <use xlink:href="#DejaVuSans-31"/>
       <use xlink:href="#DejaVuSans-35" x="63.623047"/>
       <use xlink:href="#DejaVuSans-30" x="127.246094"/>
      </g>
     </g>
    </g>
    <g id="xtick_26">
     <g id="line2d_36">
      <path d="M 722.546971 378.658125 
L 722.546971 278.278125 
" clip-path="url(#pc68a248407)" style="fill: none; stroke: #ffffff; stroke-linecap: round"/>
     </g>
     <g id="text_18">
      <!-- 175 -->
      <g style="fill: #262626" transform="translate(712.048846 396.516406) scale(0.11 -0.11)">
       <use xlink:href="#DejaVuSans-31"/>
       <use xlink:href="#DejaVuSans-37" x="63.623047"/>
       <use xlink:href="#DejaVuSans-35" x="127.246094"/>
      </g>
     </g>
    </g>
    <g id="xtick_27">
     <g id="line2d_37">
      <path d="M 813.482329 378.658125 
L 813.482329 278.278125 
" clip-path="url(#pc68a248407)" style="fill: none; stroke: #ffffff; stroke-linecap: round"/>
     </g>
     <g id="text_19">
      <!-- 200 -->
      <g style="fill: #262626" transform="translate(802.984204 396.516406) scale(0.11 -0.11)">
       <use xlink:href="#DejaVuSans-32"/>
       <use xlink:href="#DejaVuSans-30" x="63.623047"/>
       <use xlink:href="#DejaVuSans-30" x="127.246094"/>
      </g>
     </g>
    </g>
    <g id="text_20">
     <!-- draw -->
     <g style="fill: #262626" transform="translate(433.062813 411.922187) scale(0.12 -0.12)">
      <defs>
       <path id="DejaVuSans-64" d="M 2906 2969 
L 2906 4863 
L 3481 4863 
L 3481 0 
L 2906 0 
L 2906 525 
Q 2725 213 2448 61 
Q 2172 -91 1784 -91 
Q 1150 -91 751 415 
Q 353 922 353 1747 
Q 353 2572 751 3078 
Q 1150 3584 1784 3584 
Q 2172 3584 2448 3432 
Q 2725 3281 2906 2969 
z
M 947 1747 
Q 947 1113 1208 752 
Q 1469 391 1925 391 
Q 2381 391 2643 752 
Q 2906 1113 2906 1747 
Q 2906 2381 2643 2742 
Q 2381 3103 1925 3103 
Q 1469 3103 1208 2742 
Q 947 2381 947 1747 
z
" transform="scale(0.015625)"/>
       <path id="DejaVuSans-77" d="M 269 3500 
L 844 3500 
L 1563 769 
L 2278 3500 
L 2956 3500 
L 3675 769 
L 4391 3500 
L 4966 3500 
L 4050 0 
L 3372 0 
L 2619 2869 
L 1863 0 
L 1184 0 
L 269 3500 
z
" transform="scale(0.015625)"/>
      </defs>
      <use xlink:href="#DejaVuSans-64"/>
      <use xlink:href="#DejaVuSans-72" x="63.476562"/>
      <use xlink:href="#DejaVuSans-61" x="104.589844"/>
      <use xlink:href="#DejaVuSans-77" x="165.869141"/>
     </g>
    </g>
   </g>
   <g id="matplotlib.axis_6">
    <g id="ytick_7">
     <g id="line2d_38">
      <path d="M 49.807187 351.200718 
L 846.037188 351.200718 
" clip-path="url(#pc68a248407)" style="fill: none; stroke: #ffffff; stroke-linecap: round"/>
     </g>
     <g id="text_21">
      <!-- 0.2 -->
      <g style="fill: #262626" transform="translate(22.81375 355.379859) scale(0.11 -0.11)">
       <use xlink:href="#DejaVuSans-30"/>
       <use xlink:href="#DejaVuSans-2e" x="63.623047"/>
       <use xlink:href="#DejaVuSans-32" x="95.410156"/>
      </g>
     </g>
    </g>
    <g id="ytick_8">
     <g id="line2d_39">
      <path d="M 49.807187 323.302282 
L 846.037188 323.302282 
" clip-path="url(#pc68a248407)" style="fill: none; stroke: #ffffff; stroke-linecap: round"/>
     </g>
     <g id="text_22">
      <!-- 0.4 -->
      <g style="fill: #262626" transform="translate(22.81375 327.481423) scale(0.11 -0.11)">
       <use xlink:href="#DejaVuSans-30"/>
       <use xlink:href="#DejaVuSans-2e" x="63.623047"/>
       <use xlink:href="#DejaVuSans-34" x="95.410156"/>
      </g>
     </g>
    </g>
    <g id="ytick_9">
     <g id="line2d_40">
      <path d="M 49.807187 295.403846 
L 846.037188 295.403846 
" clip-path="url(#pc68a248407)" style="fill: none; stroke: #ffffff; stroke-linecap: round"/>
     </g>
     <g id="text_23">
      <!-- 0.6 -->
      <g style="fill: #262626" transform="translate(22.81375 299.582987) scale(0.11 -0.11)">
       <use xlink:href="#DejaVuSans-30"/>
       <use xlink:href="#DejaVuSans-2e" x="63.623047"/>
       <use xlink:href="#DejaVuSans-36" x="95.410156"/>
      </g>
     </g>
    </g>
    <g id="text_24">
     <!-- regularity -->
     <g style="fill: #262626" transform="translate(16.318125 357.48375) rotate(-90) scale(0.12 -0.12)">
      <use xlink:href="#DejaVuSans-72"/>
      <use xlink:href="#DejaVuSans-65" x="38.863281"/>
      <use xlink:href="#DejaVuSans-67" x="100.386719"/>
      <use xlink:href="#DejaVuSans-75" x="163.863281"/>
      <use xlink:href="#DejaVuSans-6c" x="227.242188"/>
      <use xlink:href="#DejaVuSans-61" x="255.025391"/>
      <use xlink:href="#DejaVuSans-72" x="316.304688"/>
      <use xlink:href="#DejaVuSans-69" x="357.417969"/>
      <use xlink:href="#DejaVuSans-74" x="385.201172"/>
      <use xlink:href="#DejaVuSans-79" x="424.410156"/>
     </g>
    </g>
   </g>
   <g id="PolyCollection_3"/>
   <g id="line2d_41">
    <path d="M 85.99946 369.197965 
L 89.636875 365.889314 
L 93.274289 362.259005 
L 96.911703 366.271925 
L 100.549118 314.4977 
L 104.186532 352.819869 
L 107.823946 333.901612 
L 111.461361 333.674903 
L 115.098775 346.897909 
L 118.736189 339.910389 
L 122.373604 340.422532 
L 126.011018 358.62631 
L 129.648432 361.218928 
L 133.285847 361.426091 
L 136.923261 360.865181 
L 140.560675 360.041476 
L 144.19809 359.772241 
L 147.835504 359.120806 
L 151.472918 363.871487 
L 155.110333 363.056801 
L 158.747747 347.222435 
L 162.385161 342.84416 
L 166.022576 331.559496 
L 169.65999 321.583057 
L 173.297404 313.071158 
L 176.934819 295.084343 
L 180.572233 297.912613 
L 184.209648 296.605317 
L 187.847062 317.680469 
L 191.484476 335.524194 
L 195.121891 336.54893 
L 198.759305 334.382891 
L 202.396719 333.766999 
L 206.034134 301.723193 
L 209.671548 333.925615 
L 213.308962 329.270818 
L 216.946377 328.681402 
L 220.583791 332.157769 
L 224.221205 332.959977 
L 227.85862 338.023686 
L 231.496034 341.651243 
L 235.133448 341.528878 
L 238.770863 346.783589 
L 242.408277 337.366661 
L 246.045691 342.030199 
L 249.683106 353.139733 
L 253.32052 335.181603 
L 256.957934 333.529243 
L 260.595349 324.396106 
L 264.232763 358.468128 
L 267.870177 353.841004 
L 271.507592 336.733833 
L 275.145006 343.206427 
L 278.78242 322.669077 
L 282.419835 322.669077 
L 286.057249 312.023383 
L 289.694664 327.278969 
L 293.332078 344.841461 
L 296.969492 345.044309 
L 300.606907 342.766448 
L 304.244321 338.262369 
L 307.881735 344.272797 
L 311.51915 360.455618 
L 315.156564 359.76898 
L 318.793978 350.631313 
L 322.431393 348.343419 
L 326.068807 355.412724 
L 329.706221 352.498997 
L 333.343636 329.063444 
L 336.98105 335.906384 
L 340.618464 321.603105 
L 344.255879 337.333168 
L 347.893293 332.497485 
L 351.530707 336.87541 
L 355.168122 351.543547 
L 358.805536 335.257329 
L 362.44295 357.763312 
L 366.080365 361.874572 
L 369.717779 322.019696 
L 373.355193 323.839902 
L 376.992608 318.792433 
L 380.630022 317.74123 
L 384.267436 305.423687 
L 387.904851 308.031609 
L 391.542265 338.974237 
L 395.17968 324.326138 
L 398.817094 331.761683 
L 402.454508 334.526482 
L 406.091923 334.704234 
L 409.729337 341.570031 
L 413.366751 333.742671 
L 417.004166 333.345277 
L 420.64158 332.735337 
L 424.278994 326.318766 
L 427.916409 317.287305 
L 431.553823 365.642755 
L 435.191237 370.103368 
L 438.828652 366.947808 
L 442.466066 349.138474 
L 446.10348 348.937178 
L 449.740895 354.250763 
L 453.378309 353.579402 
L 457.015723 357.455511 
L 460.653138 364.637448 
L 464.290552 363.876253 
L 467.927966 364.276295 
L 471.565381 363.39033 
L 475.202795 353.03564 
L 478.840209 348.946862 
L 482.477624 348.983405 
L 486.115038 348.760527 
L 489.752452 336.613851 
L 493.389867 332.095197 
L 497.027281 318.000627 
L 500.664695 338.552624 
L 504.30211 331.503164 
L 507.939524 334.351418 
L 511.576939 334.64641 
L 515.214353 335.06301 
L 518.851767 347.918307 
L 522.489182 344.515943 
L 526.126596 343.226371 
L 529.76401 339.922192 
L 533.401425 341.12144 
L 537.038839 343.081847 
L 540.676253 334.214087 
L 544.313668 350.021428 
L 547.951082 350.655388 
L 551.588496 348.846611 
L 555.225911 306.750174 
L 558.863325 306.09125 
L 562.500739 307.572794 
L 566.138154 307.456728 
L 569.775568 364.570217 
L 577.050397 367.273511 
L 580.687811 366.887301 
L 584.325225 365.235029 
L 587.96264 364.831307 
L 591.600054 354.084299 
L 595.237468 354.156749 
L 598.874883 350.288001 
L 602.512297 342.271053 
L 606.149711 343.881422 
L 609.787126 338.007514 
L 613.42454 347.132682 
L 617.061955 345.645134 
L 620.699369 361.689093 
L 624.336783 353.245003 
L 627.974198 334.742095 
L 631.611612 338.516012 
L 635.249026 342.99963 
L 638.886441 363.235188 
L 642.523855 364.206641 
L 646.161269 340.500612 
L 649.798684 333.134497 
L 653.436098 329.038822 
L 657.073512 323.38272 
L 660.710927 327.546252 
L 664.348341 356.703709 
L 667.985755 356.067616 
L 671.62317 353.420765 
L 675.260584 353.693342 
L 678.897998 354.183913 
L 682.535413 346.495035 
L 686.172827 340.182072 
L 689.810241 344.549603 
L 693.447656 329.981295 
L 697.08507 352.119161 
L 700.722484 351.909498 
L 704.359899 352.261608 
L 707.997313 343.253054 
L 711.634727 340.848299 
L 715.272142 340.212731 
L 718.909556 343.578552 
L 722.546971 336.951225 
L 726.184385 336.947594 
L 729.821799 348.081304 
L 733.459214 340.458811 
L 737.096628 340.034527 
L 740.734042 357.192989 
L 744.371457 352.582684 
L 748.008871 349.409746 
L 751.646285 349.444352 
L 755.2837 335.544573 
L 758.921114 328.953724 
L 762.558528 337.756701 
L 766.195943 338.003814 
L 769.833357 333.290752 
L 773.470771 302.50193 
L 777.108186 301.511221 
L 780.7456 299.989591 
L 784.383014 289.577107 
L 788.020429 288.73114 
L 791.657843 292.069271 
L 795.295257 374.095398 
L 798.932672 373.713697 
L 802.570086 370.719611 
L 806.2075 370.139777 
L 809.844915 367.954177 
L 809.844915 367.954177 
" clip-path="url(#pc68a248407)" style="fill: none; stroke: #4c72b0; stroke-width: 1.5; stroke-linecap: round"/>
   </g>
   <g id="line2d_42">
    <g clip-path="url(#pc68a248407)">
     <use xlink:href="#m7df5b32419" x="809.844915" y="367.954177" style="fill: #4c72b0; stroke: #4c72b0"/>
    </g>
   </g>
   <g id="patch_9">
    <path d="M 49.807187 378.658125 
L 49.807187 278.278125 
" style="fill: none; stroke: #ffffff; stroke-width: 1.25; stroke-linejoin: miter; stroke-linecap: square"/>
   </g>
   <g id="patch_10">
    <path d="M 49.807187 378.658125 
L 846.037188 378.658125 
" style="fill: none; stroke: #ffffff; stroke-width: 1.25; stroke-linejoin: miter; stroke-linecap: square"/>
   </g>
   <g id="text_25">
    <!-- chain = 2 -->
    <g style="fill: #262626" transform="translate(419.015312 272.278125) scale(0.12 -0.12)">
     <use xlink:href="#DejaVuSans-63"/>
     <use xlink:href="#DejaVuSans-68" x="54.980469"/>
     <use xlink:href="#DejaVuSans-61" x="118.359375"/>
     <use xlink:href="#DejaVuSans-69" x="179.638672"/>
     <use xlink:href="#DejaVuSans-6e" x="207.421875"/>
     <use xlink:href="#DejaVuSans-20" x="270.800781"/>
     <use xlink:href="#DejaVuSans-3d" x="302.587891"/>
     <use xlink:href="#DejaVuSans-20" x="386.376953"/>
     <use xlink:href="#DejaVuSans-32" x="418.164062"/>
    </g>
   </g>
  </g>
 </g>
 <defs>
  <clipPath id="p1b24375ae8">
   <rect x="49.807187" y="22.318125" width="796.23" height="100.38"/>
  </clipPath>
  <clipPath id="pd342d11c06">
   <rect x="49.807187" y="150.298125" width="796.23" height="100.38"/>
  </clipPath>
  <clipPath id="pc68a248407">
   <rect x="49.807187" y="278.278125" width="796.23" height="100.38"/>
  </clipPath>
 </defs>
</svg>
