<?xml version="1.0" encoding="utf-8" standalone="no"?>
<!DOCTYPE svg PUBLIC "-//W3C//DTD SVG 1.1//EN"
  "http://www.w3.org/Graphics/SVG/1.1/DTD/svg11.dtd">
<svg xmlns:xlink="http://www.w3.org/1999/xlink" width="381.882396pt" height="318.718875pt" viewBox="0 0 381.882396 318.718875" xmlns="http://www.w3.org/2000/svg" version="1.1">
 <metadata>
  <rdf:RDF xmlns:dc="http://purl.org/dc/elements/1.1/" xmlns:cc="http://creativecommons.org/ns#" xmlns:rdf="http://www.w3.org/1999/02/22-rdf-syntax-ns#">
   <cc:Work>
    <dc:type rdf:resource="http://purl.org/dc/dcmitype/StillImage"/>
    <dc:date>2023-09-21T15:22:45.688069</dc:date>
    <dc:format>image/svg+xml</dc:format>
    <dc:creator>
     <cc:Agent>
      <dc:title>Matplotlib v3.7.2, https://matplotlib.org/</dc:title>
     </cc:Agent>
    </dc:creator>
   </cc:Work>
  </rdf:RDF>
 </metadata>
 <defs>
  <style type="text/css">*{stroke-linejoin: round; stroke-linecap: butt}</style>
 </defs>
 <g id="figure_1">
  <g id="patch_1">
   <path d="M 0 318.718875 
L 381.882396 318.718875 
L 381.882396 0 
L 0 0 
z
" style="fill: #ffffff"/>
  </g>
  <g id="axes_1">
   <g id="patch_2">
    <path d="M 17.562396 291.4695 
L 374.682396 291.4695 
L 374.682396 25.3575 
L 17.562396 25.3575 
z
" style="fill: #ffffff"/>
   </g>
   <g id="PolyCollection_1">
    <defs>
     <path id="m3594d261c7" d="M 33.795123 -39.345375 
L 33.795123 -39.680878 
L 34.430455 -39.677424 
L 35.065786 -39.672201 
L 35.701118 -39.662825 
L 36.33645 -39.650779 
L 36.971782 -39.636476 
L 37.607114 -39.621975 
L 38.242445 -39.605204 
L 38.877777 -39.587894 
L 39.513109 -39.572209 
L 40.148441 -39.556127 
L 40.783773 -39.541376 
L 41.419104 -39.528486 
L 42.054436 -39.517935 
L 42.689768 -39.510131 
L 43.3251 -39.505409 
L 43.960432 -39.504019 
L 44.595763 -39.506125 
L 45.231095 -39.513379 
L 45.866427 -39.524747 
L 46.501759 -39.540287 
L 47.13709 -39.558426 
L 47.772422 -39.580138 
L 48.407754 -39.605176 
L 49.043086 -39.633231 
L 49.678418 -39.663931 
L 50.313749 -39.698435 
L 50.949081 -39.735267 
L 51.584413 -39.775685 
L 52.219745 -39.816796 
L 52.855077 -39.856796 
L 53.490408 -39.899581 
L 54.12574 -39.943368 
L 54.761072 -39.987594 
L 55.396404 -40.032177 
L 56.031736 -40.077077 
L 56.667067 -40.123879 
L 57.302399 -40.171601 
L 57.937731 -40.220463 
L 58.573063 -40.272295 
L 59.208395 -40.324775 
L 59.843726 -40.379354 
L 60.479058 -40.434742 
L 61.11439 -40.493787 
L 61.749722 -40.555516 
L 62.385053 -40.618464 
L 63.020385 -40.685269 
L 63.655717 -40.754719 
L 64.291049 -40.82984 
L 64.926381 -40.905248 
L 65.561712 -40.981484 
L 66.197044 -41.060929 
L 66.832376 -41.143752 
L 67.467708 -41.22552 
L 68.10304 -41.311338 
L 68.738371 -41.397235 
L 69.373703 -41.487355 
L 70.009035 -41.577962 
L 70.644367 -41.668738 
L 71.279699 -41.760877 
L 71.91503 -41.852882 
L 72.550362 -41.945866 
L 73.185694 -42.042918 
L 73.821026 -42.143894 
L 74.456358 -42.243215 
L 75.091689 -42.350161 
L 75.727021 -42.455787 
L 76.362353 -42.56241 
L 76.997685 -42.674174 
L 77.633016 -42.786805 
L 78.268348 -42.90489 
L 78.90368 -43.024626 
L 79.539012 -43.148278 
L 80.174344 -43.271614 
L 80.809675 -43.399913 
L 81.445007 -43.530935 
L 82.080339 -43.666355 
L 82.715671 -43.803725 
L 83.351003 -43.944434 
L 83.986334 -44.089219 
L 84.621666 -44.237341 
L 85.256998 -44.390356 
L 85.89233 -44.553064 
L 86.527662 -44.72569 
L 87.162993 -44.905674 
L 87.798325 -45.092344 
L 88.433657 -45.286027 
L 89.068989 -45.498283 
L 89.704321 -45.714326 
L 90.339652 -45.951275 
L 90.974984 -46.198374 
L 91.610316 -46.460118 
L 92.245648 -46.738592 
L 92.880979 -47.03929 
L 93.516311 -47.35299 
L 94.151643 -47.689309 
L 94.786975 -48.037322 
L 95.422307 -48.398038 
L 96.057638 -48.77737 
L 96.69297 -49.170249 
L 97.328302 -49.570376 
L 97.963634 -49.98005 
L 98.598966 -50.394707 
L 99.234297 -50.813743 
L 99.869629 -51.233066 
L 100.504961 -51.646975 
L 101.140293 -52.049499 
L 101.775625 -52.445495 
L 102.410956 -52.821368 
L 103.046288 -53.184027 
L 103.68162 -53.53072 
L 104.316952 -53.849966 
L 104.952283 -54.149653 
L 105.587615 -54.428335 
L 106.222947 -54.686524 
L 106.858279 -54.919809 
L 107.493611 -55.13556 
L 108.128942 -55.342159 
L 108.764274 -55.533181 
L 109.399606 -55.707207 
L 110.034938 -55.885744 
L 110.67027 -56.066941 
L 111.305601 -56.254547 
L 111.940933 -56.456302 
L 112.576265 -56.670201 
L 113.211597 -56.918283 
L 113.846929 -57.183824 
L 114.48226 -57.489567 
L 115.117592 -57.84685 
L 115.752924 -58.223732 
L 116.388256 -58.643583 
L 117.023588 -59.10611 
L 117.658919 -59.616781 
L 118.294251 -60.176347 
L 118.929583 -60.778923 
L 119.564915 -61.422922 
L 120.200246 -62.103773 
L 120.835578 -62.82584 
L 121.47091 -63.595079 
L 122.106242 -64.408824 
L 122.741574 -65.235166 
L 123.376905 -66.090973 
L 124.012237 -66.985865 
L 124.647569 -67.90068 
L 125.282901 -68.837656 
L 125.918233 -69.799112 
L 126.553564 -70.796845 
L 127.188896 -71.819221 
L 127.824228 -72.842039 
L 128.45956 -73.902584 
L 129.094892 -74.970113 
L 129.730223 -76.074713 
L 130.365555 -77.199065 
L 131.000887 -78.330939 
L 131.636219 -79.502368 
L 132.271551 -80.676733 
L 132.906882 -81.870669 
L 133.542214 -83.084383 
L 134.177546 -84.31772 
L 134.812878 -85.56798 
L 135.448209 -86.839727 
L 136.083541 -88.118098 
L 136.718873 -89.413653 
L 137.354205 -90.703154 
L 137.989537 -92.00032 
L 138.624868 -93.290919 
L 139.2602 -94.579119 
L 139.895532 -95.879187 
L 140.530864 -97.147063 
L 141.166196 -98.414732 
L 141.801527 -99.662452 
L 142.436859 -100.91029 
L 143.072191 -102.142391 
L 143.707523 -103.348303 
L 144.342855 -104.541283 
L 144.978186 -105.740175 
L 145.613518 -106.912595 
L 146.24885 -108.092229 
L 146.884182 -109.258273 
L 147.519514 -110.429071 
L 148.154845 -111.613619 
L 148.790177 -112.812179 
L 149.425509 -114.021517 
L 150.060841 -115.252008 
L 150.696172 -116.503229 
L 151.331504 -117.780731 
L 151.966836 -119.087824 
L 152.602168 -120.420683 
L 153.2375 -121.784999 
L 153.872831 -123.176177 
L 154.508163 -124.631338 
L 155.143495 -126.123105 
L 155.778827 -127.64635 
L 156.414159 -129.217888 
L 157.04949 -130.828311 
L 157.684822 -132.490273 
L 158.320154 -134.200312 
L 158.955486 -135.967727 
L 159.590818 -137.748994 
L 160.226149 -139.582986 
L 160.861481 -141.44361 
L 161.496813 -143.368899 
L 162.132145 -145.322267 
L 162.767477 -147.302764 
L 163.402808 -149.308944 
L 164.03814 -151.327652 
L 164.673472 -153.372837 
L 165.308804 -155.429468 
L 165.944135 -157.491865 
L 166.579467 -159.563531 
L 167.214799 -161.616686 
L 167.850131 -163.677011 
L 168.485463 -165.710535 
L 169.120794 -167.740827 
L 169.756126 -169.769612 
L 170.391458 -171.771099 
L 171.02679 -173.791857 
L 171.662122 -175.790004 
L 172.297453 -177.786948 
L 172.932785 -179.773635 
L 173.568117 -181.741345 
L 174.203449 -183.680593 
L 174.838781 -185.616646 
L 175.474112 -187.536053 
L 176.109444 -189.456037 
L 176.744776 -191.336225 
L 177.380108 -193.158977 
L 178.01544 -194.944045 
L 178.650771 -196.687422 
L 179.286103 -198.392132 
L 179.921435 -200.038424 
L 180.556767 -201.605862 
L 181.192098 -203.09754 
L 181.82743 -204.505689 
L 182.462762 -205.831194 
L 183.098094 -207.093054 
L 183.733426 -208.274854 
L 184.368757 -209.407605 
L 185.004089 -210.46031 
L 185.639421 -211.455242 
L 186.274753 -212.389806 
L 186.910085 -213.289869 
L 187.545416 -214.147895 
L 188.180748 -214.976157 
L 188.81608 -215.800418 
L 189.451412 -216.6497 
L 190.086744 -217.506704 
L 190.722075 -218.376899 
L 191.357407 -219.302666 
L 191.992739 -220.257528 
L 192.628071 -221.251024 
L 193.263403 -222.251881 
L 193.898734 -223.32203 
L 194.534066 -224.455315 
L 195.169398 -225.598755 
L 195.80473 -226.825232 
L 196.440061 -228.098854 
L 197.075393 -229.393609 
L 197.710725 -230.784196 
L 198.346057 -232.231846 
L 198.981389 -233.707062 
L 199.61672 -235.219924 
L 200.252052 -236.770765 
L 200.887384 -238.394239 
L 201.522716 -240.053815 
L 202.158048 -241.776767 
L 202.793379 -243.566128 
L 203.428711 -245.361015 
L 204.064043 -247.204976 
L 204.699375 -249.098907 
L 205.334707 -251.048798 
L 205.970038 -253.017036 
L 206.60537 -255.020393 
L 207.240702 -257.034529 
L 207.876034 -259.049014 
L 208.511366 -261.032662 
L 209.146697 -262.993476 
L 209.782029 -264.919487 
L 210.417361 -266.787984 
L 211.052693 -268.555149 
L 211.688024 -270.244201 
L 212.323356 -271.854963 
L 212.958688 -273.358262 
L 213.59402 -274.709167 
L 214.229352 -275.936801 
L 214.864683 -277.016777 
L 215.500015 -277.969971 
L 216.135347 -278.800231 
L 216.770679 -279.506216 
L 217.406011 -280.062909 
L 218.041342 -280.517141 
L 218.676674 -280.836334 
L 219.312006 -281.066265 
L 219.947338 -281.19538 
L 220.58267 -281.265375 
L 221.218001 -281.262385 
L 221.853333 -281.160574 
L 222.488665 -281.004393 
L 223.123997 -280.798457 
L 223.759329 -280.554784 
L 224.39466 -280.266108 
L 225.029992 -279.925835 
L 225.665324 -279.531918 
L 226.300656 -279.086041 
L 226.935987 -278.594759 
L 227.571319 -278.046273 
L 228.206651 -277.398425 
L 228.841983 -276.691319 
L 229.477315 -275.897366 
L 230.112646 -275.005588 
L 230.747978 -274.010194 
L 231.38331 -272.919597 
L 232.018642 -271.739877 
L 232.653974 -270.429488 
L 233.289305 -268.985638 
L 233.924637 -267.453322 
L 234.559969 -265.743203 
L 235.195301 -263.91444 
L 235.830633 -261.991016 
L 236.465964 -259.89913 
L 237.101296 -257.732197 
L 237.736628 -255.48302 
L 238.37196 -253.174007 
L 239.007292 -250.817736 
L 239.642623 -248.38149 
L 240.277955 -245.913991 
L 240.913287 -243.446766 
L 241.548619 -240.993064 
L 242.18395 -238.644233 
L 242.819282 -236.331541 
L 243.454614 -234.097233 
L 244.089946 -231.950239 
L 244.725278 -229.938836 
L 245.360609 -228.041698 
L 245.995941 -226.301584 
L 246.631273 -224.679857 
L 247.266605 -223.21125 
L 247.901937 -221.851086 
L 248.537268 -220.588138 
L 249.1726 -219.419085 
L 249.807932 -218.330955 
L 250.443264 -217.281749 
L 251.078596 -216.230593 
L 251.713927 -215.163469 
L 252.349259 -214.096839 
L 252.984591 -212.950966 
L 253.619923 -211.723737 
L 254.255255 -210.398483 
L 254.890586 -208.960563 
L 255.525918 -207.380017 
L 256.16125 -205.700211 
L 256.796582 -203.888758 
L 257.431913 -201.980737 
L 258.067245 -199.98732 
L 258.702577 -197.924369 
L 259.337909 -195.784411 
L 259.973241 -193.615845 
L 260.608572 -191.448909 
L 261.243904 -189.256771 
L 261.879236 -187.094055 
L 262.514568 -184.969909 
L 263.1499 -182.900726 
L 263.785231 -180.915282 
L 264.420563 -178.975325 
L 265.055895 -177.097275 
L 265.691227 -175.26539 
L 266.326559 -173.470896 
L 266.96189 -171.715073 
L 267.597222 -169.978883 
L 268.232554 -168.283188 
L 268.867886 -166.576769 
L 269.503217 -164.842911 
L 270.138549 -163.076194 
L 270.773881 -161.279972 
L 271.409213 -159.428981 
L 272.044545 -157.547923 
L 272.679876 -155.626471 
L 273.315208 -153.685614 
L 273.95054 -151.716541 
L 274.585872 -149.726307 
L 275.221204 -147.727309 
L 275.856535 -145.74373 
L 276.491867 -143.770268 
L 277.127199 -141.828624 
L 277.762531 -139.908946 
L 278.397863 -138.059938 
L 279.033194 -136.276384 
L 279.668526 -134.52605 
L 280.303858 -132.836271 
L 280.93919 -131.167519 
L 281.574522 -129.561106 
L 282.209853 -127.994434 
L 282.845185 -126.450694 
L 283.480517 -124.912007 
L 284.115849 -123.36251 
L 284.75118 -121.794269 
L 285.386512 -120.221108 
L 286.021844 -118.613889 
L 286.657176 -116.970171 
L 287.292508 -115.285913 
L 287.927839 -113.564366 
L 288.563171 -111.786958 
L 289.198503 -109.954644 
L 289.833835 -108.087594 
L 290.469167 -106.198163 
L 291.104498 -104.263144 
L 291.73983 -102.310027 
L 292.375162 -100.359598 
L 293.010494 -98.413638 
L 293.645826 -96.482227 
L 294.281157 -94.581777 
L 294.916489 -92.701961 
L 295.551821 -90.881354 
L 296.187153 -89.115764 
L 296.822485 -87.391437 
L 297.457816 -85.731222 
L 298.093148 -84.155361 
L 298.72848 -82.637082 
L 299.363812 -81.187847 
L 299.999143 -79.825899 
L 300.634475 -78.518873 
L 301.269807 -77.272594 
L 301.905139 -76.087827 
L 302.540471 -74.945496 
L 303.175802 -73.86269 
L 303.811134 -72.831625 
L 304.446466 -71.850699 
L 305.081798 -70.899647 
L 305.71713 -69.994523 
L 306.352461 -69.114209 
L 306.987793 -68.2352 
L 307.623125 -67.388523 
L 308.258457 -66.585432 
L 308.893789 -65.795 
L 309.52912 -65.020082 
L 310.164452 -64.260042 
L 310.799784 -63.517659 
L 311.435116 -62.787786 
L 312.070448 -62.072978 
L 312.705779 -61.369508 
L 313.341111 -60.679216 
L 313.976443 -60.008212 
L 314.611775 -59.334925 
L 315.247106 -58.680909 
L 315.882438 -58.038788 
L 316.51777 -57.414219 
L 317.153102 -56.801557 
L 317.788434 -56.202855 
L 318.423765 -55.62073 
L 319.059097 -55.043385 
L 319.694429 -54.478607 
L 320.329761 -53.926507 
L 320.965093 -53.385355 
L 321.600424 -52.852946 
L 322.235756 -52.330401 
L 322.871088 -51.817793 
L 323.50642 -51.312714 
L 324.141752 -50.815771 
L 324.777083 -50.318516 
L 325.412415 -49.83262 
L 326.047747 -49.352481 
L 326.683079 -48.876273 
L 327.318411 -48.418379 
L 327.953742 -47.964374 
L 328.589074 -47.520421 
L 329.224406 -47.088081 
L 329.859738 -46.668979 
L 330.495069 -46.267019 
L 331.130401 -45.878458 
L 331.765733 -45.505405 
L 332.401065 -45.157542 
L 333.036397 -44.823399 
L 333.671728 -44.514449 
L 334.30706 -44.221135 
L 334.942392 -43.950652 
L 335.577724 -43.701096 
L 336.213056 -43.462868 
L 336.848387 -43.236189 
L 337.483719 -43.029467 
L 338.119051 -42.83243 
L 338.754383 -42.648635 
L 339.389715 -42.477232 
L 340.025046 -42.311673 
L 340.660378 -42.1521 
L 341.29571 -41.99847 
L 341.931042 -41.848802 
L 342.566374 -41.698338 
L 343.201705 -41.556929 
L 343.837037 -41.420168 
L 344.472369 -41.284728 
L 345.107701 -41.156864 
L 345.743032 -41.039511 
L 346.378364 -40.927818 
L 347.013696 -40.823809 
L 347.649028 -40.727092 
L 348.28436 -40.639742 
L 348.919691 -40.565532 
L 349.555023 -40.496722 
L 350.190355 -40.439034 
L 350.825687 -40.392923 
L 351.461019 -40.354957 
L 352.09635 -40.323456 
L 352.731682 -40.299148 
L 353.367014 -40.282187 
L 354.002346 -40.270426 
L 354.637678 -40.262815 
L 355.273009 -40.262601 
L 355.908341 -40.259803 
L 356.543673 -40.257292 
L 357.179005 -40.257956 
L 357.814337 -40.255732 
L 358.449668 -40.2574 
L 358.449668 -39.345375 
L 358.449668 -39.345375 
L 357.814337 -39.345375 
L 357.179005 -39.345375 
L 356.543673 -39.345375 
L 355.908341 -39.345375 
L 355.273009 -39.345375 
L 354.637678 -39.345375 
L 354.002346 -39.345375 
L 353.367014 -39.345375 
L 352.731682 -39.345375 
L 352.09635 -39.345375 
L 351.461019 -39.345375 
L 350.825687 -39.345375 
L 350.190355 -39.345375 
L 349.555023 -39.345375 
L 348.919691 -39.345375 
L 348.28436 -39.345375 
L 347.649028 -39.345375 
L 347.013696 -39.345375 
L 346.378364 -39.345375 
L 345.743032 -39.345375 
L 345.107701 -39.345375 
L 344.472369 -39.345375 
L 343.837037 -39.345375 
L 343.201705 -39.345375 
L 342.566374 -39.345375 
L 341.931042 -39.345375 
L 341.29571 -39.345375 
L 340.660378 -39.345375 
L 340.025046 -39.345375 
L 339.389715 -39.345375 
L 338.754383 -39.345375 
L 338.119051 -39.345375 
L 337.483719 -39.345375 
L 336.848387 -39.345375 
L 336.213056 -39.345375 
L 335.577724 -39.345375 
L 334.942392 -39.345375 
L 334.30706 -39.345375 
L 333.671728 -39.345375 
L 333.036397 -39.345375 
L 332.401065 -39.345375 
L 331.765733 -39.345375 
L 331.130401 -39.345375 
L 330.495069 -39.345375 
L 329.859738 -39.345375 
L 329.224406 -39.345375 
L 328.589074 -39.345375 
L 327.953742 -39.345375 
L 327.318411 -39.345375 
L 326.683079 -39.345375 
L 326.047747 -39.345375 
L 325.412415 -39.345375 
L 324.777083 -39.345375 
L 324.141752 -39.345375 
L 323.50642 -39.345375 
L 322.871088 -39.345375 
L 322.235756 -39.345375 
L 321.600424 -39.345375 
L 320.965093 -39.345375 
L 320.329761 -39.345375 
L 319.694429 -39.345375 
L 319.059097 -39.345375 
L 318.423765 -39.345375 
L 317.788434 -39.345375 
L 317.153102 -39.345375 
L 316.51777 -39.345375 
L 315.882438 -39.345375 
L 315.247106 -39.345375 
L 314.611775 -39.345375 
L 313.976443 -39.345375 
L 313.341111 -39.345375 
L 312.705779 -39.345375 
L 312.070448 -39.345375 
L 311.435116 -39.345375 
L 310.799784 -39.345375 
L 310.164452 -39.345375 
L 309.52912 -39.345375 
L 308.893789 -39.345375 
L 308.258457 -39.345375 
L 307.623125 -39.345375 
L 306.987793 -39.345375 
L 306.352461 -39.345375 
L 305.71713 -39.345375 
L 305.081798 -39.345375 
L 304.446466 -39.345375 
L 303.811134 -39.345375 
L 303.175802 -39.345375 
L 302.540471 -39.345375 
L 301.905139 -39.345375 
L 301.269807 -39.345375 
L 300.634475 -39.345375 
L 299.999143 -39.345375 
L 299.363812 -39.345375 
L 298.72848 -39.345375 
L 298.093148 -39.345375 
L 297.457816 -39.345375 
L 296.822485 -39.345375 
L 296.187153 -39.345375 
L 295.551821 -39.345375 
L 294.916489 -39.345375 
L 294.281157 -39.345375 
L 293.645826 -39.345375 
L 293.010494 -39.345375 
L 292.375162 -39.345375 
L 291.73983 -39.345375 
L 291.104498 -39.345375 
L 290.469167 -39.345375 
L 289.833835 -39.345375 
L 289.198503 -39.345375 
L 288.563171 -39.345375 
L 287.927839 -39.345375 
L 287.292508 -39.345375 
L 286.657176 -39.345375 
L 286.021844 -39.345375 
L 285.386512 -39.345375 
L 284.75118 -39.345375 
L 284.115849 -39.345375 
L 283.480517 -39.345375 
L 282.845185 -39.345375 
L 282.209853 -39.345375 
L 281.574522 -39.345375 
L 280.93919 -39.345375 
L 280.303858 -39.345375 
L 279.668526 -39.345375 
L 279.033194 -39.345375 
L 278.397863 -39.345375 
L 277.762531 -39.345375 
L 277.127199 -39.345375 
L 276.491867 -39.345375 
L 275.856535 -39.345375 
L 275.221204 -39.345375 
L 274.585872 -39.345375 
L 273.95054 -39.345375 
L 273.315208 -39.345375 
L 272.679876 -39.345375 
L 272.044545 -39.345375 
L 271.409213 -39.345375 
L 270.773881 -39.345375 
L 270.138549 -39.345375 
L 269.503217 -39.345375 
L 268.867886 -39.345375 
L 268.232554 -39.345375 
L 267.597222 -39.345375 
L 266.96189 -39.345375 
L 266.326559 -39.345375 
L 265.691227 -39.345375 
L 265.055895 -39.345375 
L 264.420563 -39.345375 
L 263.785231 -39.345375 
L 263.1499 -39.345375 
L 262.514568 -39.345375 
L 261.879236 -39.345375 
L 261.243904 -39.345375 
L 260.608572 -39.345375 
L 259.973241 -39.345375 
L 259.337909 -39.345375 
L 258.702577 -39.345375 
L 258.067245 -39.345375 
L 257.431913 -39.345375 
L 256.796582 -39.345375 
L 256.16125 -39.345375 
L 255.525918 -39.345375 
L 254.890586 -39.345375 
L 254.255255 -39.345375 
L 253.619923 -39.345375 
L 252.984591 -39.345375 
L 252.349259 -39.345375 
L 251.713927 -39.345375 
L 251.078596 -39.345375 
L 250.443264 -39.345375 
L 249.807932 -39.345375 
L 249.1726 -39.345375 
L 248.537268 -39.345375 
L 247.901937 -39.345375 
L 247.266605 -39.345375 
L 246.631273 -39.345375 
L 245.995941 -39.345375 
L 245.360609 -39.345375 
L 244.725278 -39.345375 
L 244.089946 -39.345375 
L 243.454614 -39.345375 
L 242.819282 -39.345375 
L 242.18395 -39.345375 
L 241.548619 -39.345375 
L 240.913287 -39.345375 
L 240.277955 -39.345375 
L 239.642623 -39.345375 
L 239.007292 -39.345375 
L 238.37196 -39.345375 
L 237.736628 -39.345375 
L 237.101296 -39.345375 
L 236.465964 -39.345375 
L 235.830633 -39.345375 
L 235.195301 -39.345375 
L 234.559969 -39.345375 
L 233.924637 -39.345375 
L 233.289305 -39.345375 
L 232.653974 -39.345375 
L 232.018642 -39.345375 
L 231.38331 -39.345375 
L 230.747978 -39.345375 
L 230.112646 -39.345375 
L 229.477315 -39.345375 
L 228.841983 -39.345375 
L 228.206651 -39.345375 
L 227.571319 -39.345375 
L 226.935987 -39.345375 
L 226.300656 -39.345375 
L 225.665324 -39.345375 
L 225.029992 -39.345375 
L 224.39466 -39.345375 
L 223.759329 -39.345375 
L 223.123997 -39.345375 
L 222.488665 -39.345375 
L 221.853333 -39.345375 
L 221.218001 -39.345375 
L 220.58267 -39.345375 
L 219.947338 -39.345375 
L 219.312006 -39.345375 
L 218.676674 -39.345375 
L 218.041342 -39.345375 
L 217.406011 -39.345375 
L 216.770679 -39.345375 
L 216.135347 -39.345375 
L 215.500015 -39.345375 
L 214.864683 -39.345375 
L 214.229352 -39.345375 
L 213.59402 -39.345375 
L 212.958688 -39.345375 
L 212.323356 -39.345375 
L 211.688024 -39.345375 
L 211.052693 -39.345375 
L 210.417361 -39.345375 
L 209.782029 -39.345375 
L 209.146697 -39.345375 
L 208.511366 -39.345375 
L 207.876034 -39.345375 
L 207.240702 -39.345375 
L 206.60537 -39.345375 
L 205.970038 -39.345375 
L 205.334707 -39.345375 
L 204.699375 -39.345375 
L 204.064043 -39.345375 
L 203.428711 -39.345375 
L 202.793379 -39.345375 
L 202.158048 -39.345375 
L 201.522716 -39.345375 
L 200.887384 -39.345375 
L 200.252052 -39.345375 
L 199.61672 -39.345375 
L 198.981389 -39.345375 
L 198.346057 -39.345375 
L 197.710725 -39.345375 
L 197.075393 -39.345375 
L 196.440061 -39.345375 
L 195.80473 -39.345375 
L 195.169398 -39.345375 
L 194.534066 -39.345375 
L 193.898734 -39.345375 
L 193.263403 -39.345375 
L 192.628071 -39.345375 
L 191.992739 -39.345375 
L 191.357407 -39.345375 
L 190.722075 -39.345375 
L 190.086744 -39.345375 
L 189.451412 -39.345375 
L 188.81608 -39.345375 
L 188.180748 -39.345375 
L 187.545416 -39.345375 
L 186.910085 -39.345375 
L 186.274753 -39.345375 
L 185.639421 -39.345375 
L 185.004089 -39.345375 
L 184.368757 -39.345375 
L 183.733426 -39.345375 
L 183.098094 -39.345375 
L 182.462762 -39.345375 
L 181.82743 -39.345375 
L 181.192098 -39.345375 
L 180.556767 -39.345375 
L 179.921435 -39.345375 
L 179.286103 -39.345375 
L 178.650771 -39.345375 
L 178.01544 -39.345375 
L 177.380108 -39.345375 
L 176.744776 -39.345375 
L 176.109444 -39.345375 
L 175.474112 -39.345375 
L 174.838781 -39.345375 
L 174.203449 -39.345375 
L 173.568117 -39.345375 
L 172.932785 -39.345375 
L 172.297453 -39.345375 
L 171.662122 -39.345375 
L 171.02679 -39.345375 
L 170.391458 -39.345375 
L 169.756126 -39.345375 
L 169.120794 -39.345375 
L 168.485463 -39.345375 
L 167.850131 -39.345375 
L 167.214799 -39.345375 
L 166.579467 -39.345375 
L 165.944135 -39.345375 
L 165.308804 -39.345375 
L 164.673472 -39.345375 
L 164.03814 -39.345375 
L 163.402808 -39.345375 
L 162.767477 -39.345375 
L 162.132145 -39.345375 
L 161.496813 -39.345375 
L 160.861481 -39.345375 
L 160.226149 -39.345375 
L 159.590818 -39.345375 
L 158.955486 -39.345375 
L 158.320154 -39.345375 
L 157.684822 -39.345375 
L 157.04949 -39.345375 
L 156.414159 -39.345375 
L 155.778827 -39.345375 
L 155.143495 -39.345375 
L 154.508163 -39.345375 
L 153.872831 -39.345375 
L 153.2375 -39.345375 
L 152.602168 -39.345375 
L 151.966836 -39.345375 
L 151.331504 -39.345375 
L 150.696172 -39.345375 
L 150.060841 -39.345375 
L 149.425509 -39.345375 
L 148.790177 -39.345375 
L 148.154845 -39.345375 
L 147.519514 -39.345375 
L 146.884182 -39.345375 
L 146.24885 -39.345375 
L 145.613518 -39.345375 
L 144.978186 -39.345375 
L 144.342855 -39.345375 
L 143.707523 -39.345375 
L 143.072191 -39.345375 
L 142.436859 -39.345375 
L 141.801527 -39.345375 
L 141.166196 -39.345375 
L 140.530864 -39.345375 
L 139.895532 -39.345375 
L 139.2602 -39.345375 
L 138.624868 -39.345375 
L 137.989537 -39.345375 
L 137.354205 -39.345375 
L 136.718873 -39.345375 
L 136.083541 -39.345375 
L 135.448209 -39.345375 
L 134.812878 -39.345375 
L 134.177546 -39.345375 
L 133.542214 -39.345375 
L 132.906882 -39.345375 
L 132.271551 -39.345375 
L 131.636219 -39.345375 
L 131.000887 -39.345375 
L 130.365555 -39.345375 
L 129.730223 -39.345375 
L 129.094892 -39.345375 
L 128.45956 -39.345375 
L 127.824228 -39.345375 
L 127.188896 -39.345375 
L 126.553564 -39.345375 
L 125.918233 -39.345375 
L 125.282901 -39.345375 
L 124.647569 -39.345375 
L 124.012237 -39.345375 
L 123.376905 -39.345375 
L 122.741574 -39.345375 
L 122.106242 -39.345375 
L 121.47091 -39.345375 
L 120.835578 -39.345375 
L 120.200246 -39.345375 
L 119.564915 -39.345375 
L 118.929583 -39.345375 
L 118.294251 -39.345375 
L 117.658919 -39.345375 
L 117.023588 -39.345375 
L 116.388256 -39.345375 
L 115.752924 -39.345375 
L 115.117592 -39.345375 
L 114.48226 -39.345375 
L 113.846929 -39.345375 
L 113.211597 -39.345375 
L 112.576265 -39.345375 
L 111.940933 -39.345375 
L 111.305601 -39.345375 
L 110.67027 -39.345375 
L 110.034938 -39.345375 
L 109.399606 -39.345375 
L 108.764274 -39.345375 
L 108.128942 -39.345375 
L 107.493611 -39.345375 
L 106.858279 -39.345375 
L 106.222947 -39.345375 
L 105.587615 -39.345375 
L 104.952283 -39.345375 
L 104.316952 -39.345375 
L 103.68162 -39.345375 
L 103.046288 -39.345375 
L 102.410956 -39.345375 
L 101.775625 -39.345375 
L 101.140293 -39.345375 
L 100.504961 -39.345375 
L 99.869629 -39.345375 
L 99.234297 -39.345375 
L 98.598966 -39.345375 
L 97.963634 -39.345375 
L 97.328302 -39.345375 
L 96.69297 -39.345375 
L 96.057638 -39.345375 
L 95.422307 -39.345375 
L 94.786975 -39.345375 
L 94.151643 -39.345375 
L 93.516311 -39.345375 
L 92.880979 -39.345375 
L 92.245648 -39.345375 
L 91.610316 -39.345375 
L 90.974984 -39.345375 
L 90.339652 -39.345375 
L 89.704321 -39.345375 
L 89.068989 -39.345375 
L 88.433657 -39.345375 
L 87.798325 -39.345375 
L 87.162993 -39.345375 
L 86.527662 -39.345375 
L 85.89233 -39.345375 
L 85.256998 -39.345375 
L 84.621666 -39.345375 
L 83.986334 -39.345375 
L 83.351003 -39.345375 
L 82.715671 -39.345375 
L 82.080339 -39.345375 
L 81.445007 -39.345375 
L 80.809675 -39.345375 
L 80.174344 -39.345375 
L 79.539012 -39.345375 
L 78.90368 -39.345375 
L 78.268348 -39.345375 
L 77.633016 -39.345375 
L 76.997685 -39.345375 
L 76.362353 -39.345375 
L 75.727021 -39.345375 
L 75.091689 -39.345375 
L 74.456358 -39.345375 
L 73.821026 -39.345375 
L 73.185694 -39.345375 
L 72.550362 -39.345375 
L 71.91503 -39.345375 
L 71.279699 -39.345375 
L 70.644367 -39.345375 
L 70.009035 -39.345375 
L 69.373703 -39.345375 
L 68.738371 -39.345375 
L 68.10304 -39.345375 
L 67.467708 -39.345375 
L 66.832376 -39.345375 
L 66.197044 -39.345375 
L 65.561712 -39.345375 
L 64.926381 -39.345375 
L 64.291049 -39.345375 
L 63.655717 -39.345375 
L 63.020385 -39.345375 
L 62.385053 -39.345375 
L 61.749722 -39.345375 
L 61.11439 -39.345375 
L 60.479058 -39.345375 
L 59.843726 -39.345375 
L 59.208395 -39.345375 
L 58.573063 -39.345375 
L 57.937731 -39.345375 
L 57.302399 -39.345375 
L 56.667067 -39.345375 
L 56.031736 -39.345375 
L 55.396404 -39.345375 
L 54.761072 -39.345375 
L 54.12574 -39.345375 
L 53.490408 -39.345375 
L 52.855077 -39.345375 
L 52.219745 -39.345375 
L 51.584413 -39.345375 
L 50.949081 -39.345375 
L 50.313749 -39.345375 
L 49.678418 -39.345375 
L 49.043086 -39.345375 
L 48.407754 -39.345375 
L 47.772422 -39.345375 
L 47.13709 -39.345375 
L 46.501759 -39.345375 
L 45.866427 -39.345375 
L 45.231095 -39.345375 
L 44.595763 -39.345375 
L 43.960432 -39.345375 
L 43.3251 -39.345375 
L 42.689768 -39.345375 
L 42.054436 -39.345375 
L 41.419104 -39.345375 
L 40.783773 -39.345375 
L 40.148441 -39.345375 
L 39.513109 -39.345375 
L 38.877777 -39.345375 
L 38.242445 -39.345375 
L 37.607114 -39.345375 
L 36.971782 -39.345375 
L 36.33645 -39.345375 
L 35.701118 -39.345375 
L 35.065786 -39.345375 
L 34.430455 -39.345375 
L 33.795123 -39.345375 
z
" style="stroke: #1f77b4; stroke-opacity: 0"/>
    </defs>
    <g clip-path="url(#pa05c75ec50)">
     <use xlink:href="#m3594d261c7" x="0" y="318.718875" style="fill: #1f77b4; fill-opacity: 0; stroke: #1f77b4; stroke-opacity: 0"/>
    </g>
   </g>
   <g id="matplotlib.axis_1">
    <g id="xtick_1">
     <g id="line2d_1">
      <defs>
       <path id="m55abce0038" d="M 0 0 
L 0 3 
" style="stroke: #808080"/>
      </defs>
      <g>
       <use xlink:href="#m55abce0038" x="22.785937" y="291.4695" style="fill: #808080; stroke: #808080"/>
      </g>
     </g>
     <g id="text_1">
      <!-- 0.60 -->
      <g transform="translate(7.2 308.607312) scale(0.14 -0.14)">
       <defs>
        <path id="DejaVuSans-30" d="M 2034 4250 
Q 1547 4250 1301 3770 
Q 1056 3291 1056 2328 
Q 1056 1369 1301 889 
Q 1547 409 2034 409 
Q 2525 409 2770 889 
Q 3016 1369 3016 2328 
Q 3016 3291 2770 3770 
Q 2525 4250 2034 4250 
z
M 2034 4750 
Q 2819 4750 3233 4129 
Q 3647 3509 3647 2328 
Q 3647 1150 3233 529 
Q 2819 -91 2034 -91 
Q 1250 -91 836 529 
Q 422 1150 422 2328 
Q 422 3509 836 4129 
Q 1250 4750 2034 4750 
z
" transform="scale(0.015625)"/>
        <path id="DejaVuSans-2e" d="M 684 794 
L 1344 794 
L 1344 0 
L 684 0 
L 684 794 
z
" transform="scale(0.015625)"/>
        <path id="DejaVuSans-36" d="M 2113 2584 
Q 1688 2584 1439 2293 
Q 1191 2003 1191 1497 
Q 1191 994 1439 701 
Q 1688 409 2113 409 
Q 2538 409 2786 701 
Q 3034 994 3034 1497 
Q 3034 2003 2786 2293 
Q 2538 2584 2113 2584 
z
M 3366 4563 
L 3366 3988 
Q 3128 4100 2886 4159 
Q 2644 4219 2406 4219 
Q 1781 4219 1451 3797 
Q 1122 3375 1075 2522 
Q 1259 2794 1537 2939 
Q 1816 3084 2150 3084 
Q 2853 3084 3261 2657 
Q 3669 2231 3669 1497 
Q 3669 778 3244 343 
Q 2819 -91 2113 -91 
Q 1303 -91 875 529 
Q 447 1150 447 2328 
Q 447 3434 972 4092 
Q 1497 4750 2381 4750 
Q 2619 4750 2861 4703 
Q 3103 4656 3366 4563 
z
" transform="scale(0.015625)"/>
       </defs>
       <use xlink:href="#DejaVuSans-30"/>
       <use xlink:href="#DejaVuSans-2e" x="63.623047"/>
       <use xlink:href="#DejaVuSans-36" x="95.410156"/>
       <use xlink:href="#DejaVuSans-30" x="159.033203"/>
      </g>
     </g>
    </g>
    <g id="xtick_2">
     <g id="line2d_2">
      <g>
       <use xlink:href="#m55abce0038" x="86.251539" y="291.4695" style="fill: #808080; stroke: #808080"/>
      </g>
     </g>
     <g id="text_2">
      <!-- 0.65 -->
      <g transform="translate(70.665602 308.607312) scale(0.14 -0.14)">
       <defs>
        <path id="DejaVuSans-35" d="M 691 4666 
L 3169 4666 
L 3169 4134 
L 1269 4134 
L 1269 2991 
Q 1406 3038 1543 3061 
Q 1681 3084 1819 3084 
Q 2600 3084 3056 2656 
Q 3513 2228 3513 1497 
Q 3513 744 3044 326 
Q 2575 -91 1722 -91 
Q 1428 -91 1123 -41 
Q 819 9 494 109 
L 494 744 
Q 775 591 1075 516 
Q 1375 441 1709 441 
Q 2250 441 2565 725 
Q 2881 1009 2881 1497 
Q 2881 1984 2565 2268 
Q 2250 2553 1709 2553 
Q 1456 2553 1204 2497 
Q 953 2441 691 2322 
L 691 4666 
z
" transform="scale(0.015625)"/>
       </defs>
       <use xlink:href="#DejaVuSans-30"/>
       <use xlink:href="#DejaVuSans-2e" x="63.623047"/>
       <use xlink:href="#DejaVuSans-36" x="95.410156"/>
       <use xlink:href="#DejaVuSans-35" x="159.033203"/>
      </g>
     </g>
    </g>
    <g id="xtick_3">
     <g id="line2d_3">
      <g>
       <use xlink:href="#m55abce0038" x="149.717141" y="291.4695" style="fill: #808080; stroke: #808080"/>
      </g>
     </g>
     <g id="text_3">
      <!-- 0.70 -->
      <g transform="translate(134.131204 308.607312) scale(0.14 -0.14)">
       <defs>
        <path id="DejaVuSans-37" d="M 525 4666 
L 3525 4666 
L 3525 4397 
L 1831 0 
L 1172 0 
L 2766 4134 
L 525 4134 
L 525 4666 
z
" transform="scale(0.015625)"/>
       </defs>
       <use xlink:href="#DejaVuSans-30"/>
       <use xlink:href="#DejaVuSans-2e" x="63.623047"/>
       <use xlink:href="#DejaVuSans-37" x="95.410156"/>
       <use xlink:href="#DejaVuSans-30" x="159.033203"/>
      </g>
     </g>
    </g>
    <g id="xtick_4">
     <g id="line2d_4">
      <g>
       <use xlink:href="#m55abce0038" x="213.182743" y="291.4695" style="fill: #808080; stroke: #808080"/>
      </g>
     </g>
     <g id="text_4">
      <!-- 0.75 -->
      <g transform="translate(197.596806 308.607312) scale(0.14 -0.14)">
       <use xlink:href="#DejaVuSans-30"/>
       <use xlink:href="#DejaVuSans-2e" x="63.623047"/>
       <use xlink:href="#DejaVuSans-37" x="95.410156"/>
       <use xlink:href="#DejaVuSans-35" x="159.033203"/>
      </g>
     </g>
    </g>
    <g id="xtick_5">
     <g id="line2d_5">
      <g>
       <use xlink:href="#m55abce0038" x="276.648345" y="291.4695" style="fill: #808080; stroke: #808080"/>
      </g>
     </g>
     <g id="text_5">
      <!-- 0.80 -->
      <g transform="translate(261.062408 308.607312) scale(0.14 -0.14)">
       <defs>
        <path id="DejaVuSans-38" d="M 2034 2216 
Q 1584 2216 1326 1975 
Q 1069 1734 1069 1313 
Q 1069 891 1326 650 
Q 1584 409 2034 409 
Q 2484 409 2743 651 
Q 3003 894 3003 1313 
Q 3003 1734 2745 1975 
Q 2488 2216 2034 2216 
z
M 1403 2484 
Q 997 2584 770 2862 
Q 544 3141 544 3541 
Q 544 4100 942 4425 
Q 1341 4750 2034 4750 
Q 2731 4750 3128 4425 
Q 3525 4100 3525 3541 
Q 3525 3141 3298 2862 
Q 3072 2584 2669 2484 
Q 3125 2378 3379 2068 
Q 3634 1759 3634 1313 
Q 3634 634 3220 271 
Q 2806 -91 2034 -91 
Q 1263 -91 848 271 
Q 434 634 434 1313 
Q 434 1759 690 2068 
Q 947 2378 1403 2484 
z
M 1172 3481 
Q 1172 3119 1398 2916 
Q 1625 2713 2034 2713 
Q 2441 2713 2670 2916 
Q 2900 3119 2900 3481 
Q 2900 3844 2670 4047 
Q 2441 4250 2034 4250 
Q 1625 4250 1398 4047 
Q 1172 3844 1172 3481 
z
" transform="scale(0.015625)"/>
       </defs>
       <use xlink:href="#DejaVuSans-30"/>
       <use xlink:href="#DejaVuSans-2e" x="63.623047"/>
       <use xlink:href="#DejaVuSans-38" x="95.410156"/>
       <use xlink:href="#DejaVuSans-30" x="159.033203"/>
      </g>
     </g>
    </g>
    <g id="xtick_6">
     <g id="line2d_6">
      <g>
       <use xlink:href="#m55abce0038" x="340.113947" y="291.4695" style="fill: #808080; stroke: #808080"/>
      </g>
     </g>
     <g id="text_6">
      <!-- 0.85 -->
      <g transform="translate(324.52801 308.607312) scale(0.14 -0.14)">
       <use xlink:href="#DejaVuSans-30"/>
       <use xlink:href="#DejaVuSans-2e" x="63.623047"/>
       <use xlink:href="#DejaVuSans-38" x="95.410156"/>
       <use xlink:href="#DejaVuSans-35" x="159.033203"/>
      </g>
     </g>
    </g>
   </g>
   <g id="matplotlib.axis_2"/>
   <g id="line2d_7">
    <path d="M 33.795123 279.037997 
L 41.419104 279.190389 
L 46.501759 279.178588 
L 51.584413 278.94319 
L 61.11439 278.225088 
L 66.832376 277.575123 
L 73.821026 276.574981 
L 79.539012 275.570597 
L 84.621666 274.481534 
L 87.798325 273.626531 
L 90.339652 272.7676 
L 92.880979 271.679585 
L 95.422307 270.320837 
L 98.598966 268.324168 
L 102.410956 265.897507 
L 104.952283 264.569222 
L 106.858279 263.799066 
L 110.034938 262.833131 
L 112.576265 262.048674 
L 114.48226 261.229308 
L 116.388256 260.075292 
L 117.658919 259.102094 
L 119.564915 257.295953 
L 121.47091 255.123796 
L 124.012237 251.73301 
L 126.553564 247.92203 
L 129.730223 242.644162 
L 132.906882 236.848206 
L 136.083541 230.600777 
L 143.072191 216.576484 
L 152.602168 198.298192 
L 155.143495 192.59577 
L 157.684822 186.228602 
L 160.226149 179.135889 
L 162.767477 171.416111 
L 168.485463 153.00834 
L 174.203449 135.038282 
L 178.01544 123.77483 
L 180.556767 117.113013 
L 182.462762 112.887681 
L 184.368757 109.31127 
L 186.274753 106.329069 
L 188.81608 102.918457 
L 191.357407 99.416209 
L 193.898734 95.396845 
L 195.80473 91.893643 
L 197.710725 87.934679 
L 200.252052 81.94811 
L 202.793379 75.152747 
L 205.334707 67.670077 
L 211.052693 50.163726 
L 212.958688 45.360613 
L 214.229352 42.782074 
L 215.500015 40.748904 
L 216.770679 39.212659 
L 218.041342 38.201734 
L 219.312006 37.65261 
L 220.58267 37.4535 
L 221.853333 37.558301 
L 223.123997 37.920418 
L 224.39466 38.452767 
L 225.665324 39.186957 
L 226.935987 40.124116 
L 228.206651 41.32045 
L 229.477315 42.821509 
L 230.747978 44.708681 
L 232.018642 46.978998 
L 233.289305 49.733237 
L 234.559969 52.975672 
L 235.830633 56.727859 
L 237.736628 63.235855 
L 240.277955 72.804884 
L 242.819282 82.387334 
L 244.725278 88.780039 
L 245.995941 92.417291 
L 247.266605 95.507625 
L 248.537268 98.130737 
L 250.443264 101.437126 
L 252.984591 105.767909 
L 254.255255 108.320392 
L 255.525918 111.338858 
L 256.796582 114.830117 
L 258.702577 120.794506 
L 264.420563 139.74355 
L 266.96189 147.003802 
L 272.044545 161.170952 
L 280.303858 185.882604 
L 282.845185 192.268181 
L 286.657176 201.748704 
L 289.198503 208.764231 
L 293.010494 220.305237 
L 295.551821 227.837521 
L 297.457816 232.987653 
L 299.363812 237.531028 
L 301.269807 241.446281 
L 303.175802 244.856185 
L 305.081798 247.819228 
L 307.623125 251.330352 
L 310.799784 255.201216 
L 313.976443 258.710663 
L 317.153102 261.917318 
L 320.329761 264.792368 
L 324.141752 267.903104 
L 327.953742 270.754501 
L 331.130401 272.840417 
L 333.671728 274.204426 
L 336.213056 275.256007 
L 338.754383 276.07024 
L 343.201705 277.161946 
L 347.013696 277.895066 
L 350.190355 278.279841 
L 354.002346 278.448449 
L 358.449668 278.461475 
L 358.449668 278.461475 
" clip-path="url(#pa05c75ec50)" style="fill: none; stroke: #1f77b4; stroke-width: 1.5; stroke-linecap: square"/>
   </g>
   <g id="line2d_8">
    <path d="M 130.038538 274.29318 
L 296.569083 274.29318 
" clip-path="url(#pa05c75ec50)" style="fill: none; stroke: #000000; stroke-width: 3"/>
   </g>
   <g id="patch_3">
    <path d="M 17.562396 291.4695 
L 374.682396 291.4695 
" style="fill: none; stroke: #808080; stroke-width: 0.8; stroke-linejoin: miter; stroke-linecap: square"/>
   </g>
   <g id="text_7">
    <!-- 0.68  -->
    <g transform="translate(91.872913 261.59238) scale(0.15 -0.15)">
     <defs>
      <path id="DejaVuSans-20" transform="scale(0.015625)"/>
     </defs>
     <use xlink:href="#DejaVuSans-30"/>
     <use xlink:href="#DejaVuSans-2e" x="63.623047"/>
     <use xlink:href="#DejaVuSans-36" x="95.410156"/>
     <use xlink:href="#DejaVuSans-38" x="159.033203"/>
     <use xlink:href="#DejaVuSans-20" x="222.65625"/>
    </g>
   </g>
   <g id="text_8">
    <!--  0.82 -->
    <g transform="translate(296.569083 261.59238) scale(0.15 -0.15)">
     <defs>
      <path id="DejaVuSans-32" d="M 1228 531 
L 3431 531 
L 3431 0 
L 469 0 
L 469 531 
Q 828 903 1448 1529 
Q 2069 2156 2228 2338 
Q 2531 2678 2651 2914 
Q 2772 3150 2772 3378 
Q 2772 3750 2511 3984 
Q 2250 4219 1831 4219 
Q 1534 4219 1204 4116 
Q 875 4013 500 3803 
L 500 4441 
Q 881 4594 1212 4672 
Q 1544 4750 1819 4750 
Q 2544 4750 2975 4387 
Q 3406 4025 3406 3419 
Q 3406 3131 3298 2873 
Q 3191 2616 2906 2266 
Q 2828 2175 2409 1742 
Q 1991 1309 1228 531 
z
" transform="scale(0.015625)"/>
     </defs>
     <use xlink:href="#DejaVuSans-20"/>
     <use xlink:href="#DejaVuSans-30" x="31.787109"/>
     <use xlink:href="#DejaVuSans-2e" x="95.410156"/>
     <use xlink:href="#DejaVuSans-38" x="127.197266"/>
     <use xlink:href="#DejaVuSans-32" x="190.820312"/>
    </g>
   </g>
   <g id="text_9">
    <!-- 94% HDI -->
    <g transform="translate(180.622561 203.1687) scale(0.15 -0.15)">
     <defs>
      <path id="DejaVuSans-39" d="M 703 97 
L 703 672 
Q 941 559 1184 500 
Q 1428 441 1663 441 
Q 2288 441 2617 861 
Q 2947 1281 2994 2138 
Q 2813 1869 2534 1725 
Q 2256 1581 1919 1581 
Q 1219 1581 811 2004 
Q 403 2428 403 3163 
Q 403 3881 828 4315 
Q 1253 4750 1959 4750 
Q 2769 4750 3195 4129 
Q 3622 3509 3622 2328 
Q 3622 1225 3098 567 
Q 2575 -91 1691 -91 
Q 1453 -91 1209 -44 
Q 966 3 703 97 
z
M 1959 2075 
Q 2384 2075 2632 2365 
Q 2881 2656 2881 3163 
Q 2881 3666 2632 3958 
Q 2384 4250 1959 4250 
Q 1534 4250 1286 3958 
Q 1038 3666 1038 3163 
Q 1038 2656 1286 2365 
Q 1534 2075 1959 2075 
z
" transform="scale(0.015625)"/>
      <path id="DejaVuSans-34" d="M 2419 4116 
L 825 1625 
L 2419 1625 
L 2419 4116 
z
M 2253 4666 
L 3047 4666 
L 3047 1625 
L 3713 1625 
L 3713 1100 
L 3047 1100 
L 3047 0 
L 2419 0 
L 2419 1100 
L 313 1100 
L 313 1709 
L 2253 4666 
z
" transform="scale(0.015625)"/>
      <path id="DejaVuSans-25" d="M 4653 2053 
Q 4381 2053 4226 1822 
Q 4072 1591 4072 1178 
Q 4072 772 4226 539 
Q 4381 306 4653 306 
Q 4919 306 5073 539 
Q 5228 772 5228 1178 
Q 5228 1588 5073 1820 
Q 4919 2053 4653 2053 
z
M 4653 2450 
Q 5147 2450 5437 2106 
Q 5728 1763 5728 1178 
Q 5728 594 5436 251 
Q 5144 -91 4653 -91 
Q 4153 -91 3862 251 
Q 3572 594 3572 1178 
Q 3572 1766 3864 2108 
Q 4156 2450 4653 2450 
z
M 1428 4353 
Q 1159 4353 1004 4120 
Q 850 3888 850 3481 
Q 850 3069 1003 2837 
Q 1156 2606 1428 2606 
Q 1700 2606 1854 2837 
Q 2009 3069 2009 3481 
Q 2009 3884 1853 4118 
Q 1697 4353 1428 4353 
z
M 4250 4750 
L 4750 4750 
L 1831 -91 
L 1331 -91 
L 4250 4750 
z
M 1428 4750 
Q 1922 4750 2215 4408 
Q 2509 4066 2509 3481 
Q 2509 2891 2217 2550 
Q 1925 2209 1428 2209 
Q 931 2209 642 2551 
Q 353 2894 353 3481 
Q 353 4063 643 4406 
Q 934 4750 1428 4750 
z
" transform="scale(0.015625)"/>
      <path id="DejaVuSans-48" d="M 628 4666 
L 1259 4666 
L 1259 2753 
L 3553 2753 
L 3553 4666 
L 4184 4666 
L 4184 0 
L 3553 0 
L 3553 2222 
L 1259 2222 
L 1259 0 
L 628 0 
L 628 4666 
z
" transform="scale(0.015625)"/>
      <path id="DejaVuSans-44" d="M 1259 4147 
L 1259 519 
L 2022 519 
Q 2988 519 3436 956 
Q 3884 1394 3884 2338 
Q 3884 3275 3436 3711 
Q 2988 4147 2022 4147 
L 1259 4147 
z
M 628 4666 
L 1925 4666 
Q 3281 4666 3915 4102 
Q 4550 3538 4550 2338 
Q 4550 1131 3912 565 
Q 3275 0 1925 0 
L 628 0 
L 628 4666 
z
" transform="scale(0.015625)"/>
      <path id="DejaVuSans-49" d="M 628 4666 
L 1259 4666 
L 1259 0 
L 628 0 
L 628 4666 
z
" transform="scale(0.015625)"/>
     </defs>
     <use xlink:href="#DejaVuSans-39"/>
     <use xlink:href="#DejaVuSans-34" x="63.623047"/>
     <use xlink:href="#DejaVuSans-25" x="127.246094"/>
     <use xlink:href="#DejaVuSans-20" x="222.265625"/>
     <use xlink:href="#DejaVuSans-48" x="254.052734"/>
     <use xlink:href="#DejaVuSans-44" x="329.248047"/>
     <use xlink:href="#DejaVuSans-49" x="406.25"/>
    </g>
   </g>
   <g id="text_10">
    <!-- mean=0.75 -->
    <g transform="translate(172.623272 76.1607) scale(0.15 -0.15)">
     <defs>
      <path id="DejaVuSans-6d" d="M 3328 2828 
Q 3544 3216 3844 3400 
Q 4144 3584 4550 3584 
Q 5097 3584 5394 3201 
Q 5691 2819 5691 2113 
L 5691 0 
L 5113 0 
L 5113 2094 
Q 5113 2597 4934 2840 
Q 4756 3084 4391 3084 
Q 3944 3084 3684 2787 
Q 3425 2491 3425 1978 
L 3425 0 
L 2847 0 
L 2847 2094 
Q 2847 2600 2669 2842 
Q 2491 3084 2119 3084 
Q 1678 3084 1418 2786 
Q 1159 2488 1159 1978 
L 1159 0 
L 581 0 
L 581 3500 
L 1159 3500 
L 1159 2956 
Q 1356 3278 1631 3431 
Q 1906 3584 2284 3584 
Q 2666 3584 2933 3390 
Q 3200 3197 3328 2828 
z
" transform="scale(0.015625)"/>
      <path id="DejaVuSans-65" d="M 3597 1894 
L 3597 1613 
L 953 1613 
Q 991 1019 1311 708 
Q 1631 397 2203 397 
Q 2534 397 2845 478 
Q 3156 559 3463 722 
L 3463 178 
Q 3153 47 2828 -22 
Q 2503 -91 2169 -91 
Q 1331 -91 842 396 
Q 353 884 353 1716 
Q 353 2575 817 3079 
Q 1281 3584 2069 3584 
Q 2775 3584 3186 3129 
Q 3597 2675 3597 1894 
z
M 3022 2063 
Q 3016 2534 2758 2815 
Q 2500 3097 2075 3097 
Q 1594 3097 1305 2825 
Q 1016 2553 972 2059 
L 3022 2063 
z
" transform="scale(0.015625)"/>
      <path id="DejaVuSans-61" d="M 2194 1759 
Q 1497 1759 1228 1600 
Q 959 1441 959 1056 
Q 959 750 1161 570 
Q 1363 391 1709 391 
Q 2188 391 2477 730 
Q 2766 1069 2766 1631 
L 2766 1759 
L 2194 1759 
z
M 3341 1997 
L 3341 0 
L 2766 0 
L 2766 531 
Q 2569 213 2275 61 
Q 1981 -91 1556 -91 
Q 1019 -91 701 211 
Q 384 513 384 1019 
Q 384 1609 779 1909 
Q 1175 2209 1959 2209 
L 2766 2209 
L 2766 2266 
Q 2766 2663 2505 2880 
Q 2244 3097 1772 3097 
Q 1472 3097 1187 3025 
Q 903 2953 641 2809 
L 641 3341 
Q 956 3463 1253 3523 
Q 1550 3584 1831 3584 
Q 2591 3584 2966 3190 
Q 3341 2797 3341 1997 
z
" transform="scale(0.015625)"/>
      <path id="DejaVuSans-6e" d="M 3513 2113 
L 3513 0 
L 2938 0 
L 2938 2094 
Q 2938 2591 2744 2837 
Q 2550 3084 2163 3084 
Q 1697 3084 1428 2787 
Q 1159 2491 1159 1978 
L 1159 0 
L 581 0 
L 581 3500 
L 1159 3500 
L 1159 2956 
Q 1366 3272 1645 3428 
Q 1925 3584 2291 3584 
Q 2894 3584 3203 3211 
Q 3513 2838 3513 2113 
z
" transform="scale(0.015625)"/>
      <path id="DejaVuSans-3d" d="M 678 2906 
L 4684 2906 
L 4684 2381 
L 678 2381 
L 678 2906 
z
M 678 1631 
L 4684 1631 
L 4684 1100 
L 678 1100 
L 678 1631 
z
" transform="scale(0.015625)"/>
     </defs>
     <use xlink:href="#DejaVuSans-6d"/>
     <use xlink:href="#DejaVuSans-65" x="97.412109"/>
     <use xlink:href="#DejaVuSans-61" x="158.935547"/>
     <use xlink:href="#DejaVuSans-6e" x="220.214844"/>
     <use xlink:href="#DejaVuSans-3d" x="283.59375"/>
     <use xlink:href="#DejaVuSans-30" x="367.382812"/>
     <use xlink:href="#DejaVuSans-2e" x="431.005859"/>
     <use xlink:href="#DejaVuSans-37" x="462.792969"/>
     <use xlink:href="#DejaVuSans-35" x="526.416016"/>
    </g>
   </g>
   <g id="text_11">
    <!-- theta -->
    <g transform="translate(174.954896 19.3575) scale(0.16 -0.16)">
     <defs>
      <path id="DejaVuSans-74" d="M 1172 4494 
L 1172 3500 
L 2356 3500 
L 2356 3053 
L 1172 3053 
L 1172 1153 
Q 1172 725 1289 603 
Q 1406 481 1766 481 
L 2356 481 
L 2356 0 
L 1766 0 
Q 1100 0 847 248 
Q 594 497 594 1153 
L 594 3053 
L 172 3053 
L 172 3500 
L 594 3500 
L 594 4494 
L 1172 4494 
z
" transform="scale(0.015625)"/>
      <path id="DejaVuSans-68" d="M 3513 2113 
L 3513 0 
L 2938 0 
L 2938 2094 
Q 2938 2591 2744 2837 
Q 2550 3084 2163 3084 
Q 1697 3084 1428 2787 
Q 1159 2491 1159 1978 
L 1159 0 
L 581 0 
L 581 4863 
L 1159 4863 
L 1159 2956 
Q 1366 3272 1645 3428 
Q 1925 3584 2291 3584 
Q 2894 3584 3203 3211 
Q 3513 2838 3513 2113 
z
" transform="scale(0.015625)"/>
     </defs>
     <use xlink:href="#DejaVuSans-74"/>
     <use xlink:href="#DejaVuSans-68" x="39.208984"/>
     <use xlink:href="#DejaVuSans-65" x="102.587891"/>
     <use xlink:href="#DejaVuSans-74" x="164.111328"/>
     <use xlink:href="#DejaVuSans-61" x="203.320312"/>
    </g>
   </g>
  </g>
 </g>
 <defs>
  <clipPath id="pa05c75ec50">
   <rect x="17.562396" y="25.3575" width="357.12" height="266.112"/>
  </clipPath>
 </defs>
</svg>
