<?xml version="1.0" encoding="utf-8" standalone="no"?>
<!DOCTYPE svg PUBLIC "-//W3C//DTD SVG 1.1//EN"
  "http://www.w3.org/Graphics/SVG/1.1/DTD/svg11.dtd">
<svg xmlns:xlink="http://www.w3.org/1999/xlink" width="432pt" height="216pt" viewBox="0 0 432 216" xmlns="http://www.w3.org/2000/svg" version="1.1">
 <metadata>
  <rdf:RDF xmlns:dc="http://purl.org/dc/elements/1.1/" xmlns:cc="http://creativecommons.org/ns#" xmlns:rdf="http://www.w3.org/1999/02/22-rdf-syntax-ns#">
   <cc:Work>
    <dc:type rdf:resource="http://purl.org/dc/dcmitype/StillImage"/>
    <dc:date>2024-01-17T18:50:10.930599</dc:date>
    <dc:format>image/svg+xml</dc:format>
    <dc:creator>
     <cc:Agent>
      <dc:title>Matplotlib v3.8.2, https://matplotlib.org/</dc:title>
     </cc:Agent>
    </dc:creator>
   </cc:Work>
  </rdf:RDF>
 </metadata>
 <defs>
  <style type="text/css">*{stroke-linejoin: round; stroke-linecap: butt}</style>
 </defs>
 <g id="figure_1">
  <g id="patch_1">
   <path d="M 0 216 
L 432 216 
L 432 0 
L 0 0 
z
" style="fill: #ffffff"/>
  </g>
  <g id="axes_1">
   <g id="patch_2">
    <path d="M 54 192.24 
L 388.8 192.24 
L 388.8 25.92 
L 54 25.92 
z
" style="fill: #eaeaf2"/>
   </g>
   <g id="matplotlib.axis_1">
    <g id="xtick_1">
     <g id="line2d_1">
      <path d="M 69.218182 192.24 
L 69.218182 25.92 
" clip-path="url(#pa25d1a6c37)" style="fill: none; stroke: #ffffff; stroke-linecap: round"/>
     </g>
     <g id="text_1">
      <!-- 0 -->
      <g style="fill: #262626" transform="translate(65.718807 210.098281) scale(0.11 -0.11)">
       <defs>
        <path id="DejaVuSans-30" d="M 2034 4250 
Q 1547 4250 1301 3770 
Q 1056 3291 1056 2328 
Q 1056 1369 1301 889 
Q 1547 409 2034 409 
Q 2525 409 2770 889 
Q 3016 1369 3016 2328 
Q 3016 3291 2770 3770 
Q 2525 4250 2034 4250 
z
M 2034 4750 
Q 2819 4750 3233 4129 
Q 3647 3509 3647 2328 
Q 3647 1150 3233 529 
Q 2819 -91 2034 -91 
Q 1250 -91 836 529 
Q 422 1150 422 2328 
Q 422 3509 836 4129 
Q 1250 4750 2034 4750 
z
" transform="scale(0.015625)"/>
       </defs>
       <use xlink:href="#DejaVuSans-30"/>
      </g>
     </g>
    </g>
    <g id="xtick_2">
     <g id="line2d_2">
      <path d="M 130.705785 192.24 
L 130.705785 25.92 
" clip-path="url(#pa25d1a6c37)" style="fill: none; stroke: #ffffff; stroke-linecap: round"/>
     </g>
     <g id="text_2">
      <!-- 20 -->
      <g style="fill: #262626" transform="translate(123.707035 210.098281) scale(0.11 -0.11)">
       <defs>
        <path id="DejaVuSans-32" d="M 1228 531 
L 3431 531 
L 3431 0 
L 469 0 
L 469 531 
Q 828 903 1448 1529 
Q 2069 2156 2228 2338 
Q 2531 2678 2651 2914 
Q 2772 3150 2772 3378 
Q 2772 3750 2511 3984 
Q 2250 4219 1831 4219 
Q 1534 4219 1204 4116 
Q 875 4013 500 3803 
L 500 4441 
Q 881 4594 1212 4672 
Q 1544 4750 1819 4750 
Q 2544 4750 2975 4387 
Q 3406 4025 3406 3419 
Q 3406 3131 3298 2873 
Q 3191 2616 2906 2266 
Q 2828 2175 2409 1742 
Q 1991 1309 1228 531 
z
" transform="scale(0.015625)"/>
       </defs>
       <use xlink:href="#DejaVuSans-32"/>
       <use xlink:href="#DejaVuSans-30" x="63.623047"/>
      </g>
     </g>
    </g>
    <g id="xtick_3">
     <g id="line2d_3">
      <path d="M 192.193388 192.24 
L 192.193388 25.92 
" clip-path="url(#pa25d1a6c37)" style="fill: none; stroke: #ffffff; stroke-linecap: round"/>
     </g>
     <g id="text_3">
      <!-- 40 -->
      <g style="fill: #262626" transform="translate(185.194638 210.098281) scale(0.11 -0.11)">
       <defs>
        <path id="DejaVuSans-34" d="M 2419 4116 
L 825 1625 
L 2419 1625 
L 2419 4116 
z
M 2253 4666 
L 3047 4666 
L 3047 1625 
L 3713 1625 
L 3713 1100 
L 3047 1100 
L 3047 0 
L 2419 0 
L 2419 1100 
L 313 1100 
L 313 1709 
L 2253 4666 
z
" transform="scale(0.015625)"/>
       </defs>
       <use xlink:href="#DejaVuSans-34"/>
       <use xlink:href="#DejaVuSans-30" x="63.623047"/>
      </g>
     </g>
    </g>
    <g id="xtick_4">
     <g id="line2d_4">
      <path d="M 253.680992 192.24 
L 253.680992 25.92 
" clip-path="url(#pa25d1a6c37)" style="fill: none; stroke: #ffffff; stroke-linecap: round"/>
     </g>
     <g id="text_4">
      <!-- 60 -->
      <g style="fill: #262626" transform="translate(246.682242 210.098281) scale(0.11 -0.11)">
       <defs>
        <path id="DejaVuSans-36" d="M 2113 2584 
Q 1688 2584 1439 2293 
Q 1191 2003 1191 1497 
Q 1191 994 1439 701 
Q 1688 409 2113 409 
Q 2538 409 2786 701 
Q 3034 994 3034 1497 
Q 3034 2003 2786 2293 
Q 2538 2584 2113 2584 
z
M 3366 4563 
L 3366 3988 
Q 3128 4100 2886 4159 
Q 2644 4219 2406 4219 
Q 1781 4219 1451 3797 
Q 1122 3375 1075 2522 
Q 1259 2794 1537 2939 
Q 1816 3084 2150 3084 
Q 2853 3084 3261 2657 
Q 3669 2231 3669 1497 
Q 3669 778 3244 343 
Q 2819 -91 2113 -91 
Q 1303 -91 875 529 
Q 447 1150 447 2328 
Q 447 3434 972 4092 
Q 1497 4750 2381 4750 
Q 2619 4750 2861 4703 
Q 3103 4656 3366 4563 
z
" transform="scale(0.015625)"/>
       </defs>
       <use xlink:href="#DejaVuSans-36"/>
       <use xlink:href="#DejaVuSans-30" x="63.623047"/>
      </g>
     </g>
    </g>
    <g id="xtick_5">
     <g id="line2d_5">
      <path d="M 315.168595 192.24 
L 315.168595 25.92 
" clip-path="url(#pa25d1a6c37)" style="fill: none; stroke: #ffffff; stroke-linecap: round"/>
     </g>
     <g id="text_5">
      <!-- 80 -->
      <g style="fill: #262626" transform="translate(308.169845 210.098281) scale(0.11 -0.11)">
       <defs>
        <path id="DejaVuSans-38" d="M 2034 2216 
Q 1584 2216 1326 1975 
Q 1069 1734 1069 1313 
Q 1069 891 1326 650 
Q 1584 409 2034 409 
Q 2484 409 2743 651 
Q 3003 894 3003 1313 
Q 3003 1734 2745 1975 
Q 2488 2216 2034 2216 
z
M 1403 2484 
Q 997 2584 770 2862 
Q 544 3141 544 3541 
Q 544 4100 942 4425 
Q 1341 4750 2034 4750 
Q 2731 4750 3128 4425 
Q 3525 4100 3525 3541 
Q 3525 3141 3298 2862 
Q 3072 2584 2669 2484 
Q 3125 2378 3379 2068 
Q 3634 1759 3634 1313 
Q 3634 634 3220 271 
Q 2806 -91 2034 -91 
Q 1263 -91 848 271 
Q 434 634 434 1313 
Q 434 1759 690 2068 
Q 947 2378 1403 2484 
z
M 1172 3481 
Q 1172 3119 1398 2916 
Q 1625 2713 2034 2713 
Q 2441 2713 2670 2916 
Q 2900 3119 2900 3481 
Q 2900 3844 2670 4047 
Q 2441 4250 2034 4250 
Q 1625 4250 1398 4047 
Q 1172 3844 1172 3481 
z
" transform="scale(0.015625)"/>
       </defs>
       <use xlink:href="#DejaVuSans-38"/>
       <use xlink:href="#DejaVuSans-30" x="63.623047"/>
      </g>
     </g>
    </g>
    <g id="xtick_6">
     <g id="line2d_6">
      <path d="M 376.656198 192.24 
L 376.656198 25.92 
" clip-path="url(#pa25d1a6c37)" style="fill: none; stroke: #ffffff; stroke-linecap: round"/>
     </g>
     <g id="text_6">
      <!-- 100 -->
      <g style="fill: #262626" transform="translate(366.158073 210.098281) scale(0.11 -0.11)">
       <defs>
        <path id="DejaVuSans-31" d="M 794 531 
L 1825 531 
L 1825 4091 
L 703 3866 
L 703 4441 
L 1819 4666 
L 2450 4666 
L 2450 531 
L 3481 531 
L 3481 0 
L 794 0 
L 794 531 
z
" transform="scale(0.015625)"/>
       </defs>
       <use xlink:href="#DejaVuSans-31"/>
       <use xlink:href="#DejaVuSans-30" x="63.623047"/>
       <use xlink:href="#DejaVuSans-30" x="127.246094"/>
      </g>
     </g>
    </g>
   </g>
   <g id="matplotlib.axis_2">
    <g id="ytick_1">
     <g id="line2d_7">
      <path d="M 54 184.68 
L 388.8 184.68 
" clip-path="url(#pa25d1a6c37)" style="fill: none; stroke: #ffffff; stroke-linecap: round"/>
     </g>
     <g id="text_7">
      <!-- 0.0 -->
      <g style="fill: #262626" transform="translate(27.006563 188.859141) scale(0.11 -0.11)">
       <defs>
        <path id="DejaVuSans-2e" d="M 684 794 
L 1344 794 
L 1344 0 
L 684 0 
L 684 794 
z
" transform="scale(0.015625)"/>
       </defs>
       <use xlink:href="#DejaVuSans-30"/>
       <use xlink:href="#DejaVuSans-2e" x="63.623047"/>
       <use xlink:href="#DejaVuSans-30" x="95.410156"/>
      </g>
     </g>
    </g>
    <g id="ytick_2">
     <g id="line2d_8">
      <path d="M 54 155.623463 
L 388.8 155.623463 
" clip-path="url(#pa25d1a6c37)" style="fill: none; stroke: #ffffff; stroke-linecap: round"/>
     </g>
     <g id="text_8">
      <!-- 0.5 -->
      <g style="fill: #262626" transform="translate(27.006563 159.802604) scale(0.11 -0.11)">
       <defs>
        <path id="DejaVuSans-35" d="M 691 4666 
L 3169 4666 
L 3169 4134 
L 1269 4134 
L 1269 2991 
Q 1406 3038 1543 3061 
Q 1681 3084 1819 3084 
Q 2600 3084 3056 2656 
Q 3513 2228 3513 1497 
Q 3513 744 3044 326 
Q 2575 -91 1722 -91 
Q 1428 -91 1123 -41 
Q 819 9 494 109 
L 494 744 
Q 775 591 1075 516 
Q 1375 441 1709 441 
Q 2250 441 2565 725 
Q 2881 1009 2881 1497 
Q 2881 1984 2565 2268 
Q 2250 2553 1709 2553 
Q 1456 2553 1204 2497 
Q 953 2441 691 2322 
L 691 4666 
z
" transform="scale(0.015625)"/>
       </defs>
       <use xlink:href="#DejaVuSans-30"/>
       <use xlink:href="#DejaVuSans-2e" x="63.623047"/>
       <use xlink:href="#DejaVuSans-35" x="95.410156"/>
      </g>
     </g>
    </g>
    <g id="ytick_3">
     <g id="line2d_9">
      <path d="M 54 126.566927 
L 388.8 126.566927 
" clip-path="url(#pa25d1a6c37)" style="fill: none; stroke: #ffffff; stroke-linecap: round"/>
     </g>
     <g id="text_9">
      <!-- 1.0 -->
      <g style="fill: #262626" transform="translate(27.006563 130.746067) scale(0.11 -0.11)">
       <use xlink:href="#DejaVuSans-31"/>
       <use xlink:href="#DejaVuSans-2e" x="63.623047"/>
       <use xlink:href="#DejaVuSans-30" x="95.410156"/>
      </g>
     </g>
    </g>
    <g id="ytick_4">
     <g id="line2d_10">
      <path d="M 54 97.51039 
L 388.8 97.51039 
" clip-path="url(#pa25d1a6c37)" style="fill: none; stroke: #ffffff; stroke-linecap: round"/>
     </g>
     <g id="text_10">
      <!-- 1.5 -->
      <g style="fill: #262626" transform="translate(27.006563 101.689531) scale(0.11 -0.11)">
       <use xlink:href="#DejaVuSans-31"/>
       <use xlink:href="#DejaVuSans-2e" x="63.623047"/>
       <use xlink:href="#DejaVuSans-35" x="95.410156"/>
      </g>
     </g>
    </g>
    <g id="ytick_5">
     <g id="line2d_11">
      <path d="M 54 68.453853 
L 388.8 68.453853 
" clip-path="url(#pa25d1a6c37)" style="fill: none; stroke: #ffffff; stroke-linecap: round"/>
     </g>
     <g id="text_11">
      <!-- 2.0 -->
      <g style="fill: #262626" transform="translate(27.006563 72.632994) scale(0.11 -0.11)">
       <use xlink:href="#DejaVuSans-32"/>
       <use xlink:href="#DejaVuSans-2e" x="63.623047"/>
       <use xlink:href="#DejaVuSans-30" x="95.410156"/>
      </g>
     </g>
    </g>
    <g id="ytick_6">
     <g id="line2d_12">
      <path d="M 54 39.397317 
L 388.8 39.397317 
" clip-path="url(#pa25d1a6c37)" style="fill: none; stroke: #ffffff; stroke-linecap: round"/>
     </g>
     <g id="text_12">
      <!-- 2.5 -->
      <g style="fill: #262626" transform="translate(27.006563 43.576457) scale(0.11 -0.11)">
       <use xlink:href="#DejaVuSans-32"/>
       <use xlink:href="#DejaVuSans-2e" x="63.623047"/>
       <use xlink:href="#DejaVuSans-35" x="95.410156"/>
      </g>
     </g>
    </g>
   </g>
   <g id="PolyCollection_1"/>
   <g id="PolyCollection_2"/>
   <g id="line2d_13">
    <path d="M 69.218182 184.68 
L 72.292562 184.679993 
L 75.366942 184.679773 
L 78.441322 184.678346 
L 81.515702 184.673315 
L 84.590083 184.660444 
L 87.664463 184.633375 
L 90.738843 184.583491 
L 93.813223 184.499888 
L 96.887603 184.369465 
L 99.961983 184.177093 
L 103.036364 183.905856 
L 106.110744 183.537356 
L 109.185124 183.052061 
L 112.259504 182.429684 
L 115.333884 181.649592 
L 118.408264 180.691221 
L 121.482645 179.534499 
L 124.557025 178.160261 
L 127.631405 176.550654 
L 130.705785 174.689529 
L 133.780165 172.562793 
L 136.854545 170.158752 
L 139.928926 167.468402 
L 143.003306 164.485696 
L 146.077686 161.207759 
L 149.152066 157.635073 
L 152.226446 153.771606 
L 155.300826 149.624902 
L 158.375207 145.206123 
L 161.449587 140.530044 
L 164.523967 135.615005 
L 167.598347 130.482814 
L 170.672727 125.158608 
L 173.747107 119.670676 
L 176.821488 114.050236 
L 179.895868 108.331178 
L 182.970248 102.549774 
L 186.044628 96.744353 
L 189.119008 90.954951 
L 192.193388 85.222935 
L 195.267769 79.590604 
L 198.342149 74.100782 
L 201.416529 68.796388 
L 204.490909 63.72 
L 207.565289 58.913422 
L 210.639669 54.41724 
L 213.71405 50.270396 
L 216.78843 46.509755 
L 219.86281 43.169699 
L 222.93719 40.281734 
L 226.01157 37.874114 
L 229.08595 35.971502 
L 232.160331 34.594646 
L 235.234711 33.760106 
L 238.309091 33.48 
L 241.383471 33.761808 
L 244.457851 34.608205 
L 247.532231 36.016952 
L 250.606612 37.980828 
L 253.680992 40.487617 
L 256.755372 43.520146 
L 259.829752 47.056379 
L 262.904132 51.069562 
L 265.978512 55.528431 
L 269.052893 60.397469 
L 272.127273 65.637216 
L 275.201653 71.204641 
L 278.276033 77.05356 
L 281.350413 83.135101 
L 284.424793 89.398227 
L 287.499174 95.790286 
L 290.573554 102.257615 
L 293.647934 108.746166 
L 296.722314 115.202166 
L 299.796694 121.572799 
L 302.871074 127.806894 
L 305.945455 133.855632 
L 309.019835 139.673232 
L 312.094215 145.217638 
L 315.168595 150.451176 
L 318.242975 155.341173 
L 321.317355 159.860525 
L 324.391736 163.988212 
L 327.466116 167.709716 
L 330.540496 171.017367 
L 333.614876 173.910555 
L 336.689256 176.395832 
L 339.763636 178.486848 
L 342.838017 180.204128 
L 345.912397 181.574652 
L 348.986777 182.631224 
L 352.061157 183.411592 
L 355.135537 183.957318 
L 358.209917 184.31234 
L 361.284298 184.521224 
L 364.358678 184.627062 
L 367.433058 184.668987 
L 370.507438 184.679275 
L 373.581818 184.68 
" clip-path="url(#pa25d1a6c37)" style="fill: none; stroke: #4c72b0; stroke-width: 1.5; stroke-linecap: round"/>
   </g>
   <g id="line2d_14">
    <path d="M 69.218182 184.68 
L 72.292562 184.679993 
L 75.366942 184.679773 
L 78.441322 184.678346 
L 81.515702 184.673315 
L 84.590083 184.660444 
L 87.664463 184.633375 
L 90.738843 184.583491 
L 93.813223 184.499888 
L 96.887603 184.369465 
L 99.961983 184.177093 
L 103.036364 183.905856 
L 106.110744 183.537356 
L 109.185124 183.052061 
L 112.259504 182.429684 
L 115.333884 181.649592 
L 118.408264 180.691221 
L 121.482645 179.534499 
L 124.557025 178.160261 
L 127.631405 176.550654 
L 130.705785 174.689529 
L 133.780165 172.562793 
L 136.854545 170.158752 
L 139.928926 167.468402 
L 143.003306 164.485696 
L 146.077686 161.207759 
L 149.152066 157.635073 
L 152.226446 153.771606 
L 155.300826 149.624902 
L 158.375207 145.206123 
L 161.449587 140.530044 
L 164.523967 135.615005 
L 167.598347 130.482814 
L 170.672727 125.158608 
L 173.747107 119.670676 
L 176.821488 114.050236 
L 179.895868 108.331178 
L 182.970248 102.549774 
L 186.044628 96.744353 
L 189.119008 90.954951 
L 192.193388 85.222935 
L 195.267769 79.590604 
L 198.342149 74.100782 
L 201.416529 68.796388 
L 204.490909 63.72 
L 207.565289 58.913422 
L 210.639669 54.41724 
L 213.71405 50.270396 
L 216.78843 46.509755 
L 219.86281 43.169699 
L 222.93719 40.281734 
L 226.01157 37.874114 
L 229.08595 35.971502 
L 232.160331 34.594646 
L 235.234711 33.760106 
L 238.309091 33.48 
L 241.383471 33.761808 
L 244.457851 34.608205 
L 247.532231 36.016952 
L 250.606612 37.980828 
L 253.680992 40.487617 
L 256.755372 43.520146 
L 259.829752 47.056379 
L 262.904132 51.069562 
L 265.978512 55.528431 
L 269.052893 60.397469 
L 272.127273 65.637216 
L 275.201653 71.204641 
L 278.276033 77.05356 
L 281.350413 83.135101 
L 284.424793 89.398227 
L 287.499174 95.790286 
L 290.573554 102.257615 
L 293.647934 108.746166 
L 296.722314 115.202166 
L 299.796694 121.572799 
L 302.871074 127.806894 
L 305.945455 133.855632 
L 309.019835 139.673232 
L 312.094215 145.217638 
L 315.168595 150.451176 
L 318.242975 155.341173 
L 321.317355 159.860525 
L 324.391736 163.988212 
L 327.466116 167.709716 
L 330.540496 171.017367 
L 333.614876 173.910555 
L 336.689256 176.395832 
L 339.763636 178.486848 
L 342.838017 180.204128 
L 345.912397 181.574652 
L 348.986777 182.631224 
L 352.061157 183.411592 
L 355.135537 183.957318 
L 358.209917 184.31234 
L 361.284298 184.521224 
L 364.358678 184.627062 
L 367.433058 184.668987 
L 370.507438 184.679275 
L 373.581818 184.68 
" clip-path="url(#pa25d1a6c37)" style="fill: none; stroke-dasharray: 7.5,4.5; stroke-dashoffset: 0; stroke: #dd8452; stroke-width: 1.5"/>
   </g>
   <g id="patch_3">
    <path d="M 54 192.24 
L 54 25.92 
" style="fill: none; stroke: #ffffff; stroke-width: 1.25; stroke-linejoin: miter; stroke-linecap: square"/>
   </g>
   <g id="patch_4">
    <path d="M 388.8 192.24 
L 388.8 25.92 
" style="fill: none; stroke: #ffffff; stroke-width: 1.25; stroke-linejoin: miter; stroke-linecap: square"/>
   </g>
   <g id="patch_5">
    <path d="M 54 192.24 
L 388.8 192.24 
" style="fill: none; stroke: #ffffff; stroke-width: 1.25; stroke-linejoin: miter; stroke-linecap: square"/>
   </g>
   <g id="patch_6">
    <path d="M 54 25.92 
L 388.8 25.92 
" style="fill: none; stroke: #ffffff; stroke-width: 1.25; stroke-linejoin: miter; stroke-linecap: square"/>
   </g>
   <g id="legend_1">
    <g id="patch_7">
     <path d="M 314.33 68.6 
L 381.1 68.6 
Q 383.3 68.6 383.3 66.4 
L 383.3 33.62 
Q 383.3 31.42 381.1 31.42 
L 314.33 31.42 
Q 312.13 31.42 312.13 33.62 
L 312.13 66.4 
Q 312.13 68.6 314.33 68.6 
z
" style="fill: #eaeaf2; opacity: 0.8; stroke: #cccccc; stroke-linejoin: miter"/>
    </g>
    <g id="line2d_15">
     <path d="M 316.53 40.44 
L 327.53 40.44 
L 338.53 40.44 
" style="fill: none; stroke: #4c72b0; stroke-width: 1.5; stroke-linecap: round"/>
    </g>
    <g id="text_13">
     <!-- $p(z|x)$ -->
     <g style="fill: #262626" transform="translate(347.33 44.29) scale(0.11 -0.11)">
      <defs>
       <path id="DejaVuSans-Oblique-70" d="M 3175 2156 
Q 3175 2616 2975 2859 
Q 2775 3103 2400 3103 
Q 2144 3103 1911 2972 
Q 1678 2841 1497 2591 
Q 1319 2344 1212 1994 
Q 1106 1644 1106 1300 
Q 1106 863 1306 627 
Q 1506 391 1875 391 
Q 2147 391 2380 519 
Q 2613 647 2778 891 
Q 2956 1147 3065 1494 
Q 3175 1841 3175 2156 
z
M 1394 2969 
Q 1625 3272 1939 3428 
Q 2253 3584 2638 3584 
Q 3175 3584 3472 3232 
Q 3769 2881 3769 2247 
Q 3769 1728 3584 1258 
Q 3400 788 3053 416 
Q 2822 169 2531 39 
Q 2241 -91 1919 -91 
Q 1547 -91 1294 64 
Q 1041 219 916 525 
L 556 -1331 
L -19 -1331 
L 922 3500 
L 1497 3500 
L 1394 2969 
z
" transform="scale(0.015625)"/>
       <path id="DejaVuSans-28" d="M 1984 4856 
Q 1566 4138 1362 3434 
Q 1159 2731 1159 2009 
Q 1159 1288 1364 580 
Q 1569 -128 1984 -844 
L 1484 -844 
Q 1016 -109 783 600 
Q 550 1309 550 2009 
Q 550 2706 781 3412 
Q 1013 4119 1484 4856 
L 1984 4856 
z
" transform="scale(0.015625)"/>
       <path id="DejaVuSans-Oblique-7a" d="M 744 3500 
L 3475 3500 
L 3372 2975 
L 738 459 
L 2913 459 
L 2822 0 
L -19 0 
L 84 525 
L 2719 3041 
L 653 3041 
L 744 3500 
z
" transform="scale(0.015625)"/>
       <path id="DejaVuSans-7c" d="M 1344 4891 
L 1344 -1509 
L 813 -1509 
L 813 4891 
L 1344 4891 
z
" transform="scale(0.015625)"/>
       <path id="DejaVuSans-Oblique-78" d="M 3841 3500 
L 2234 1784 
L 3219 0 
L 2559 0 
L 1819 1388 
L 531 0 
L -166 0 
L 1556 1844 
L 641 3500 
L 1300 3500 
L 1972 2234 
L 3144 3500 
L 3841 3500 
z
" transform="scale(0.015625)"/>
       <path id="DejaVuSans-29" d="M 513 4856 
L 1013 4856 
Q 1481 4119 1714 3412 
Q 1947 2706 1947 2009 
Q 1947 1309 1714 600 
Q 1481 -109 1013 -844 
L 513 -844 
Q 928 -128 1133 580 
Q 1338 1288 1338 2009 
Q 1338 2731 1133 3434 
Q 928 4138 513 4856 
z
" transform="scale(0.015625)"/>
      </defs>
      <use xlink:href="#DejaVuSans-Oblique-70" transform="translate(0 0.578125)"/>
      <use xlink:href="#DejaVuSans-28" transform="translate(63.476562 0.578125)"/>
      <use xlink:href="#DejaVuSans-Oblique-7a" transform="translate(102.490234 0.578125)"/>
      <use xlink:href="#DejaVuSans-7c" transform="translate(154.980469 0.578125)"/>
      <use xlink:href="#DejaVuSans-Oblique-78" transform="translate(188.671875 0.578125)"/>
      <use xlink:href="#DejaVuSans-29" transform="translate(247.851562 0.578125)"/>
     </g>
    </g>
    <g id="line2d_16">
     <path d="M 316.53 56.94 
L 327.53 56.94 
L 338.53 56.94 
" style="fill: none; stroke-dasharray: 7.5,4.5; stroke-dashoffset: 0; stroke: #dd8452; stroke-width: 1.5"/>
    </g>
    <g id="text_14">
     <!-- $q_ϕ(z)$ -->
     <g style="fill: #262626" transform="translate(347.33 60.79) scale(0.11 -0.11)">
      <defs>
       <path id="DejaVuSans-Oblique-71" d="M 2669 525 
Q 2438 222 2123 65 
Q 1809 -91 1428 -91 
Q 897 -91 595 267 
Q 294 625 294 1253 
Q 294 1759 480 2231 
Q 666 2703 1013 3078 
Q 1238 3322 1530 3453 
Q 1822 3584 2144 3584 
Q 2531 3584 2781 3431 
Q 3031 3278 3144 2969 
L 3244 3494 
L 3822 3494 
L 2888 -1319 
L 2309 -1319 
L 2669 525 
z
M 891 1338 
Q 891 875 1084 633 
Q 1278 391 1644 391 
Q 2188 391 2572 911 
Q 2956 1431 2956 2175 
Q 2956 2625 2757 2864 
Q 2559 3103 2188 3103 
Q 1916 3103 1684 2976 
Q 1453 2850 1281 2606 
Q 1100 2350 995 2006 
Q 891 1663 891 1338 
z
" transform="scale(0.015625)"/>
       <path id="DejaVuSans-Oblique-3d5" d="M 2991 4863 
L 2738 3572 
Q 3363 3572 3684 3094 
Q 4016 2606 3850 1747 
Q 3681 888 3159 400 
Q 2653 -78 2028 -78 
L 1784 -1331 
L 1213 -1331 
L 1456 -78 
Q 834 -78 509 400 
Q 178 888 347 1747 
Q 513 2606 1034 3094 
Q 1544 3572 2166 3572 
L 2419 4863 
L 2991 4863 
z
M 2128 434 
Q 2481 434 2784 756 
Q 3116 1116 3244 1747 
Q 3369 2372 3169 2738 
Q 2991 3059 2638 3059 
L 2128 434 
z
M 1556 434 
L 2066 3059 
Q 1716 3059 1413 2738 
Q 1072 2372 953 1747 
Q 834 1116 1028 756 
Q 1203 434 1556 434 
z
" transform="scale(0.015625)"/>
      </defs>
      <use xlink:href="#DejaVuSans-Oblique-71" transform="translate(0 0.125)"/>
      <use xlink:href="#DejaVuSans-Oblique-3d5" transform="translate(63.476562 -16.28125) scale(0.7)"/>
      <use xlink:href="#DejaVuSans-28" transform="translate(112.387695 0.125)"/>
      <use xlink:href="#DejaVuSans-Oblique-7a" transform="translate(151.401367 0.125)"/>
      <use xlink:href="#DejaVuSans-29" transform="translate(203.891602 0.125)"/>
     </g>
    </g>
   </g>
  </g>
 </g>
 <defs>
  <clipPath id="pa25d1a6c37">
   <rect x="54" y="25.92" width="334.8" height="166.32"/>
  </clipPath>
 </defs>
</svg>
