<?xml version="1.0" encoding="utf-8" standalone="no"?>
<!DOCTYPE svg PUBLIC "-//W3C//DTD SVG 1.1//EN"
  "http://www.w3.org/Graphics/SVG/1.1/DTD/svg11.dtd">
<svg xmlns:xlink="http://www.w3.org/1999/xlink" width="853.237187pt" height="421.617812pt" viewBox="0 0 853.237187 421.617812" xmlns="http://www.w3.org/2000/svg" version="1.1">
 <metadata>
  <rdf:RDF xmlns:dc="http://purl.org/dc/elements/1.1/" xmlns:cc="http://creativecommons.org/ns#" xmlns:rdf="http://www.w3.org/1999/02/22-rdf-syntax-ns#">
   <cc:Work>
    <dc:type rdf:resource="http://purl.org/dc/dcmitype/StillImage"/>
    <dc:date>2024-01-17T17:52:03.450211</dc:date>
    <dc:format>image/svg+xml</dc:format>
    <dc:creator>
     <cc:Agent>
      <dc:title>Matplotlib v3.7.2, https://matplotlib.org/</dc:title>
     </cc:Agent>
    </dc:creator>
   </cc:Work>
  </rdf:RDF>
 </metadata>
 <defs>
  <style type="text/css">*{stroke-linejoin: round; stroke-linecap: butt}</style>
 </defs>
 <g id="figure_1">
  <g id="patch_1">
   <path d="M 0 421.617812 
L 853.237187 421.617812 
L 853.237187 0 
L 0 0 
z
" style="fill: #ffffff"/>
  </g>
  <g id="axes_1">
   <g id="patch_2">
    <path d="M 49.807187 122.698125 
L 846.037188 122.698125 
L 846.037188 22.318125 
L 49.807187 22.318125 
z
" style="fill: #eaeaf2"/>
   </g>
   <g id="matplotlib.axis_1">
    <g id="xtick_1">
     <g id="line2d_1">
      <path d="M 85.99946 122.698125 
L 85.99946 22.318125 
" clip-path="url(#p7178309599)" style="fill: none; stroke: #ffffff; stroke-linecap: round"/>
     </g>
    </g>
    <g id="xtick_2">
     <g id="line2d_2">
      <path d="M 176.934819 122.698125 
L 176.934819 22.318125 
" clip-path="url(#p7178309599)" style="fill: none; stroke: #ffffff; stroke-linecap: round"/>
     </g>
    </g>
    <g id="xtick_3">
     <g id="line2d_3">
      <path d="M 267.870177 122.698125 
L 267.870177 22.318125 
" clip-path="url(#p7178309599)" style="fill: none; stroke: #ffffff; stroke-linecap: round"/>
     </g>
    </g>
    <g id="xtick_4">
     <g id="line2d_4">
      <path d="M 358.805536 122.698125 
L 358.805536 22.318125 
" clip-path="url(#p7178309599)" style="fill: none; stroke: #ffffff; stroke-linecap: round"/>
     </g>
    </g>
    <g id="xtick_5">
     <g id="line2d_5">
      <path d="M 449.740895 122.698125 
L 449.740895 22.318125 
" clip-path="url(#p7178309599)" style="fill: none; stroke: #ffffff; stroke-linecap: round"/>
     </g>
    </g>
    <g id="xtick_6">
     <g id="line2d_6">
      <path d="M 540.676253 122.698125 
L 540.676253 22.318125 
" clip-path="url(#p7178309599)" style="fill: none; stroke: #ffffff; stroke-linecap: round"/>
     </g>
    </g>
    <g id="xtick_7">
     <g id="line2d_7">
      <path d="M 631.611612 122.698125 
L 631.611612 22.318125 
" clip-path="url(#p7178309599)" style="fill: none; stroke: #ffffff; stroke-linecap: round"/>
     </g>
    </g>
    <g id="xtick_8">
     <g id="line2d_8">
      <path d="M 722.546971 122.698125 
L 722.546971 22.318125 
" clip-path="url(#p7178309599)" style="fill: none; stroke: #ffffff; stroke-linecap: round"/>
     </g>
    </g>
    <g id="xtick_9">
     <g id="line2d_9">
      <path d="M 813.482329 122.698125 
L 813.482329 22.318125 
" clip-path="url(#p7178309599)" style="fill: none; stroke: #ffffff; stroke-linecap: round"/>
     </g>
    </g>
   </g>
   <g id="matplotlib.axis_2">
    <g id="ytick_1">
     <g id="line2d_10">
      <path d="M 49.807187 96.87961 
L 846.037188 96.87961 
" clip-path="url(#p7178309599)" style="fill: none; stroke: #ffffff; stroke-linecap: round"/>
     </g>
     <g id="text_1">
      <!-- 0.2 -->
      <g style="fill: #262626" transform="translate(22.81375 101.058751) scale(0.11 -0.11)">
       <defs>
        <path id="DejaVuSans-30" d="M 2034 4250 
Q 1547 4250 1301 3770 
Q 1056 3291 1056 2328 
Q 1056 1369 1301 889 
Q 1547 409 2034 409 
Q 2525 409 2770 889 
Q 3016 1369 3016 2328 
Q 3016 3291 2770 3770 
Q 2525 4250 2034 4250 
z
M 2034 4750 
Q 2819 4750 3233 4129 
Q 3647 3509 3647 2328 
Q 3647 1150 3233 529 
Q 2819 -91 2034 -91 
Q 1250 -91 836 529 
Q 422 1150 422 2328 
Q 422 3509 836 4129 
Q 1250 4750 2034 4750 
z
" transform="scale(0.015625)"/>
        <path id="DejaVuSans-2e" d="M 684 794 
L 1344 794 
L 1344 0 
L 684 0 
L 684 794 
z
" transform="scale(0.015625)"/>
        <path id="DejaVuSans-32" d="M 1228 531 
L 3431 531 
L 3431 0 
L 469 0 
L 469 531 
Q 828 903 1448 1529 
Q 2069 2156 2228 2338 
Q 2531 2678 2651 2914 
Q 2772 3150 2772 3378 
Q 2772 3750 2511 3984 
Q 2250 4219 1831 4219 
Q 1534 4219 1204 4116 
Q 875 4013 500 3803 
L 500 4441 
Q 881 4594 1212 4672 
Q 1544 4750 1819 4750 
Q 2544 4750 2975 4387 
Q 3406 4025 3406 3419 
Q 3406 3131 3298 2873 
Q 3191 2616 2906 2266 
Q 2828 2175 2409 1742 
Q 1991 1309 1228 531 
z
" transform="scale(0.015625)"/>
       </defs>
       <use xlink:href="#DejaVuSans-30"/>
       <use xlink:href="#DejaVuSans-2e" x="63.623047"/>
       <use xlink:href="#DejaVuSans-32" x="95.410156"/>
      </g>
     </g>
    </g>
    <g id="ytick_2">
     <g id="line2d_11">
      <path d="M 49.807187 69.370556 
L 846.037188 69.370556 
" clip-path="url(#p7178309599)" style="fill: none; stroke: #ffffff; stroke-linecap: round"/>
     </g>
     <g id="text_2">
      <!-- 0.4 -->
      <g style="fill: #262626" transform="translate(22.81375 73.549697) scale(0.11 -0.11)">
       <defs>
        <path id="DejaVuSans-34" d="M 2419 4116 
L 825 1625 
L 2419 1625 
L 2419 4116 
z
M 2253 4666 
L 3047 4666 
L 3047 1625 
L 3713 1625 
L 3713 1100 
L 3047 1100 
L 3047 0 
L 2419 0 
L 2419 1100 
L 313 1100 
L 313 1709 
L 2253 4666 
z
" transform="scale(0.015625)"/>
       </defs>
       <use xlink:href="#DejaVuSans-30"/>
       <use xlink:href="#DejaVuSans-2e" x="63.623047"/>
       <use xlink:href="#DejaVuSans-34" x="95.410156"/>
      </g>
     </g>
    </g>
    <g id="ytick_3">
     <g id="line2d_12">
      <path d="M 49.807187 41.861502 
L 846.037188 41.861502 
" clip-path="url(#p7178309599)" style="fill: none; stroke: #ffffff; stroke-linecap: round"/>
     </g>
     <g id="text_3">
      <!-- 0.6 -->
      <g style="fill: #262626" transform="translate(22.81375 46.040643) scale(0.11 -0.11)">
       <defs>
        <path id="DejaVuSans-36" d="M 2113 2584 
Q 1688 2584 1439 2293 
Q 1191 2003 1191 1497 
Q 1191 994 1439 701 
Q 1688 409 2113 409 
Q 2538 409 2786 701 
Q 3034 994 3034 1497 
Q 3034 2003 2786 2293 
Q 2538 2584 2113 2584 
z
M 3366 4563 
L 3366 3988 
Q 3128 4100 2886 4159 
Q 2644 4219 2406 4219 
Q 1781 4219 1451 3797 
Q 1122 3375 1075 2522 
Q 1259 2794 1537 2939 
Q 1816 3084 2150 3084 
Q 2853 3084 3261 2657 
Q 3669 2231 3669 1497 
Q 3669 778 3244 343 
Q 2819 -91 2113 -91 
Q 1303 -91 875 529 
Q 447 1150 447 2328 
Q 447 3434 972 4092 
Q 1497 4750 2381 4750 
Q 2619 4750 2861 4703 
Q 3103 4656 3366 4563 
z
" transform="scale(0.015625)"/>
       </defs>
       <use xlink:href="#DejaVuSans-30"/>
       <use xlink:href="#DejaVuSans-2e" x="63.623047"/>
       <use xlink:href="#DejaVuSans-36" x="95.410156"/>
      </g>
     </g>
    </g>
    <g id="text_4">
     <!-- regularity -->
     <g style="fill: #262626" transform="translate(16.318125 101.52375) rotate(-90) scale(0.12 -0.12)">
      <defs>
       <path id="DejaVuSans-72" d="M 2631 2963 
Q 2534 3019 2420 3045 
Q 2306 3072 2169 3072 
Q 1681 3072 1420 2755 
Q 1159 2438 1159 1844 
L 1159 0 
L 581 0 
L 581 3500 
L 1159 3500 
L 1159 2956 
Q 1341 3275 1631 3429 
Q 1922 3584 2338 3584 
Q 2397 3584 2469 3576 
Q 2541 3569 2628 3553 
L 2631 2963 
z
" transform="scale(0.015625)"/>
       <path id="DejaVuSans-65" d="M 3597 1894 
L 3597 1613 
L 953 1613 
Q 991 1019 1311 708 
Q 1631 397 2203 397 
Q 2534 397 2845 478 
Q 3156 559 3463 722 
L 3463 178 
Q 3153 47 2828 -22 
Q 2503 -91 2169 -91 
Q 1331 -91 842 396 
Q 353 884 353 1716 
Q 353 2575 817 3079 
Q 1281 3584 2069 3584 
Q 2775 3584 3186 3129 
Q 3597 2675 3597 1894 
z
M 3022 2063 
Q 3016 2534 2758 2815 
Q 2500 3097 2075 3097 
Q 1594 3097 1305 2825 
Q 1016 2553 972 2059 
L 3022 2063 
z
" transform="scale(0.015625)"/>
       <path id="DejaVuSans-67" d="M 2906 1791 
Q 2906 2416 2648 2759 
Q 2391 3103 1925 3103 
Q 1463 3103 1205 2759 
Q 947 2416 947 1791 
Q 947 1169 1205 825 
Q 1463 481 1925 481 
Q 2391 481 2648 825 
Q 2906 1169 2906 1791 
z
M 3481 434 
Q 3481 -459 3084 -895 
Q 2688 -1331 1869 -1331 
Q 1566 -1331 1297 -1286 
Q 1028 -1241 775 -1147 
L 775 -588 
Q 1028 -725 1275 -790 
Q 1522 -856 1778 -856 
Q 2344 -856 2625 -561 
Q 2906 -266 2906 331 
L 2906 616 
Q 2728 306 2450 153 
Q 2172 0 1784 0 
Q 1141 0 747 490 
Q 353 981 353 1791 
Q 353 2603 747 3093 
Q 1141 3584 1784 3584 
Q 2172 3584 2450 3431 
Q 2728 3278 2906 2969 
L 2906 3500 
L 3481 3500 
L 3481 434 
z
" transform="scale(0.015625)"/>
       <path id="DejaVuSans-75" d="M 544 1381 
L 544 3500 
L 1119 3500 
L 1119 1403 
Q 1119 906 1312 657 
Q 1506 409 1894 409 
Q 2359 409 2629 706 
Q 2900 1003 2900 1516 
L 2900 3500 
L 3475 3500 
L 3475 0 
L 2900 0 
L 2900 538 
Q 2691 219 2414 64 
Q 2138 -91 1772 -91 
Q 1169 -91 856 284 
Q 544 659 544 1381 
z
M 1991 3584 
L 1991 3584 
z
" transform="scale(0.015625)"/>
       <path id="DejaVuSans-6c" d="M 603 4863 
L 1178 4863 
L 1178 0 
L 603 0 
L 603 4863 
z
" transform="scale(0.015625)"/>
       <path id="DejaVuSans-61" d="M 2194 1759 
Q 1497 1759 1228 1600 
Q 959 1441 959 1056 
Q 959 750 1161 570 
Q 1363 391 1709 391 
Q 2188 391 2477 730 
Q 2766 1069 2766 1631 
L 2766 1759 
L 2194 1759 
z
M 3341 1997 
L 3341 0 
L 2766 0 
L 2766 531 
Q 2569 213 2275 61 
Q 1981 -91 1556 -91 
Q 1019 -91 701 211 
Q 384 513 384 1019 
Q 384 1609 779 1909 
Q 1175 2209 1959 2209 
L 2766 2209 
L 2766 2266 
Q 2766 2663 2505 2880 
Q 2244 3097 1772 3097 
Q 1472 3097 1187 3025 
Q 903 2953 641 2809 
L 641 3341 
Q 956 3463 1253 3523 
Q 1550 3584 1831 3584 
Q 2591 3584 2966 3190 
Q 3341 2797 3341 1997 
z
" transform="scale(0.015625)"/>
       <path id="DejaVuSans-69" d="M 603 3500 
L 1178 3500 
L 1178 0 
L 603 0 
L 603 3500 
z
M 603 4863 
L 1178 4863 
L 1178 4134 
L 603 4134 
L 603 4863 
z
" transform="scale(0.015625)"/>
       <path id="DejaVuSans-74" d="M 1172 4494 
L 1172 3500 
L 2356 3500 
L 2356 3053 
L 1172 3053 
L 1172 1153 
Q 1172 725 1289 603 
Q 1406 481 1766 481 
L 2356 481 
L 2356 0 
L 1766 0 
Q 1100 0 847 248 
Q 594 497 594 1153 
L 594 3053 
L 172 3053 
L 172 3500 
L 594 3500 
L 594 4494 
L 1172 4494 
z
" transform="scale(0.015625)"/>
       <path id="DejaVuSans-79" d="M 2059 -325 
Q 1816 -950 1584 -1140 
Q 1353 -1331 966 -1331 
L 506 -1331 
L 506 -850 
L 844 -850 
Q 1081 -850 1212 -737 
Q 1344 -625 1503 -206 
L 1606 56 
L 191 3500 
L 800 3500 
L 1894 763 
L 2988 3500 
L 3597 3500 
L 2059 -325 
z
" transform="scale(0.015625)"/>
      </defs>
      <use xlink:href="#DejaVuSans-72"/>
      <use xlink:href="#DejaVuSans-65" x="38.863281"/>
      <use xlink:href="#DejaVuSans-67" x="100.386719"/>
      <use xlink:href="#DejaVuSans-75" x="163.863281"/>
      <use xlink:href="#DejaVuSans-6c" x="227.242188"/>
      <use xlink:href="#DejaVuSans-61" x="255.025391"/>
      <use xlink:href="#DejaVuSans-72" x="316.304688"/>
      <use xlink:href="#DejaVuSans-69" x="357.417969"/>
      <use xlink:href="#DejaVuSans-74" x="385.201172"/>
      <use xlink:href="#DejaVuSans-79" x="424.410156"/>
     </g>
    </g>
   </g>
   <g id="PolyCollection_1"/>
   <g id="line2d_13">
    <path d="M 85.99946 91.625932 
L 89.636875 94.247465 
L 93.274289 94.058168 
L 96.911703 71.798839 
L 100.549118 65.273895 
L 104.186532 65.985937 
L 107.823946 111.65154 
L 111.461361 112.387108 
L 115.098775 115.955122 
L 118.736189 41.504826 
L 122.373604 40.635773 
L 126.011018 58.809918 
L 129.648432 86.021123 
L 133.285847 92.869166 
L 136.923261 78.953108 
L 140.560675 90.283392 
L 144.19809 74.602719 
L 147.835504 89.39801 
L 151.472918 86.137355 
L 155.110333 76.864437 
L 158.747747 100.269776 
L 162.385161 100.056277 
L 166.022576 107.688682 
L 169.65999 92.138384 
L 173.297404 92.344324 
L 176.934819 79.314592 
L 180.572233 95.718426 
L 184.209648 95.101849 
L 187.847062 77.418368 
L 191.484476 70.082452 
L 195.121891 92.45886 
L 198.759305 88.199012 
L 202.396719 96.700247 
L 206.034134 96.388501 
L 209.671548 91.813002 
L 213.308962 113.938825 
L 216.946377 113.675321 
L 220.583791 97.771159 
L 224.221205 72.397776 
L 227.85862 88.188039 
L 231.496034 82.477606 
L 235.133448 55.900189 
L 238.770863 100.221558 
L 242.408277 98.236919 
L 246.045691 97.376742 
L 249.683106 90.449816 
L 253.32052 91.874498 
L 256.957934 74.68554 
L 260.595349 89.121442 
L 264.232763 89.465406 
L 267.870177 102.762026 
L 271.507592 80.093901 
L 275.145006 82.00399 
L 278.78242 76.918951 
L 282.419835 84.840422 
L 286.057249 93.111904 
L 289.694664 93.417814 
L 293.332078 89.167092 
L 296.969492 83.907053 
L 300.606907 72.559745 
L 304.244321 70.961556 
L 307.881735 82.562511 
L 311.51915 89.155213 
L 315.156564 96.374296 
L 318.793978 96.29583 
L 322.431393 102.449687 
L 326.068807 106.435113 
L 329.706221 105.627997 
L 333.343636 105.254126 
L 336.98105 104.527266 
L 340.618464 94.186562 
L 344.255879 91.227993 
L 347.893293 85.26417 
L 351.530707 76.912834 
L 355.168122 76.905603 
L 358.805536 73.145822 
L 362.44295 72.174469 
L 366.080365 74.67641 
L 369.717779 69.474417 
L 373.355193 69.739118 
L 376.992608 82.24412 
L 380.630022 89.372302 
L 384.267436 87.846434 
L 387.904851 101.729223 
L 391.542265 100.22876 
L 395.17968 97.441686 
L 398.817094 79.972309 
L 402.454508 83.184122 
L 406.091923 79.560706 
L 409.729337 83.268408 
L 413.366751 104.816886 
L 417.004166 99.927615 
L 420.64158 98.095341 
L 424.278994 86.080029 
L 427.916409 85.001289 
L 431.553823 97.737403 
L 435.191237 97.526203 
L 438.828652 96.252244 
L 442.466066 94.265285 
L 446.10348 68.518124 
L 449.740895 75.990641 
L 453.378309 76.195227 
L 457.015723 94.986582 
L 460.653138 91.813041 
L 464.290552 100.104344 
L 467.927966 106.022753 
L 471.565381 109.331815 
L 475.202795 109.234608 
L 478.840209 90.618673 
L 482.477624 77.647891 
L 486.115038 65.990734 
L 489.752452 90.465425 
L 493.389867 87.825096 
L 497.027281 36.461366 
L 500.664695 43.693008 
L 504.30211 44.083399 
L 507.939524 40.622371 
L 511.576939 60.351211 
L 515.214353 45.279023 
L 518.851767 47.076816 
L 522.489182 57.968505 
L 526.126596 55.684613 
L 529.76401 101.284337 
L 533.401425 102.037973 
L 537.038839 101.741603 
L 540.676253 81.113456 
L 544.313668 73.182511 
L 547.951082 92.238263 
L 555.225911 92.686452 
L 558.863325 91.338257 
L 562.500739 72.568158 
L 566.138154 76.942839 
L 569.775568 99.00877 
L 573.412982 92.910621 
L 577.050397 90.895851 
L 580.687811 64.29294 
L 584.325225 63.882446 
L 587.96264 73.353237 
L 591.600054 97.279997 
L 595.237468 96.826512 
L 598.874883 112.708639 
L 602.512297 98.090204 
L 606.149711 112.369293 
L 609.787126 113.027161 
L 613.42454 66.763978 
L 617.061955 62.258818 
L 620.699369 67.045589 
L 624.336783 68.068598 
L 627.974198 99.965877 
L 631.611612 100.925534 
L 635.249026 69.23547 
L 638.886441 69.108417 
L 642.523855 80.647182 
L 646.161269 72.560631 
L 649.798684 101.394443 
L 653.436098 101.667243 
L 657.073512 99.056909 
L 660.710927 95.402262 
L 664.348341 97.922015 
L 667.985755 101.551074 
L 671.62317 101.90737 
L 675.260584 94.28322 
L 678.897998 94.681645 
L 682.535413 95.668435 
L 686.172827 90.092022 
L 689.810241 87.623564 
L 693.447656 73.931338 
L 697.08507 86.298435 
L 700.722484 88.685023 
L 704.359899 99.191841 
L 707.997313 99.322309 
L 711.634727 106.202197 
L 715.272142 106.788408 
L 718.909556 107.523128 
L 722.546971 108.015514 
L 726.184385 114.588301 
L 729.821799 91.692327 
L 733.459214 73.479262 
L 737.096628 83.502649 
L 740.734042 92.34452 
L 744.371457 94.753351 
L 748.008871 84.283243 
L 751.646285 92.63802 
L 755.2837 95.116087 
L 758.921114 105.379269 
L 762.558528 70.93554 
L 766.195943 69.062239 
L 769.833357 69.025442 
L 773.470771 84.140313 
L 777.108186 85.294071 
L 780.7456 84.920734 
L 784.383014 94.023623 
L 788.020429 97.061856 
L 791.657843 74.777404 
L 795.295257 98.569495 
L 798.932672 107.009083 
L 802.570086 106.613229 
L 806.2075 110.133841 
L 809.844915 110.058773 
L 809.844915 110.058773 
" clip-path="url(#p7178309599)" style="fill: none; stroke: #4c72b0; stroke-width: 1.5; stroke-linecap: round"/>
   </g>
   <g id="line2d_14">
    <defs>
     <path id="mcfc80f99f5" d="M 0 3 
C 0.795609 3 1.55874 2.683901 2.12132 2.12132 
C 2.683901 1.55874 3 0.795609 3 0 
C 3 -0.795609 2.683901 -1.55874 2.12132 -2.12132 
C 1.55874 -2.683901 0.795609 -3 0 -3 
C -0.795609 -3 -1.55874 -2.683901 -2.12132 -2.12132 
C -2.683901 -1.55874 -3 -0.795609 -3 0 
C -3 0.795609 -2.683901 1.55874 -2.12132 2.12132 
C -1.55874 2.683901 -0.795609 3 0 3 
z
" style="stroke: #4c72b0"/>
    </defs>
    <g clip-path="url(#p7178309599)">
     <use xlink:href="#mcfc80f99f5" x="809.844915" y="110.058773" style="fill: #4c72b0; stroke: #4c72b0"/>
    </g>
   </g>
   <g id="patch_3">
    <path d="M 49.807187 122.698125 
L 49.807187 22.318125 
" style="fill: none; stroke: #ffffff; stroke-width: 1.25; stroke-linejoin: miter; stroke-linecap: square"/>
   </g>
   <g id="patch_4">
    <path d="M 49.807187 122.698125 
L 846.037188 122.698125 
" style="fill: none; stroke: #ffffff; stroke-width: 1.25; stroke-linejoin: miter; stroke-linecap: square"/>
   </g>
   <g id="text_5">
    <!-- chain = 0 -->
    <g style="fill: #262626" transform="translate(419.015312 16.318125) scale(0.12 -0.12)">
     <defs>
      <path id="DejaVuSans-63" d="M 3122 3366 
L 3122 2828 
Q 2878 2963 2633 3030 
Q 2388 3097 2138 3097 
Q 1578 3097 1268 2742 
Q 959 2388 959 1747 
Q 959 1106 1268 751 
Q 1578 397 2138 397 
Q 2388 397 2633 464 
Q 2878 531 3122 666 
L 3122 134 
Q 2881 22 2623 -34 
Q 2366 -91 2075 -91 
Q 1284 -91 818 406 
Q 353 903 353 1747 
Q 353 2603 823 3093 
Q 1294 3584 2113 3584 
Q 2378 3584 2631 3529 
Q 2884 3475 3122 3366 
z
" transform="scale(0.015625)"/>
      <path id="DejaVuSans-68" d="M 3513 2113 
L 3513 0 
L 2938 0 
L 2938 2094 
Q 2938 2591 2744 2837 
Q 2550 3084 2163 3084 
Q 1697 3084 1428 2787 
Q 1159 2491 1159 1978 
L 1159 0 
L 581 0 
L 581 4863 
L 1159 4863 
L 1159 2956 
Q 1366 3272 1645 3428 
Q 1925 3584 2291 3584 
Q 2894 3584 3203 3211 
Q 3513 2838 3513 2113 
z
" transform="scale(0.015625)"/>
      <path id="DejaVuSans-6e" d="M 3513 2113 
L 3513 0 
L 2938 0 
L 2938 2094 
Q 2938 2591 2744 2837 
Q 2550 3084 2163 3084 
Q 1697 3084 1428 2787 
Q 1159 2491 1159 1978 
L 1159 0 
L 581 0 
L 581 3500 
L 1159 3500 
L 1159 2956 
Q 1366 3272 1645 3428 
Q 1925 3584 2291 3584 
Q 2894 3584 3203 3211 
Q 3513 2838 3513 2113 
z
" transform="scale(0.015625)"/>
      <path id="DejaVuSans-20" transform="scale(0.015625)"/>
      <path id="DejaVuSans-3d" d="M 678 2906 
L 4684 2906 
L 4684 2381 
L 678 2381 
L 678 2906 
z
M 678 1631 
L 4684 1631 
L 4684 1100 
L 678 1100 
L 678 1631 
z
" transform="scale(0.015625)"/>
     </defs>
     <use xlink:href="#DejaVuSans-63"/>
     <use xlink:href="#DejaVuSans-68" x="54.980469"/>
     <use xlink:href="#DejaVuSans-61" x="118.359375"/>
     <use xlink:href="#DejaVuSans-69" x="179.638672"/>
     <use xlink:href="#DejaVuSans-6e" x="207.421875"/>
     <use xlink:href="#DejaVuSans-20" x="270.800781"/>
     <use xlink:href="#DejaVuSans-3d" x="302.587891"/>
     <use xlink:href="#DejaVuSans-20" x="386.376953"/>
     <use xlink:href="#DejaVuSans-30" x="418.164062"/>
    </g>
   </g>
  </g>
  <g id="axes_2">
   <g id="patch_5">
    <path d="M 49.807187 250.678125 
L 846.037188 250.678125 
L 846.037188 150.298125 
L 49.807187 150.298125 
z
" style="fill: #eaeaf2"/>
   </g>
   <g id="matplotlib.axis_3">
    <g id="xtick_10">
     <g id="line2d_15">
      <path d="M 85.99946 250.678125 
L 85.99946 150.298125 
" clip-path="url(#p4991d2540e)" style="fill: none; stroke: #ffffff; stroke-linecap: round"/>
     </g>
    </g>
    <g id="xtick_11">
     <g id="line2d_16">
      <path d="M 176.934819 250.678125 
L 176.934819 150.298125 
" clip-path="url(#p4991d2540e)" style="fill: none; stroke: #ffffff; stroke-linecap: round"/>
     </g>
    </g>
    <g id="xtick_12">
     <g id="line2d_17">
      <path d="M 267.870177 250.678125 
L 267.870177 150.298125 
" clip-path="url(#p4991d2540e)" style="fill: none; stroke: #ffffff; stroke-linecap: round"/>
     </g>
    </g>
    <g id="xtick_13">
     <g id="line2d_18">
      <path d="M 358.805536 250.678125 
L 358.805536 150.298125 
" clip-path="url(#p4991d2540e)" style="fill: none; stroke: #ffffff; stroke-linecap: round"/>
     </g>
    </g>
    <g id="xtick_14">
     <g id="line2d_19">
      <path d="M 449.740895 250.678125 
L 449.740895 150.298125 
" clip-path="url(#p4991d2540e)" style="fill: none; stroke: #ffffff; stroke-linecap: round"/>
     </g>
    </g>
    <g id="xtick_15">
     <g id="line2d_20">
      <path d="M 540.676253 250.678125 
L 540.676253 150.298125 
" clip-path="url(#p4991d2540e)" style="fill: none; stroke: #ffffff; stroke-linecap: round"/>
     </g>
    </g>
    <g id="xtick_16">
     <g id="line2d_21">
      <path d="M 631.611612 250.678125 
L 631.611612 150.298125 
" clip-path="url(#p4991d2540e)" style="fill: none; stroke: #ffffff; stroke-linecap: round"/>
     </g>
    </g>
    <g id="xtick_17">
     <g id="line2d_22">
      <path d="M 722.546971 250.678125 
L 722.546971 150.298125 
" clip-path="url(#p4991d2540e)" style="fill: none; stroke: #ffffff; stroke-linecap: round"/>
     </g>
    </g>
    <g id="xtick_18">
     <g id="line2d_23">
      <path d="M 813.482329 250.678125 
L 813.482329 150.298125 
" clip-path="url(#p4991d2540e)" style="fill: none; stroke: #ffffff; stroke-linecap: round"/>
     </g>
    </g>
   </g>
   <g id="matplotlib.axis_4">
    <g id="ytick_4">
     <g id="line2d_24">
      <path d="M 49.807187 224.85961 
L 846.037188 224.85961 
" clip-path="url(#p4991d2540e)" style="fill: none; stroke: #ffffff; stroke-linecap: round"/>
     </g>
     <g id="text_6">
      <!-- 0.2 -->
      <g style="fill: #262626" transform="translate(22.81375 229.038751) scale(0.11 -0.11)">
       <use xlink:href="#DejaVuSans-30"/>
       <use xlink:href="#DejaVuSans-2e" x="63.623047"/>
       <use xlink:href="#DejaVuSans-32" x="95.410156"/>
      </g>
     </g>
    </g>
    <g id="ytick_5">
     <g id="line2d_25">
      <path d="M 49.807187 197.350556 
L 846.037188 197.350556 
" clip-path="url(#p4991d2540e)" style="fill: none; stroke: #ffffff; stroke-linecap: round"/>
     </g>
     <g id="text_7">
      <!-- 0.4 -->
      <g style="fill: #262626" transform="translate(22.81375 201.529697) scale(0.11 -0.11)">
       <use xlink:href="#DejaVuSans-30"/>
       <use xlink:href="#DejaVuSans-2e" x="63.623047"/>
       <use xlink:href="#DejaVuSans-34" x="95.410156"/>
      </g>
     </g>
    </g>
    <g id="ytick_6">
     <g id="line2d_26">
      <path d="M 49.807187 169.841502 
L 846.037188 169.841502 
" clip-path="url(#p4991d2540e)" style="fill: none; stroke: #ffffff; stroke-linecap: round"/>
     </g>
     <g id="text_8">
      <!-- 0.6 -->
      <g style="fill: #262626" transform="translate(22.81375 174.020643) scale(0.11 -0.11)">
       <use xlink:href="#DejaVuSans-30"/>
       <use xlink:href="#DejaVuSans-2e" x="63.623047"/>
       <use xlink:href="#DejaVuSans-36" x="95.410156"/>
      </g>
     </g>
    </g>
    <g id="text_9">
     <!-- regularity -->
     <g style="fill: #262626" transform="translate(16.318125 229.50375) rotate(-90) scale(0.12 -0.12)">
      <use xlink:href="#DejaVuSans-72"/>
      <use xlink:href="#DejaVuSans-65" x="38.863281"/>
      <use xlink:href="#DejaVuSans-67" x="100.386719"/>
      <use xlink:href="#DejaVuSans-75" x="163.863281"/>
      <use xlink:href="#DejaVuSans-6c" x="227.242188"/>
      <use xlink:href="#DejaVuSans-61" x="255.025391"/>
      <use xlink:href="#DejaVuSans-72" x="316.304688"/>
      <use xlink:href="#DejaVuSans-69" x="357.417969"/>
      <use xlink:href="#DejaVuSans-74" x="385.201172"/>
      <use xlink:href="#DejaVuSans-79" x="424.410156"/>
     </g>
    </g>
   </g>
   <g id="PolyCollection_2"/>
   <g id="line2d_27">
    <path d="M 85.99946 207.637555 
L 89.636875 208.025087 
L 93.274289 220.034867 
L 96.911703 228.211573 
L 100.549118 217.677616 
L 104.186532 212.809694 
L 107.823946 214.459099 
L 111.461361 219.199864 
L 115.098775 211.40871 
L 118.736189 214.916999 
L 122.373604 226.190384 
L 126.011018 199.317155 
L 129.648432 205.984248 
L 133.285847 198.630021 
L 136.923261 232.04995 
L 140.560675 228.293399 
L 144.19809 213.66743 
L 147.835504 212.566117 
L 151.472918 225.53974 
L 155.110333 220.220524 
L 158.747747 207.098651 
L 162.385161 215.024326 
L 166.022576 214.39877 
L 169.65999 214.97864 
L 173.297404 222.551927 
L 176.934819 222.696555 
L 180.572233 220.903255 
L 184.209648 201.058363 
L 187.847062 192.037652 
L 191.484476 193.98019 
L 195.121891 191.850408 
L 198.759305 207.428964 
L 202.396719 154.860852 
L 206.034134 159.02924 
L 209.671548 162.722066 
L 213.308962 164.578086 
L 216.946377 168.999611 
L 220.583791 166.985809 
L 224.221205 164.69415 
L 227.85862 163.235332 
L 231.496034 157.633269 
L 235.133448 157.333998 
L 238.770863 158.501901 
L 242.408277 161.416225 
L 246.045691 161.939884 
L 249.683106 221.84152 
L 253.32052 183.089627 
L 256.957934 185.251205 
L 260.595349 169.674736 
L 264.232763 196.872314 
L 267.870177 235.067234 
L 271.507592 236.824471 
L 275.145006 215.954144 
L 278.78242 203.799765 
L 282.419835 215.755613 
L 286.057249 231.218513 
L 289.694664 230.383662 
L 293.332078 229.388483 
L 296.969492 229.775121 
L 300.606907 226.489526 
L 304.244321 228.783608 
L 307.881735 220.891723 
L 311.51915 216.821319 
L 315.156564 229.995313 
L 318.793978 227.350513 
L 322.431393 227.695084 
L 326.068807 225.106485 
L 329.706221 228.973761 
L 333.343636 219.632731 
L 336.98105 198.517956 
L 340.618464 199.827927 
L 344.255879 191.440509 
L 347.893293 231.025146 
L 351.530707 233.406281 
L 355.168122 232.048347 
L 358.805536 214.103364 
L 362.44295 216.726132 
L 366.080365 210.010231 
L 369.717779 226.707006 
L 373.355193 205.823067 
L 376.992608 216.970249 
L 380.630022 229.813575 
L 384.267436 234.516024 
L 387.904851 234.531762 
L 391.542265 234.382844 
L 395.17968 234.92773 
L 398.817094 234.852674 
L 402.454508 234.139593 
L 406.091923 234.271874 
L 409.729337 237.521307 
L 413.366751 218.47198 
L 417.004166 235.785561 
L 420.64158 236.685637 
L 424.278994 238.500156 
L 427.916409 238.920707 
L 431.553823 199.27833 
L 435.191237 216.213045 
L 438.828652 218.762755 
L 442.466066 218.556379 
L 446.10348 229.908608 
L 449.740895 230.64319 
L 453.378309 200.529847 
L 457.015723 200.21353 
L 460.653138 207.175176 
L 464.290552 205.257579 
L 467.927966 200.426861 
L 471.565381 221.405561 
L 475.202795 224.841983 
L 478.840209 227.587769 
L 482.477624 204.474755 
L 486.115038 203.544609 
L 489.752452 205.447666 
L 493.389867 221.288121 
L 497.027281 227.388561 
L 500.664695 215.367706 
L 504.30211 221.040424 
L 507.939524 220.076066 
L 511.576939 228.683416 
L 515.214353 221.203438 
L 518.851767 216.791003 
L 522.489182 221.710417 
L 526.126596 208.963292 
L 529.76401 205.964771 
L 533.401425 205.76824 
L 537.038839 223.250019 
L 540.676253 218.785349 
L 544.313668 219.228979 
L 547.951082 225.312281 
L 551.588496 221.801604 
L 555.225911 223.93899 
L 558.863325 203.563208 
L 562.500739 204.037553 
L 566.138154 215.589065 
L 569.775568 198.35877 
L 573.412982 198.840957 
L 577.050397 200.911035 
L 580.687811 198.385518 
L 584.325225 204.201907 
L 587.96264 232.200656 
L 591.600054 232.817205 
L 595.237468 240.409531 
L 598.874883 193.361905 
L 602.512297 234.056254 
L 606.149711 222.285344 
L 609.787126 209.177257 
L 613.42454 203.572294 
L 617.061955 199.946148 
L 620.699369 196.57327 
L 624.336783 233.626298 
L 627.974198 235.77233 
L 631.611612 235.319019 
L 635.249026 235.830886 
L 638.886441 206.170111 
L 642.523855 224.60152 
L 646.161269 213.440103 
L 649.798684 203.336207 
L 653.436098 218.097432 
L 657.073512 219.914055 
L 660.710927 212.435273 
L 664.348341 216.47751 
L 667.985755 216.121509 
L 671.62317 213.363845 
L 675.260584 215.77166 
L 678.897998 232.589523 
L 682.535413 229.816726 
L 686.172827 226.343105 
L 689.810241 219.677502 
L 697.08507 193.433987 
L 700.722484 191.024591 
L 704.359899 192.696001 
L 707.997313 196.647831 
L 711.634727 214.206588 
L 715.272142 205.523525 
L 718.909556 214.577658 
L 722.546971 211.604313 
L 726.184385 212.948858 
L 729.821799 227.209977 
L 733.459214 214.920729 
L 737.096628 223.936569 
L 740.734042 218.669886 
L 744.371457 215.285745 
L 748.008871 216.954818 
L 751.646285 215.37069 
L 755.2837 217.942504 
L 758.921114 218.870955 
L 762.558528 213.410639 
L 769.833357 223.014874 
L 773.470771 218.833952 
L 777.108186 215.391643 
L 780.7456 227.632163 
L 784.383014 223.906496 
L 788.020429 223.526386 
L 791.657843 223.290417 
L 795.295257 221.234039 
L 798.932672 212.536601 
L 802.570086 200.399617 
L 806.2075 223.632313 
L 809.844915 218.784772 
L 809.844915 218.784772 
" clip-path="url(#p4991d2540e)" style="fill: none; stroke: #4c72b0; stroke-width: 1.5; stroke-linecap: round"/>
   </g>
   <g id="line2d_28">
    <g clip-path="url(#p4991d2540e)">
     <use xlink:href="#mcfc80f99f5" x="809.844915" y="218.784772" style="fill: #4c72b0; stroke: #4c72b0"/>
    </g>
   </g>
   <g id="patch_6">
    <path d="M 49.807187 250.678125 
L 49.807187 150.298125 
" style="fill: none; stroke: #ffffff; stroke-width: 1.25; stroke-linejoin: miter; stroke-linecap: square"/>
   </g>
   <g id="patch_7">
    <path d="M 49.807187 250.678125 
L 846.037188 250.678125 
" style="fill: none; stroke: #ffffff; stroke-width: 1.25; stroke-linejoin: miter; stroke-linecap: square"/>
   </g>
   <g id="text_10">
    <!-- chain = 1 -->
    <g style="fill: #262626" transform="translate(419.015312 144.298125) scale(0.12 -0.12)">
     <defs>
      <path id="DejaVuSans-31" d="M 794 531 
L 1825 531 
L 1825 4091 
L 703 3866 
L 703 4441 
L 1819 4666 
L 2450 4666 
L 2450 531 
L 3481 531 
L 3481 0 
L 794 0 
L 794 531 
z
" transform="scale(0.015625)"/>
     </defs>
     <use xlink:href="#DejaVuSans-63"/>
     <use xlink:href="#DejaVuSans-68" x="54.980469"/>
     <use xlink:href="#DejaVuSans-61" x="118.359375"/>
     <use xlink:href="#DejaVuSans-69" x="179.638672"/>
     <use xlink:href="#DejaVuSans-6e" x="207.421875"/>
     <use xlink:href="#DejaVuSans-20" x="270.800781"/>
     <use xlink:href="#DejaVuSans-3d" x="302.587891"/>
     <use xlink:href="#DejaVuSans-20" x="386.376953"/>
     <use xlink:href="#DejaVuSans-31" x="418.164062"/>
    </g>
   </g>
  </g>
  <g id="axes_3">
   <g id="patch_8">
    <path d="M 49.807187 378.658125 
L 846.037188 378.658125 
L 846.037188 278.278125 
L 49.807187 278.278125 
z
" style="fill: #eaeaf2"/>
   </g>
   <g id="matplotlib.axis_5">
    <g id="xtick_19">
     <g id="line2d_29">
      <path d="M 85.99946 378.658125 
L 85.99946 278.278125 
" clip-path="url(#pad0f813e95)" style="fill: none; stroke: #ffffff; stroke-linecap: round"/>
     </g>
     <g id="text_11">
      <!-- 0 -->
      <g style="fill: #262626" transform="translate(82.500085 396.516406) scale(0.11 -0.11)">
       <use xlink:href="#DejaVuSans-30"/>
      </g>
     </g>
    </g>
    <g id="xtick_20">
     <g id="line2d_30">
      <path d="M 176.934819 378.658125 
L 176.934819 278.278125 
" clip-path="url(#pad0f813e95)" style="fill: none; stroke: #ffffff; stroke-linecap: round"/>
     </g>
     <g id="text_12">
      <!-- 25 -->
      <g style="fill: #262626" transform="translate(169.936069 396.516406) scale(0.11 -0.11)">
       <defs>
        <path id="DejaVuSans-35" d="M 691 4666 
L 3169 4666 
L 3169 4134 
L 1269 4134 
L 1269 2991 
Q 1406 3038 1543 3061 
Q 1681 3084 1819 3084 
Q 2600 3084 3056 2656 
Q 3513 2228 3513 1497 
Q 3513 744 3044 326 
Q 2575 -91 1722 -91 
Q 1428 -91 1123 -41 
Q 819 9 494 109 
L 494 744 
Q 775 591 1075 516 
Q 1375 441 1709 441 
Q 2250 441 2565 725 
Q 2881 1009 2881 1497 
Q 2881 1984 2565 2268 
Q 2250 2553 1709 2553 
Q 1456 2553 1204 2497 
Q 953 2441 691 2322 
L 691 4666 
z
" transform="scale(0.015625)"/>
       </defs>
       <use xlink:href="#DejaVuSans-32"/>
       <use xlink:href="#DejaVuSans-35" x="63.623047"/>
      </g>
     </g>
    </g>
    <g id="xtick_21">
     <g id="line2d_31">
      <path d="M 267.870177 378.658125 
L 267.870177 278.278125 
" clip-path="url(#pad0f813e95)" style="fill: none; stroke: #ffffff; stroke-linecap: round"/>
     </g>
     <g id="text_13">
      <!-- 50 -->
      <g style="fill: #262626" transform="translate(260.871427 396.516406) scale(0.11 -0.11)">
       <use xlink:href="#DejaVuSans-35"/>
       <use xlink:href="#DejaVuSans-30" x="63.623047"/>
      </g>
     </g>
    </g>
    <g id="xtick_22">
     <g id="line2d_32">
      <path d="M 358.805536 378.658125 
L 358.805536 278.278125 
" clip-path="url(#pad0f813e95)" style="fill: none; stroke: #ffffff; stroke-linecap: round"/>
     </g>
     <g id="text_14">
      <!-- 75 -->
      <g style="fill: #262626" transform="translate(351.806786 396.516406) scale(0.11 -0.11)">
       <defs>
        <path id="DejaVuSans-37" d="M 525 4666 
L 3525 4666 
L 3525 4397 
L 1831 0 
L 1172 0 
L 2766 4134 
L 525 4134 
L 525 4666 
z
" transform="scale(0.015625)"/>
       </defs>
       <use xlink:href="#DejaVuSans-37"/>
       <use xlink:href="#DejaVuSans-35" x="63.623047"/>
      </g>
     </g>
    </g>
    <g id="xtick_23">
     <g id="line2d_33">
      <path d="M 449.740895 378.658125 
L 449.740895 278.278125 
" clip-path="url(#pad0f813e95)" style="fill: none; stroke: #ffffff; stroke-linecap: round"/>
     </g>
     <g id="text_15">
      <!-- 100 -->
      <g style="fill: #262626" transform="translate(439.24277 396.516406) scale(0.11 -0.11)">
       <use xlink:href="#DejaVuSans-31"/>
       <use xlink:href="#DejaVuSans-30" x="63.623047"/>
       <use xlink:href="#DejaVuSans-30" x="127.246094"/>
      </g>
     </g>
    </g>
    <g id="xtick_24">
     <g id="line2d_34">
      <path d="M 540.676253 378.658125 
L 540.676253 278.278125 
" clip-path="url(#pad0f813e95)" style="fill: none; stroke: #ffffff; stroke-linecap: round"/>
     </g>
     <g id="text_16">
      <!-- 125 -->
      <g style="fill: #262626" transform="translate(530.178128 396.516406) scale(0.11 -0.11)">
       <use xlink:href="#DejaVuSans-31"/>
       <use xlink:href="#DejaVuSans-32" x="63.623047"/>
       <use xlink:href="#DejaVuSans-35" x="127.246094"/>
      </g>
     </g>
    </g>
    <g id="xtick_25">
     <g id="line2d_35">
      <path d="M 631.611612 378.658125 
L 631.611612 278.278125 
" clip-path="url(#pad0f813e95)" style="fill: none; stroke: #ffffff; stroke-linecap: round"/>
     </g>
     <g id="text_17">
      <!-- 150 -->
      <g style="fill: #262626" transform="translate(621.113487 396.516406) scale(0.11 -0.11)">
       <use xlink:href="#DejaVuSans-31"/>
       <use xlink:href="#DejaVuSans-35" x="63.623047"/>
       <use xlink:href="#DejaVuSans-30" x="127.246094"/>
      </g>
     </g>
    </g>
    <g id="xtick_26">
     <g id="line2d_36">
      <path d="M 722.546971 378.658125 
L 722.546971 278.278125 
" clip-path="url(#pad0f813e95)" style="fill: none; stroke: #ffffff; stroke-linecap: round"/>
     </g>
     <g id="text_18">
      <!-- 175 -->
      <g style="fill: #262626" transform="translate(712.048846 396.516406) scale(0.11 -0.11)">
       <use xlink:href="#DejaVuSans-31"/>
       <use xlink:href="#DejaVuSans-37" x="63.623047"/>
       <use xlink:href="#DejaVuSans-35" x="127.246094"/>
      </g>
     </g>
    </g>
    <g id="xtick_27">
     <g id="line2d_37">
      <path d="M 813.482329 378.658125 
L 813.482329 278.278125 
" clip-path="url(#pad0f813e95)" style="fill: none; stroke: #ffffff; stroke-linecap: round"/>
     </g>
     <g id="text_19">
      <!-- 200 -->
      <g style="fill: #262626" transform="translate(802.984204 396.516406) scale(0.11 -0.11)">
       <use xlink:href="#DejaVuSans-32"/>
       <use xlink:href="#DejaVuSans-30" x="63.623047"/>
       <use xlink:href="#DejaVuSans-30" x="127.246094"/>
      </g>
     </g>
    </g>
    <g id="text_20">
     <!-- draw -->
     <g style="fill: #262626" transform="translate(433.062813 411.922187) scale(0.12 -0.12)">
      <defs>
       <path id="DejaVuSans-64" d="M 2906 2969 
L 2906 4863 
L 3481 4863 
L 3481 0 
L 2906 0 
L 2906 525 
Q 2725 213 2448 61 
Q 2172 -91 1784 -91 
Q 1150 -91 751 415 
Q 353 922 353 1747 
Q 353 2572 751 3078 
Q 1150 3584 1784 3584 
Q 2172 3584 2448 3432 
Q 2725 3281 2906 2969 
z
M 947 1747 
Q 947 1113 1208 752 
Q 1469 391 1925 391 
Q 2381 391 2643 752 
Q 2906 1113 2906 1747 
Q 2906 2381 2643 2742 
Q 2381 3103 1925 3103 
Q 1469 3103 1208 2742 
Q 947 2381 947 1747 
z
" transform="scale(0.015625)"/>
       <path id="DejaVuSans-77" d="M 269 3500 
L 844 3500 
L 1563 769 
L 2278 3500 
L 2956 3500 
L 3675 769 
L 4391 3500 
L 4966 3500 
L 4050 0 
L 3372 0 
L 2619 2869 
L 1863 0 
L 1184 0 
L 269 3500 
z
" transform="scale(0.015625)"/>
      </defs>
      <use xlink:href="#DejaVuSans-64"/>
      <use xlink:href="#DejaVuSans-72" x="63.476562"/>
      <use xlink:href="#DejaVuSans-61" x="104.589844"/>
      <use xlink:href="#DejaVuSans-77" x="165.869141"/>
     </g>
    </g>
   </g>
   <g id="matplotlib.axis_6">
    <g id="ytick_7">
     <g id="line2d_38">
      <path d="M 49.807187 352.83961 
L 846.037188 352.83961 
" clip-path="url(#pad0f813e95)" style="fill: none; stroke: #ffffff; stroke-linecap: round"/>
     </g>
     <g id="text_21">
      <!-- 0.2 -->
      <g style="fill: #262626" transform="translate(22.81375 357.018751) scale(0.11 -0.11)">
       <use xlink:href="#DejaVuSans-30"/>
       <use xlink:href="#DejaVuSans-2e" x="63.623047"/>
       <use xlink:href="#DejaVuSans-32" x="95.410156"/>
      </g>
     </g>
    </g>
    <g id="ytick_8">
     <g id="line2d_39">
      <path d="M 49.807187 325.330556 
L 846.037188 325.330556 
" clip-path="url(#pad0f813e95)" style="fill: none; stroke: #ffffff; stroke-linecap: round"/>
     </g>
     <g id="text_22">
      <!-- 0.4 -->
      <g style="fill: #262626" transform="translate(22.81375 329.509697) scale(0.11 -0.11)">
       <use xlink:href="#DejaVuSans-30"/>
       <use xlink:href="#DejaVuSans-2e" x="63.623047"/>
       <use xlink:href="#DejaVuSans-34" x="95.410156"/>
      </g>
     </g>
    </g>
    <g id="ytick_9">
     <g id="line2d_40">
      <path d="M 49.807187 297.821502 
L 846.037188 297.821502 
" clip-path="url(#pad0f813e95)" style="fill: none; stroke: #ffffff; stroke-linecap: round"/>
     </g>
     <g id="text_23">
      <!-- 0.6 -->
      <g style="fill: #262626" transform="translate(22.81375 302.000643) scale(0.11 -0.11)">
       <use xlink:href="#DejaVuSans-30"/>
       <use xlink:href="#DejaVuSans-2e" x="63.623047"/>
       <use xlink:href="#DejaVuSans-36" x="95.410156"/>
      </g>
     </g>
    </g>
    <g id="text_24">
     <!-- regularity -->
     <g style="fill: #262626" transform="translate(16.318125 357.48375) rotate(-90) scale(0.12 -0.12)">
      <use xlink:href="#DejaVuSans-72"/>
      <use xlink:href="#DejaVuSans-65" x="38.863281"/>
      <use xlink:href="#DejaVuSans-67" x="100.386719"/>
      <use xlink:href="#DejaVuSans-75" x="163.863281"/>
      <use xlink:href="#DejaVuSans-6c" x="227.242188"/>
      <use xlink:href="#DejaVuSans-61" x="255.025391"/>
      <use xlink:href="#DejaVuSans-72" x="316.304688"/>
      <use xlink:href="#DejaVuSans-69" x="357.417969"/>
      <use xlink:href="#DejaVuSans-74" x="385.201172"/>
      <use xlink:href="#DejaVuSans-79" x="424.410156"/>
     </g>
    </g>
   </g>
   <g id="PolyCollection_3"/>
   <g id="line2d_41">
    <path d="M 85.99946 319.764493 
L 89.636875 311.596896 
L 93.274289 303.908638 
L 96.911703 320.016148 
L 100.549118 351.545739 
L 104.186532 351.696899 
L 107.823946 348.65216 
L 111.461361 332.06596 
L 115.098775 331.635036 
L 118.736189 329.040004 
L 122.373604 331.914514 
L 126.011018 332.553237 
L 129.648432 338.116724 
L 133.285847 345.701964 
L 136.923261 339.11523 
L 140.560675 328.99694 
L 144.19809 329.578971 
L 147.835504 314.935161 
L 151.472918 350.891368 
L 155.110333 351.425196 
L 158.747747 349.335924 
L 162.385161 330.473836 
L 166.022576 343.912856 
L 169.65999 341.00783 
L 173.297404 337.63582 
L 176.934819 362.980179 
L 180.572233 362.134328 
L 184.209648 336.644504 
L 187.847062 348.344672 
L 191.484476 354.446612 
L 195.121891 352.138287 
L 198.759305 352.583592 
L 202.396719 342.474491 
L 206.034134 345.889662 
L 209.671548 335.101833 
L 213.308962 357.818275 
L 216.946377 355.053181 
L 220.583791 347.350516 
L 224.221205 338.788187 
L 227.85862 324.145751 
L 231.496034 331.159641 
L 235.133448 337.752364 
L 238.770863 346.732678 
L 242.408277 325.423554 
L 246.045691 322.584691 
L 249.683106 315.288248 
L 253.32052 324.385224 
L 256.957934 325.842003 
L 260.595349 330.309768 
L 264.232763 329.970751 
L 267.870177 319.249151 
L 271.507592 318.675562 
L 275.145006 316.719268 
L 278.78242 322.230731 
L 282.419835 318.354128 
L 286.057249 331.224903 
L 289.694664 330.485323 
L 293.332078 349.351927 
L 296.969492 349.518922 
L 300.606907 346.860111 
L 304.244321 350.614858 
L 307.881735 344.477061 
L 311.51915 357.883398 
L 315.156564 357.290713 
L 318.793978 358.731178 
L 322.431393 361.887841 
L 326.068807 361.700948 
L 329.706221 324.840174 
L 333.343636 323.267472 
L 336.98105 359.198872 
L 340.618464 363.758309 
L 344.255879 367.779473 
L 347.893293 367.015548 
L 351.530707 369.908495 
L 355.168122 370.659603 
L 358.805536 371.767833 
L 362.44295 371.285883 
L 366.080365 364.764476 
L 369.717779 364.64134 
L 373.355193 367.601335 
L 376.992608 349.283841 
L 380.630022 349.445619 
L 384.267436 342.611748 
L 387.904851 365.704981 
L 391.542265 365.937587 
L 395.17968 362.405281 
L 398.817094 363.164155 
L 402.454508 340.914047 
L 406.091923 334.304605 
L 409.729337 353.543929 
L 413.366751 368.375983 
L 417.004166 368.289394 
L 420.64158 358.50263 
L 424.278994 326.588696 
L 427.916409 329.090579 
L 431.553823 344.10901 
L 435.191237 348.839274 
L 438.828652 322.197194 
L 442.466066 373.631525 
L 446.10348 374.095398 
L 449.740895 319.068431 
L 453.378309 318.320258 
L 457.015723 327.207343 
L 460.653138 326.507294 
L 464.290552 344.087896 
L 467.927966 340.657392 
L 471.565381 342.159483 
L 475.202795 333.581097 
L 478.840209 333.323144 
L 482.477624 355.142397 
L 486.115038 347.180987 
L 489.752452 344.037745 
L 493.389867 360.958279 
L 497.027281 349.335843 
L 500.664695 335.551788 
L 504.30211 333.997705 
L 507.939524 334.074413 
L 511.576939 342.150755 
L 515.214353 346.317319 
L 518.851767 361.505274 
L 522.489182 327.611446 
L 526.126596 335.071981 
L 529.76401 353.158498 
L 533.401425 351.619224 
L 537.038839 301.054677 
L 540.676253 300.33857 
L 544.313668 298.512991 
L 547.951082 291.668761 
L 551.588496 294.879023 
L 555.225911 341.208146 
L 558.863325 332.344477 
L 562.500739 336.188016 
L 566.138154 362.943642 
L 569.775568 362.317304 
L 573.412982 348.421143 
L 577.050397 343.242418 
L 580.687811 346.526214 
L 584.325225 348.739809 
L 587.96264 338.544169 
L 591.600054 351.32304 
L 595.237468 328.193468 
L 598.874883 339.740425 
L 602.512297 340.607458 
L 606.149711 327.558867 
L 609.787126 307.060275 
L 613.42454 306.737608 
L 617.061955 347.584721 
L 620.699369 350.315518 
L 624.336783 345.471302 
L 627.974198 342.149982 
L 631.611612 347.115189 
L 635.249026 347.075788 
L 638.886441 339.963875 
L 642.523855 351.292297 
L 646.161269 334.205939 
L 649.798684 326.612687 
L 653.436098 342.91967 
L 657.073512 348.86302 
L 660.710927 343.831477 
L 664.348341 338.125546 
L 667.985755 336.03895 
L 671.62317 350.844897 
L 675.260584 338.868299 
L 678.897998 343.420506 
L 682.535413 342.059788 
L 686.172827 342.550201 
L 689.810241 334.638154 
L 693.447656 339.045817 
L 697.08507 344.597477 
L 700.722484 339.186664 
L 704.359899 351.655872 
L 707.997313 360.917447 
L 711.634727 340.928888 
L 715.272142 353.418152 
L 718.909556 353.088033 
L 722.546971 338.51376 
L 726.184385 355.757582 
L 729.821799 349.383743 
L 733.459214 333.573303 
L 737.096628 350.360967 
L 740.734042 338.478328 
L 744.371457 333.974747 
L 748.008871 336.573573 
L 751.646285 334.137942 
L 755.2837 340.321843 
L 758.921114 337.425647 
L 762.558528 333.567329 
L 766.195943 312.37192 
L 769.833357 322.992554 
L 773.470771 313.72808 
L 777.108186 316.33506 
L 780.7456 309.779689 
L 784.383014 364.504039 
L 788.020429 324.842135 
L 791.657843 315.176963 
L 795.295257 349.402475 
L 798.932672 349.604953 
L 802.570086 347.802471 
L 806.2075 339.781561 
L 809.844915 346.70649 
L 809.844915 346.70649 
" clip-path="url(#pad0f813e95)" style="fill: none; stroke: #4c72b0; stroke-width: 1.5; stroke-linecap: round"/>
   </g>
   <g id="line2d_42">
    <g clip-path="url(#pad0f813e95)">
     <use xlink:href="#mcfc80f99f5" x="809.844915" y="346.70649" style="fill: #4c72b0; stroke: #4c72b0"/>
    </g>
   </g>
   <g id="patch_9">
    <path d="M 49.807187 378.658125 
L 49.807187 278.278125 
" style="fill: none; stroke: #ffffff; stroke-width: 1.25; stroke-linejoin: miter; stroke-linecap: square"/>
   </g>
   <g id="patch_10">
    <path d="M 49.807187 378.658125 
L 846.037188 378.658125 
" style="fill: none; stroke: #ffffff; stroke-width: 1.25; stroke-linejoin: miter; stroke-linecap: square"/>
   </g>
   <g id="text_25">
    <!-- chain = 2 -->
    <g style="fill: #262626" transform="translate(419.015312 272.278125) scale(0.12 -0.12)">
     <use xlink:href="#DejaVuSans-63"/>
     <use xlink:href="#DejaVuSans-68" x="54.980469"/>
     <use xlink:href="#DejaVuSans-61" x="118.359375"/>
     <use xlink:href="#DejaVuSans-69" x="179.638672"/>
     <use xlink:href="#DejaVuSans-6e" x="207.421875"/>
     <use xlink:href="#DejaVuSans-20" x="270.800781"/>
     <use xlink:href="#DejaVuSans-3d" x="302.587891"/>
     <use xlink:href="#DejaVuSans-20" x="386.376953"/>
     <use xlink:href="#DejaVuSans-32" x="418.164062"/>
    </g>
   </g>
  </g>
 </g>
 <defs>
  <clipPath id="p7178309599">
   <rect x="49.807187" y="22.318125" width="796.23" height="100.38"/>
  </clipPath>
  <clipPath id="p4991d2540e">
   <rect x="49.807187" y="150.298125" width="796.23" height="100.38"/>
  </clipPath>
  <clipPath id="pad0f813e95">
   <rect x="49.807187" y="278.278125" width="796.23" height="100.38"/>
  </clipPath>
 </defs>
</svg>
