<?xml version="1.0" encoding="utf-8" standalone="no"?>
<!DOCTYPE svg PUBLIC "-//W3C//DTD SVG 1.1//EN"
  "http://www.w3.org/Graphics/SVG/1.1/DTD/svg11.dtd">
<svg xmlns:xlink="http://www.w3.org/1999/xlink" width="432pt" height="216pt" viewBox="0 0 432 216" xmlns="http://www.w3.org/2000/svg" version="1.1">
 <metadata>
  <rdf:RDF xmlns:dc="http://purl.org/dc/elements/1.1/" xmlns:cc="http://creativecommons.org/ns#" xmlns:rdf="http://www.w3.org/1999/02/22-rdf-syntax-ns#">
   <cc:Work>
    <dc:type rdf:resource="http://purl.org/dc/dcmitype/StillImage"/>
    <dc:date>2024-01-31T17:09:47.449828</dc:date>
    <dc:format>image/svg+xml</dc:format>
    <dc:creator>
     <cc:Agent>
      <dc:title>Matplotlib v3.8.2, https://matplotlib.org/</dc:title>
     </cc:Agent>
    </dc:creator>
   </cc:Work>
  </rdf:RDF>
 </metadata>
 <defs>
  <style type="text/css">*{stroke-linejoin: round; stroke-linecap: butt}</style>
 </defs>
 <g id="figure_1">
  <g id="patch_1">
   <path d="M 0 216 
L 432 216 
L 432 0 
L 0 0 
z
" style="fill: #ffffff"/>
  </g>
  <g id="axes_1">
   <g id="patch_2">
    <path d="M 54 192.24 
L 388.8 192.24 
L 388.8 25.92 
L 54 25.92 
z
" style="fill: #eaeaf2"/>
   </g>
   <g id="matplotlib.axis_1">
    <g id="xtick_1">
     <g id="line2d_1">
      <path d="M 113.276965 192.24 
L 113.276965 25.92 
" clip-path="url(#pdc35a4ac5a)" style="fill: none; stroke: #ffffff; stroke-linecap: round"/>
     </g>
     <g id="line2d_2">
      <defs>
       <path id="m0f6f91cee7" d="M 0 0 
L 0 3 
" style="stroke: #808080"/>
      </defs>
      <g>
       <use xlink:href="#m0f6f91cee7" x="113.276965" y="192.24" style="fill: #808080; stroke: #808080"/>
      </g>
     </g>
     <g id="text_1">
      <!-- 0.2 -->
      <g style="fill: #262626" transform="translate(104.530247 207.098281) scale(0.11 -0.11)">
       <defs>
        <path id="DejaVuSans-30" d="M 2034 4250 
Q 1547 4250 1301 3770 
Q 1056 3291 1056 2328 
Q 1056 1369 1301 889 
Q 1547 409 2034 409 
Q 2525 409 2770 889 
Q 3016 1369 3016 2328 
Q 3016 3291 2770 3770 
Q 2525 4250 2034 4250 
z
M 2034 4750 
Q 2819 4750 3233 4129 
Q 3647 3509 3647 2328 
Q 3647 1150 3233 529 
Q 2819 -91 2034 -91 
Q 1250 -91 836 529 
Q 422 1150 422 2328 
Q 422 3509 836 4129 
Q 1250 4750 2034 4750 
z
" transform="scale(0.015625)"/>
        <path id="DejaVuSans-2e" d="M 684 794 
L 1344 794 
L 1344 0 
L 684 0 
L 684 794 
z
" transform="scale(0.015625)"/>
        <path id="DejaVuSans-32" d="M 1228 531 
L 3431 531 
L 3431 0 
L 469 0 
L 469 531 
Q 828 903 1448 1529 
Q 2069 2156 2228 2338 
Q 2531 2678 2651 2914 
Q 2772 3150 2772 3378 
Q 2772 3750 2511 3984 
Q 2250 4219 1831 4219 
Q 1534 4219 1204 4116 
Q 875 4013 500 3803 
L 500 4441 
Q 881 4594 1212 4672 
Q 1544 4750 1819 4750 
Q 2544 4750 2975 4387 
Q 3406 4025 3406 3419 
Q 3406 3131 3298 2873 
Q 3191 2616 2906 2266 
Q 2828 2175 2409 1742 
Q 1991 1309 1228 531 
z
" transform="scale(0.015625)"/>
       </defs>
       <use xlink:href="#DejaVuSans-30"/>
       <use xlink:href="#DejaVuSans-2e" x="63.623047"/>
       <use xlink:href="#DejaVuSans-32" x="95.410156"/>
      </g>
     </g>
    </g>
    <g id="xtick_2">
     <g id="line2d_3">
      <path d="M 182.49025 192.24 
L 182.49025 25.92 
" clip-path="url(#pdc35a4ac5a)" style="fill: none; stroke: #ffffff; stroke-linecap: round"/>
     </g>
     <g id="line2d_4">
      <g>
       <use xlink:href="#m0f6f91cee7" x="182.49025" y="192.24" style="fill: #808080; stroke: #808080"/>
      </g>
     </g>
     <g id="text_2">
      <!-- 0.4 -->
      <g style="fill: #262626" transform="translate(173.743532 207.098281) scale(0.11 -0.11)">
       <defs>
        <path id="DejaVuSans-34" d="M 2419 4116 
L 825 1625 
L 2419 1625 
L 2419 4116 
z
M 2253 4666 
L 3047 4666 
L 3047 1625 
L 3713 1625 
L 3713 1100 
L 3047 1100 
L 3047 0 
L 2419 0 
L 2419 1100 
L 313 1100 
L 313 1709 
L 2253 4666 
z
" transform="scale(0.015625)"/>
       </defs>
       <use xlink:href="#DejaVuSans-30"/>
       <use xlink:href="#DejaVuSans-2e" x="63.623047"/>
       <use xlink:href="#DejaVuSans-34" x="95.410156"/>
      </g>
     </g>
    </g>
    <g id="xtick_3">
     <g id="line2d_5">
      <path d="M 251.703535 192.24 
L 251.703535 25.92 
" clip-path="url(#pdc35a4ac5a)" style="fill: none; stroke: #ffffff; stroke-linecap: round"/>
     </g>
     <g id="line2d_6">
      <g>
       <use xlink:href="#m0f6f91cee7" x="251.703535" y="192.24" style="fill: #808080; stroke: #808080"/>
      </g>
     </g>
     <g id="text_3">
      <!-- 0.6 -->
      <g style="fill: #262626" transform="translate(242.956817 207.098281) scale(0.11 -0.11)">
       <defs>
        <path id="DejaVuSans-36" d="M 2113 2584 
Q 1688 2584 1439 2293 
Q 1191 2003 1191 1497 
Q 1191 994 1439 701 
Q 1688 409 2113 409 
Q 2538 409 2786 701 
Q 3034 994 3034 1497 
Q 3034 2003 2786 2293 
Q 2538 2584 2113 2584 
z
M 3366 4563 
L 3366 3988 
Q 3128 4100 2886 4159 
Q 2644 4219 2406 4219 
Q 1781 4219 1451 3797 
Q 1122 3375 1075 2522 
Q 1259 2794 1537 2939 
Q 1816 3084 2150 3084 
Q 2853 3084 3261 2657 
Q 3669 2231 3669 1497 
Q 3669 778 3244 343 
Q 2819 -91 2113 -91 
Q 1303 -91 875 529 
Q 447 1150 447 2328 
Q 447 3434 972 4092 
Q 1497 4750 2381 4750 
Q 2619 4750 2861 4703 
Q 3103 4656 3366 4563 
z
" transform="scale(0.015625)"/>
       </defs>
       <use xlink:href="#DejaVuSans-30"/>
       <use xlink:href="#DejaVuSans-2e" x="63.623047"/>
       <use xlink:href="#DejaVuSans-36" x="95.410156"/>
      </g>
     </g>
    </g>
    <g id="xtick_4">
     <g id="line2d_7">
      <path d="M 320.91682 192.24 
L 320.91682 25.92 
" clip-path="url(#pdc35a4ac5a)" style="fill: none; stroke: #ffffff; stroke-linecap: round"/>
     </g>
     <g id="line2d_8">
      <g>
       <use xlink:href="#m0f6f91cee7" x="320.91682" y="192.24" style="fill: #808080; stroke: #808080"/>
      </g>
     </g>
     <g id="text_4">
      <!-- 0.8 -->
      <g style="fill: #262626" transform="translate(312.170102 207.098281) scale(0.11 -0.11)">
       <defs>
        <path id="DejaVuSans-38" d="M 2034 2216 
Q 1584 2216 1326 1975 
Q 1069 1734 1069 1313 
Q 1069 891 1326 650 
Q 1584 409 2034 409 
Q 2484 409 2743 651 
Q 3003 894 3003 1313 
Q 3003 1734 2745 1975 
Q 2488 2216 2034 2216 
z
M 1403 2484 
Q 997 2584 770 2862 
Q 544 3141 544 3541 
Q 544 4100 942 4425 
Q 1341 4750 2034 4750 
Q 2731 4750 3128 4425 
Q 3525 4100 3525 3541 
Q 3525 3141 3298 2862 
Q 3072 2584 2669 2484 
Q 3125 2378 3379 2068 
Q 3634 1759 3634 1313 
Q 3634 634 3220 271 
Q 2806 -91 2034 -91 
Q 1263 -91 848 271 
Q 434 634 434 1313 
Q 434 1759 690 2068 
Q 947 2378 1403 2484 
z
M 1172 3481 
Q 1172 3119 1398 2916 
Q 1625 2713 2034 2713 
Q 2441 2713 2670 2916 
Q 2900 3119 2900 3481 
Q 2900 3844 2670 4047 
Q 2441 4250 2034 4250 
Q 1625 4250 1398 4047 
Q 1172 3844 1172 3481 
z
" transform="scale(0.015625)"/>
       </defs>
       <use xlink:href="#DejaVuSans-30"/>
       <use xlink:href="#DejaVuSans-2e" x="63.623047"/>
       <use xlink:href="#DejaVuSans-38" x="95.410156"/>
      </g>
     </g>
    </g>
   </g>
   <g id="matplotlib.axis_2"/>
   <g id="PolyCollection_1">
    <defs>
     <path id="m4f378a3d8d" d="M 69.218182 -31.32 
L 69.218182 -32.38784 
L 69.813805 -32.392231 
L 70.409429 -32.396162 
L 71.005052 -32.401342 
L 71.600676 -32.40945 
L 72.1963 -32.425356 
L 72.791923 -32.449745 
L 73.387547 -32.475094 
L 73.98317 -32.50077 
L 74.578794 -32.53126 
L 75.174417 -32.565318 
L 75.770041 -32.598526 
L 76.365664 -32.642233 
L 76.961288 -32.686894 
L 77.556912 -32.734146 
L 78.152535 -32.789043 
L 78.748159 -32.846908 
L 79.343782 -32.909374 
L 79.939406 -32.983541 
L 80.535029 -33.058779 
L 81.130653 -33.14311 
L 81.726276 -33.233943 
L 82.3219 -33.329848 
L 82.917524 -33.429054 
L 83.513147 -33.534591 
L 84.108771 -33.651762 
L 84.704394 -33.774715 
L 85.300018 -33.906781 
L 85.895641 -34.043225 
L 86.491265 -34.185548 
L 87.086888 -34.336903 
L 87.682512 -34.49236 
L 88.278136 -34.656389 
L 88.873759 -34.829117 
L 89.469383 -35.015868 
L 90.065006 -35.205365 
L 90.66063 -35.403507 
L 91.256253 -35.608679 
L 91.851877 -35.822416 
L 92.4475 -36.039628 
L 93.043124 -36.264648 
L 93.638748 -36.495758 
L 94.234371 -36.729205 
L 94.829995 -36.974414 
L 95.425618 -37.221912 
L 96.021242 -37.470823 
L 96.616865 -37.728836 
L 97.212489 -37.98789 
L 97.808112 -38.250545 
L 98.403736 -38.514749 
L 98.99936 -38.786791 
L 99.594983 -39.06907 
L 100.190607 -39.350641 
L 100.78623 -39.630612 
L 101.381854 -39.91694 
L 101.977477 -40.205289 
L 102.573101 -40.493373 
L 103.168724 -40.790697 
L 103.764348 -41.098593 
L 104.359972 -41.401315 
L 104.955595 -41.712962 
L 105.551219 -42.020932 
L 106.146842 -42.343062 
L 106.742466 -42.674652 
L 107.338089 -43.008271 
L 107.933713 -43.345371 
L 108.529336 -43.691085 
L 109.12496 -44.042805 
L 109.720584 -44.404247 
L 110.316207 -44.774549 
L 110.911831 -45.156028 
L 111.507454 -45.542666 
L 112.103078 -45.941005 
L 112.698701 -46.355278 
L 113.294325 -46.776537 
L 113.889948 -47.209544 
L 114.485572 -47.65495 
L 115.081196 -48.116536 
L 115.676819 -48.590029 
L 116.272443 -49.082326 
L 116.868066 -49.592888 
L 117.46369 -50.108815 
L 118.059313 -50.648953 
L 118.654937 -51.203157 
L 119.25056 -51.76785 
L 119.846184 -52.345612 
L 120.441808 -52.944673 
L 121.037431 -53.557482 
L 121.633055 -54.18189 
L 122.228678 -54.820504 
L 122.824302 -55.476435 
L 123.419925 -56.1482 
L 124.015549 -56.832296 
L 124.611172 -57.52803 
L 125.206796 -58.23981 
L 125.802419 -58.952457 
L 126.398043 -59.687416 
L 126.993667 -60.421619 
L 127.58929 -61.177001 
L 128.184914 -61.944572 
L 128.780537 -62.721768 
L 129.376161 -63.497653 
L 129.971784 -64.282094 
L 130.567408 -65.069658 
L 131.163031 -65.876184 
L 131.758655 -66.679448 
L 132.354279 -67.492822 
L 132.949902 -68.30931 
L 133.545526 -69.141255 
L 134.141149 -69.978221 
L 134.736773 -70.809848 
L 135.332396 -71.645785 
L 135.92802 -72.48216 
L 136.523643 -73.316522 
L 137.119267 -74.143157 
L 137.714891 -74.982105 
L 138.310514 -75.826587 
L 138.906138 -76.672038 
L 139.501761 -77.51941 
L 140.097385 -78.369131 
L 140.693008 -79.219411 
L 141.288632 -80.058384 
L 141.884255 -80.894116 
L 142.479879 -81.732289 
L 143.075503 -82.570308 
L 143.671126 -83.408222 
L 144.26675 -84.247573 
L 144.862373 -85.093437 
L 145.457997 -85.921386 
L 146.05362 -86.748435 
L 146.649244 -87.573395 
L 147.244867 -88.409529 
L 147.840491 -89.232354 
L 148.436115 -90.065044 
L 149.031738 -90.879671 
L 149.627362 -91.704796 
L 150.222985 -92.527149 
L 150.818609 -93.354844 
L 151.414232 -94.171368 
L 152.009856 -94.980186 
L 152.605479 -95.79211 
L 153.201103 -96.602788 
L 153.796727 -97.407899 
L 154.39235 -98.20822 
L 154.987974 -99.015143 
L 155.583597 -99.810545 
L 156.179221 -100.606657 
L 156.774844 -101.407674 
L 157.370468 -102.200658 
L 157.966091 -102.985791 
L 158.561715 -103.781269 
L 159.157339 -104.576739 
L 159.752962 -105.355849 
L 160.348586 -106.133617 
L 160.944209 -106.914102 
L 161.539833 -107.696871 
L 162.135456 -108.476147 
L 162.73108 -109.261448 
L 163.326703 -110.035094 
L 163.922327 -110.814978 
L 164.517951 -111.571852 
L 165.113574 -112.341504 
L 165.709198 -113.116244 
L 166.304821 -113.873314 
L 166.900445 -114.643279 
L 167.496068 -115.417568 
L 168.091692 -116.189263 
L 168.687315 -116.946804 
L 169.282939 -117.725103 
L 169.878563 -118.489477 
L 170.474186 -119.25603 
L 171.06981 -120.031076 
L 171.665433 -120.78763 
L 172.261057 -121.55624 
L 172.85668 -122.327263 
L 173.452304 -123.114721 
L 174.047927 -123.911307 
L 174.643551 -124.704638 
L 175.239175 -125.514686 
L 175.834798 -126.326997 
L 176.430422 -127.16131 
L 177.026045 -127.989158 
L 177.621669 -128.833563 
L 178.217292 -129.682408 
L 178.812916 -130.544428 
L 179.408539 -131.408665 
L 180.004163 -132.279412 
L 180.599787 -133.168216 
L 181.19541 -134.073394 
L 181.791034 -134.96238 
L 182.386657 -135.88349 
L 182.982281 -136.808913 
L 183.577904 -137.760816 
L 184.173528 -138.719552 
L 184.769151 -139.687841 
L 185.364775 -140.64519 
L 185.960399 -141.620752 
L 186.556022 -142.593944 
L 187.151646 -143.580599 
L 187.747269 -144.55082 
L 188.342893 -145.526446 
L 188.938516 -146.501677 
L 189.53414 -147.469304 
L 190.129763 -148.427198 
L 190.725387 -149.38036 
L 191.32101 -150.326094 
L 191.916634 -151.257784 
L 192.512258 -152.160148 
L 193.107881 -153.056811 
L 193.703505 -153.949236 
L 194.299128 -154.813969 
L 194.894752 -155.66066 
L 195.490375 -156.492196 
L 196.085999 -157.267308 
L 196.681622 -158.062372 
L 197.277246 -158.830605 
L 197.87287 -159.557144 
L 198.468493 -160.260004 
L 199.064117 -160.933953 
L 199.65974 -161.609069 
L 200.255364 -162.252172 
L 200.850987 -162.867002 
L 201.446611 -163.469715 
L 202.042234 -164.049737 
L 202.637858 -164.587625 
L 203.233482 -165.109064 
L 203.829105 -165.616235 
L 204.424729 -166.117567 
L 205.020352 -166.599899 
L 205.615976 -167.067085 
L 206.211599 -167.532226 
L 206.807223 -167.987946 
L 207.402846 -168.417393 
L 207.99847 -168.83098 
L 208.594094 -169.236299 
L 209.189717 -169.647243 
L 209.785341 -170.035533 
L 210.380964 -170.443483 
L 210.976588 -170.821599 
L 211.572211 -171.206843 
L 212.167835 -171.567919 
L 212.763458 -171.938789 
L 213.359082 -172.296188 
L 213.954706 -172.671672 
L 214.550329 -173.034895 
L 215.145953 -173.401679 
L 215.741576 -173.764812 
L 216.3372 -174.113811 
L 216.932823 -174.488619 
L 217.528447 -174.849834 
L 218.12407 -175.21373 
L 218.719694 -175.565722 
L 219.315318 -175.921207 
L 219.910941 -176.271376 
L 220.506565 -176.617685 
L 221.102188 -176.967236 
L 221.697812 -177.302064 
L 222.293435 -177.655231 
L 222.889059 -177.995044 
L 223.484682 -178.320931 
L 224.080306 -178.640896 
L 224.67593 -178.969198 
L 225.271553 -179.279958 
L 225.867177 -179.593117 
L 226.4628 -179.880824 
L 227.058424 -180.161782 
L 227.654047 -180.428678 
L 228.249671 -180.70293 
L 228.845294 -180.94722 
L 229.440918 -181.197695 
L 230.036542 -181.417673 
L 230.632165 -181.634467 
L 231.227789 -181.833634 
L 231.823412 -181.997037 
L 232.419036 -182.132997 
L 233.014659 -182.247996 
L 233.610283 -182.358777 
L 234.205906 -182.419492 
L 234.80153 -182.47764 
L 235.397154 -182.52 
L 235.992777 -182.513905 
L 236.588401 -182.489016 
L 237.184024 -182.43761 
L 237.779648 -182.359153 
L 238.375271 -182.239213 
L 238.970895 -182.090648 
L 239.566518 -181.922777 
L 240.162142 -181.708665 
L 240.757766 -181.496417 
L 241.353389 -181.247844 
L 241.949013 -180.986458 
L 242.544636 -180.704689 
L 243.14026 -180.404363 
L 243.735883 -180.099854 
L 244.331507 -179.777936 
L 244.92713 -179.444147 
L 245.522754 -179.112667 
L 246.118378 -178.756365 
L 246.714001 -178.422994 
L 247.309625 -178.076854 
L 247.905248 -177.730021 
L 248.500872 -177.364859 
L 249.096495 -177.029634 
L 249.692119 -176.697346 
L 250.287742 -176.388561 
L 250.883366 -176.08288 
L 251.47899 -175.80067 
L 252.074613 -175.531043 
L 252.670237 -175.280362 
L 253.26586 -175.044922 
L 253.861484 -174.822659 
L 254.457107 -174.616887 
L 255.052731 -174.433204 
L 255.648354 -174.252251 
L 256.243978 -174.086106 
L 256.839601 -173.933634 
L 257.435225 -173.782582 
L 258.030849 -173.634685 
L 258.626472 -173.481847 
L 259.222096 -173.354323 
L 259.817719 -173.211874 
L 260.413343 -173.056289 
L 261.008966 -172.907617 
L 261.60459 -172.715227 
L 262.200213 -172.517462 
L 262.795837 -172.325327 
L 263.391461 -172.10351 
L 263.987084 -171.867733 
L 264.582708 -171.584462 
L 265.178331 -171.285935 
L 265.773955 -170.95732 
L 266.369578 -170.595582 
L 266.965202 -170.208309 
L 267.560825 -169.795796 
L 268.156449 -169.338063 
L 268.752073 -168.850641 
L 269.347696 -168.317962 
L 269.94332 -167.744945 
L 270.538943 -167.151621 
L 271.134567 -166.520194 
L 271.73019 -165.8679 
L 272.325814 -165.183602 
L 272.921437 -164.482013 
L 273.517061 -163.741326 
L 274.112685 -162.953958 
L 274.708308 -162.157173 
L 275.303932 -161.331792 
L 275.899555 -160.50966 
L 276.495179 -159.646151 
L 277.090802 -158.776032 
L 277.686426 -157.887819 
L 278.282049 -156.975111 
L 278.877673 -156.041825 
L 279.473297 -155.099947 
L 280.06892 -154.137774 
L 280.664544 -153.163172 
L 281.260167 -152.20841 
L 281.855791 -151.213129 
L 282.451414 -150.225188 
L 283.047038 -149.217959 
L 283.642661 -148.21787 
L 284.238285 -147.197936 
L 284.833909 -146.167459 
L 285.429532 -145.136189 
L 286.025156 -144.095525 
L 286.620779 -143.042867 
L 287.216403 -141.96654 
L 287.812026 -140.899506 
L 288.40765 -139.814001 
L 289.003273 -138.725653 
L 289.598897 -137.619097 
L 290.194521 -136.509135 
L 290.790144 -135.375257 
L 291.385768 -134.23506 
L 291.981391 -133.094494 
L 292.577015 -131.935594 
L 293.172638 -130.761057 
L 293.768262 -129.58421 
L 294.363885 -128.385759 
L 294.959509 -127.187776 
L 295.555133 -125.962994 
L 296.150756 -124.757133 
L 296.74638 -123.536768 
L 297.342003 -122.31174 
L 297.937627 -121.079897 
L 298.53325 -119.829322 
L 299.128874 -118.595216 
L 299.724497 -117.342355 
L 300.320121 -116.082525 
L 300.915745 -114.829177 
L 301.511368 -113.58362 
L 302.106992 -112.336429 
L 302.702615 -111.08968 
L 303.298239 -109.8509 
L 303.893862 -108.61675 
L 304.489486 -107.396575 
L 305.085109 -106.190956 
L 305.680733 -104.976899 
L 306.276357 -103.782269 
L 306.87198 -102.60709 
L 307.467604 -101.435589 
L 308.063227 -100.29582 
L 308.658851 -99.156085 
L 309.254474 -98.044201 
L 309.850098 -96.957225 
L 310.445721 -95.877758 
L 311.041345 -94.828656 
L 311.636969 -93.799661 
L 312.232592 -92.791551 
L 312.828216 -91.809519 
L 313.423839 -90.855804 
L 314.019463 -89.912962 
L 314.615086 -89.000301 
L 315.21071 -88.105678 
L 315.806333 -87.231963 
L 316.401957 -86.378654 
L 316.997581 -85.537554 
L 317.593204 -84.724375 
L 318.188828 -83.923453 
L 318.784451 -83.140224 
L 319.380075 -82.372277 
L 319.975698 -81.608745 
L 320.571322 -80.871118 
L 321.166945 -80.128087 
L 321.762569 -79.398764 
L 322.358192 -78.681656 
L 322.953816 -77.957849 
L 323.54944 -77.235632 
L 324.145063 -76.507461 
L 324.740687 -75.785663 
L 325.33631 -75.062978 
L 325.931934 -74.339 
L 326.527557 -73.604898 
L 327.123181 -72.85709 
L 327.718804 -72.101235 
L 328.314428 -71.338269 
L 328.910052 -70.563299 
L 329.505675 -69.786313 
L 330.101299 -68.996917 
L 330.696922 -68.204504 
L 331.292546 -67.393718 
L 331.888169 -66.571974 
L 332.483793 -65.740454 
L 333.079416 -64.907423 
L 333.67504 -64.062408 
L 334.270664 -63.210237 
L 334.866287 -62.36566 
L 335.461911 -61.506308 
L 336.057534 -60.650021 
L 336.653158 -59.784498 
L 337.248781 -58.931339 
L 337.844405 -58.070002 
L 338.440028 -57.2227 
L 339.035652 -56.385054 
L 339.631276 -55.546399 
L 340.226899 -54.721216 
L 340.822523 -53.900073 
L 341.418146 -53.100166 
L 342.01377 -52.309981 
L 342.609393 -51.532552 
L 343.205017 -50.774818 
L 343.80064 -50.029862 
L 344.396264 -49.299208 
L 344.991888 -48.592858 
L 345.587511 -47.907584 
L 346.183135 -47.232003 
L 346.778758 -46.58266 
L 347.374382 -45.947554 
L 347.970005 -45.3381 
L 348.565629 -44.746393 
L 349.161252 -44.178792 
L 349.756876 -43.634446 
L 350.3525 -43.109888 
L 350.948123 -42.598068 
L 351.543747 -42.113042 
L 352.13937 -41.650223 
L 352.734994 -41.201843 
L 353.330617 -40.775556 
L 353.926241 -40.362886 
L 354.521864 -39.971646 
L 355.117488 -39.601062 
L 355.713112 -39.244075 
L 356.308735 -38.906233 
L 356.904359 -38.576671 
L 357.499982 -38.266557 
L 358.095606 -37.968688 
L 358.691229 -37.685901 
L 359.286853 -37.423387 
L 359.882476 -37.170929 
L 360.4781 -36.934417 
L 361.073724 -36.700185 
L 361.669347 -36.486955 
L 362.264971 -36.291491 
L 362.860594 -36.101202 
L 363.456218 -35.925023 
L 364.051841 -35.754658 
L 364.647465 -35.599601 
L 365.243088 -35.457953 
L 365.838712 -35.323008 
L 366.434336 -35.200698 
L 367.029959 -35.083456 
L 367.625583 -34.980647 
L 368.221206 -34.882424 
L 368.81683 -34.798162 
L 369.412453 -34.718587 
L 370.008077 -34.651348 
L 370.6037 -34.596379 
L 371.199324 -34.54908 
L 371.794948 -34.51232 
L 372.390571 -34.484385 
L 372.986195 -34.46903 
L 373.581818 -34.463459 
L 373.581818 -31.32 
L 373.581818 -31.32 
L 372.986195 -31.32 
L 372.390571 -31.32 
L 371.794948 -31.32 
L 371.199324 -31.32 
L 370.6037 -31.32 
L 370.008077 -31.32 
L 369.412453 -31.32 
L 368.81683 -31.32 
L 368.221206 -31.32 
L 367.625583 -31.32 
L 367.029959 -31.32 
L 366.434336 -31.32 
L 365.838712 -31.32 
L 365.243088 -31.32 
L 364.647465 -31.32 
L 364.051841 -31.32 
L 363.456218 -31.32 
L 362.860594 -31.32 
L 362.264971 -31.32 
L 361.669347 -31.32 
L 361.073724 -31.32 
L 360.4781 -31.32 
L 359.882476 -31.32 
L 359.286853 -31.32 
L 358.691229 -31.32 
L 358.095606 -31.32 
L 357.499982 -31.32 
L 356.904359 -31.32 
L 356.308735 -31.32 
L 355.713112 -31.32 
L 355.117488 -31.32 
L 354.521864 -31.32 
L 353.926241 -31.32 
L 353.330617 -31.32 
L 352.734994 -31.32 
L 352.13937 -31.32 
L 351.543747 -31.32 
L 350.948123 -31.32 
L 350.3525 -31.32 
L 349.756876 -31.32 
L 349.161252 -31.32 
L 348.565629 -31.32 
L 347.970005 -31.32 
L 347.374382 -31.32 
L 346.778758 -31.32 
L 346.183135 -31.32 
L 345.587511 -31.32 
L 344.991888 -31.32 
L 344.396264 -31.32 
L 343.80064 -31.32 
L 343.205017 -31.32 
L 342.609393 -31.32 
L 342.01377 -31.32 
L 341.418146 -31.32 
L 340.822523 -31.32 
L 340.226899 -31.32 
L 339.631276 -31.32 
L 339.035652 -31.32 
L 338.440028 -31.32 
L 337.844405 -31.32 
L 337.248781 -31.32 
L 336.653158 -31.32 
L 336.057534 -31.32 
L 335.461911 -31.32 
L 334.866287 -31.32 
L 334.270664 -31.32 
L 333.67504 -31.32 
L 333.079416 -31.32 
L 332.483793 -31.32 
L 331.888169 -31.32 
L 331.292546 -31.32 
L 330.696922 -31.32 
L 330.101299 -31.32 
L 329.505675 -31.32 
L 328.910052 -31.32 
L 328.314428 -31.32 
L 327.718804 -31.32 
L 327.123181 -31.32 
L 326.527557 -31.32 
L 325.931934 -31.32 
L 325.33631 -31.32 
L 324.740687 -31.32 
L 324.145063 -31.32 
L 323.54944 -31.32 
L 322.953816 -31.32 
L 322.358192 -31.32 
L 321.762569 -31.32 
L 321.166945 -31.32 
L 320.571322 -31.32 
L 319.975698 -31.32 
L 319.380075 -31.32 
L 318.784451 -31.32 
L 318.188828 -31.32 
L 317.593204 -31.32 
L 316.997581 -31.32 
L 316.401957 -31.32 
L 315.806333 -31.32 
L 315.21071 -31.32 
L 314.615086 -31.32 
L 314.019463 -31.32 
L 313.423839 -31.32 
L 312.828216 -31.32 
L 312.232592 -31.32 
L 311.636969 -31.32 
L 311.041345 -31.32 
L 310.445721 -31.32 
L 309.850098 -31.32 
L 309.254474 -31.32 
L 308.658851 -31.32 
L 308.063227 -31.32 
L 307.467604 -31.32 
L 306.87198 -31.32 
L 306.276357 -31.32 
L 305.680733 -31.32 
L 305.085109 -31.32 
L 304.489486 -31.32 
L 303.893862 -31.32 
L 303.298239 -31.32 
L 302.702615 -31.32 
L 302.106992 -31.32 
L 301.511368 -31.32 
L 300.915745 -31.32 
L 300.320121 -31.32 
L 299.724497 -31.32 
L 299.128874 -31.32 
L 298.53325 -31.32 
L 297.937627 -31.32 
L 297.342003 -31.32 
L 296.74638 -31.32 
L 296.150756 -31.32 
L 295.555133 -31.32 
L 294.959509 -31.32 
L 294.363885 -31.32 
L 293.768262 -31.32 
L 293.172638 -31.32 
L 292.577015 -31.32 
L 291.981391 -31.32 
L 291.385768 -31.32 
L 290.790144 -31.32 
L 290.194521 -31.32 
L 289.598897 -31.32 
L 289.003273 -31.32 
L 288.40765 -31.32 
L 287.812026 -31.32 
L 287.216403 -31.32 
L 286.620779 -31.32 
L 286.025156 -31.32 
L 285.429532 -31.32 
L 284.833909 -31.32 
L 284.238285 -31.32 
L 283.642661 -31.32 
L 283.047038 -31.32 
L 282.451414 -31.32 
L 281.855791 -31.32 
L 281.260167 -31.32 
L 280.664544 -31.32 
L 280.06892 -31.32 
L 279.473297 -31.32 
L 278.877673 -31.32 
L 278.282049 -31.32 
L 277.686426 -31.32 
L 277.090802 -31.32 
L 276.495179 -31.32 
L 275.899555 -31.32 
L 275.303932 -31.32 
L 274.708308 -31.32 
L 274.112685 -31.32 
L 273.517061 -31.32 
L 272.921437 -31.32 
L 272.325814 -31.32 
L 271.73019 -31.32 
L 271.134567 -31.32 
L 270.538943 -31.32 
L 269.94332 -31.32 
L 269.347696 -31.32 
L 268.752073 -31.32 
L 268.156449 -31.32 
L 267.560825 -31.32 
L 266.965202 -31.32 
L 266.369578 -31.32 
L 265.773955 -31.32 
L 265.178331 -31.32 
L 264.582708 -31.32 
L 263.987084 -31.32 
L 263.391461 -31.32 
L 262.795837 -31.32 
L 262.200213 -31.32 
L 261.60459 -31.32 
L 261.008966 -31.32 
L 260.413343 -31.32 
L 259.817719 -31.32 
L 259.222096 -31.32 
L 258.626472 -31.32 
L 258.030849 -31.32 
L 257.435225 -31.32 
L 256.839601 -31.32 
L 256.243978 -31.32 
L 255.648354 -31.32 
L 255.052731 -31.32 
L 254.457107 -31.32 
L 253.861484 -31.32 
L 253.26586 -31.32 
L 252.670237 -31.32 
L 252.074613 -31.32 
L 251.47899 -31.32 
L 250.883366 -31.32 
L 250.287742 -31.32 
L 249.692119 -31.32 
L 249.096495 -31.32 
L 248.500872 -31.32 
L 247.905248 -31.32 
L 247.309625 -31.32 
L 246.714001 -31.32 
L 246.118378 -31.32 
L 245.522754 -31.32 
L 244.92713 -31.32 
L 244.331507 -31.32 
L 243.735883 -31.32 
L 243.14026 -31.32 
L 242.544636 -31.32 
L 241.949013 -31.32 
L 241.353389 -31.32 
L 240.757766 -31.32 
L 240.162142 -31.32 
L 239.566518 -31.32 
L 238.970895 -31.32 
L 238.375271 -31.32 
L 237.779648 -31.32 
L 237.184024 -31.32 
L 236.588401 -31.32 
L 235.992777 -31.32 
L 235.397154 -31.32 
L 234.80153 -31.32 
L 234.205906 -31.32 
L 233.610283 -31.32 
L 233.014659 -31.32 
L 232.419036 -31.32 
L 231.823412 -31.32 
L 231.227789 -31.32 
L 230.632165 -31.32 
L 230.036542 -31.32 
L 229.440918 -31.32 
L 228.845294 -31.32 
L 228.249671 -31.32 
L 227.654047 -31.32 
L 227.058424 -31.32 
L 226.4628 -31.32 
L 225.867177 -31.32 
L 225.271553 -31.32 
L 224.67593 -31.32 
L 224.080306 -31.32 
L 223.484682 -31.32 
L 222.889059 -31.32 
L 222.293435 -31.32 
L 221.697812 -31.32 
L 221.102188 -31.32 
L 220.506565 -31.32 
L 219.910941 -31.32 
L 219.315318 -31.32 
L 218.719694 -31.32 
L 218.12407 -31.32 
L 217.528447 -31.32 
L 216.932823 -31.32 
L 216.3372 -31.32 
L 215.741576 -31.32 
L 215.145953 -31.32 
L 214.550329 -31.32 
L 213.954706 -31.32 
L 213.359082 -31.32 
L 212.763458 -31.32 
L 212.167835 -31.32 
L 211.572211 -31.32 
L 210.976588 -31.32 
L 210.380964 -31.32 
L 209.785341 -31.32 
L 209.189717 -31.32 
L 208.594094 -31.32 
L 207.99847 -31.32 
L 207.402846 -31.32 
L 206.807223 -31.32 
L 206.211599 -31.32 
L 205.615976 -31.32 
L 205.020352 -31.32 
L 204.424729 -31.32 
L 203.829105 -31.32 
L 203.233482 -31.32 
L 202.637858 -31.32 
L 202.042234 -31.32 
L 201.446611 -31.32 
L 200.850987 -31.32 
L 200.255364 -31.32 
L 199.65974 -31.32 
L 199.064117 -31.32 
L 198.468493 -31.32 
L 197.87287 -31.32 
L 197.277246 -31.32 
L 196.681622 -31.32 
L 196.085999 -31.32 
L 195.490375 -31.32 
L 194.894752 -31.32 
L 194.299128 -31.32 
L 193.703505 -31.32 
L 193.107881 -31.32 
L 192.512258 -31.32 
L 191.916634 -31.32 
L 191.32101 -31.32 
L 190.725387 -31.32 
L 190.129763 -31.32 
L 189.53414 -31.32 
L 188.938516 -31.32 
L 188.342893 -31.32 
L 187.747269 -31.32 
L 187.151646 -31.32 
L 186.556022 -31.32 
L 185.960399 -31.32 
L 185.364775 -31.32 
L 184.769151 -31.32 
L 184.173528 -31.32 
L 183.577904 -31.32 
L 182.982281 -31.32 
L 182.386657 -31.32 
L 181.791034 -31.32 
L 181.19541 -31.32 
L 180.599787 -31.32 
L 180.004163 -31.32 
L 179.408539 -31.32 
L 178.812916 -31.32 
L 178.217292 -31.32 
L 177.621669 -31.32 
L 177.026045 -31.32 
L 176.430422 -31.32 
L 175.834798 -31.32 
L 175.239175 -31.32 
L 174.643551 -31.32 
L 174.047927 -31.32 
L 173.452304 -31.32 
L 172.85668 -31.32 
L 172.261057 -31.32 
L 171.665433 -31.32 
L 171.06981 -31.32 
L 170.474186 -31.32 
L 169.878563 -31.32 
L 169.282939 -31.32 
L 168.687315 -31.32 
L 168.091692 -31.32 
L 167.496068 -31.32 
L 166.900445 -31.32 
L 166.304821 -31.32 
L 165.709198 -31.32 
L 165.113574 -31.32 
L 164.517951 -31.32 
L 163.922327 -31.32 
L 163.326703 -31.32 
L 162.73108 -31.32 
L 162.135456 -31.32 
L 161.539833 -31.32 
L 160.944209 -31.32 
L 160.348586 -31.32 
L 159.752962 -31.32 
L 159.157339 -31.32 
L 158.561715 -31.32 
L 157.966091 -31.32 
L 157.370468 -31.32 
L 156.774844 -31.32 
L 156.179221 -31.32 
L 155.583597 -31.32 
L 154.987974 -31.32 
L 154.39235 -31.32 
L 153.796727 -31.32 
L 153.201103 -31.32 
L 152.605479 -31.32 
L 152.009856 -31.32 
L 151.414232 -31.32 
L 150.818609 -31.32 
L 150.222985 -31.32 
L 149.627362 -31.32 
L 149.031738 -31.32 
L 148.436115 -31.32 
L 147.840491 -31.32 
L 147.244867 -31.32 
L 146.649244 -31.32 
L 146.05362 -31.32 
L 145.457997 -31.32 
L 144.862373 -31.32 
L 144.26675 -31.32 
L 143.671126 -31.32 
L 143.075503 -31.32 
L 142.479879 -31.32 
L 141.884255 -31.32 
L 141.288632 -31.32 
L 140.693008 -31.32 
L 140.097385 -31.32 
L 139.501761 -31.32 
L 138.906138 -31.32 
L 138.310514 -31.32 
L 137.714891 -31.32 
L 137.119267 -31.32 
L 136.523643 -31.32 
L 135.92802 -31.32 
L 135.332396 -31.32 
L 134.736773 -31.32 
L 134.141149 -31.32 
L 133.545526 -31.32 
L 132.949902 -31.32 
L 132.354279 -31.32 
L 131.758655 -31.32 
L 131.163031 -31.32 
L 130.567408 -31.32 
L 129.971784 -31.32 
L 129.376161 -31.32 
L 128.780537 -31.32 
L 128.184914 -31.32 
L 127.58929 -31.32 
L 126.993667 -31.32 
L 126.398043 -31.32 
L 125.802419 -31.32 
L 125.206796 -31.32 
L 124.611172 -31.32 
L 124.015549 -31.32 
L 123.419925 -31.32 
L 122.824302 -31.32 
L 122.228678 -31.32 
L 121.633055 -31.32 
L 121.037431 -31.32 
L 120.441808 -31.32 
L 119.846184 -31.32 
L 119.25056 -31.32 
L 118.654937 -31.32 
L 118.059313 -31.32 
L 117.46369 -31.32 
L 116.868066 -31.32 
L 116.272443 -31.32 
L 115.676819 -31.32 
L 115.081196 -31.32 
L 114.485572 -31.32 
L 113.889948 -31.32 
L 113.294325 -31.32 
L 112.698701 -31.32 
L 112.103078 -31.32 
L 111.507454 -31.32 
L 110.911831 -31.32 
L 110.316207 -31.32 
L 109.720584 -31.32 
L 109.12496 -31.32 
L 108.529336 -31.32 
L 107.933713 -31.32 
L 107.338089 -31.32 
L 106.742466 -31.32 
L 106.146842 -31.32 
L 105.551219 -31.32 
L 104.955595 -31.32 
L 104.359972 -31.32 
L 103.764348 -31.32 
L 103.168724 -31.32 
L 102.573101 -31.32 
L 101.977477 -31.32 
L 101.381854 -31.32 
L 100.78623 -31.32 
L 100.190607 -31.32 
L 99.594983 -31.32 
L 98.99936 -31.32 
L 98.403736 -31.32 
L 97.808112 -31.32 
L 97.212489 -31.32 
L 96.616865 -31.32 
L 96.021242 -31.32 
L 95.425618 -31.32 
L 94.829995 -31.32 
L 94.234371 -31.32 
L 93.638748 -31.32 
L 93.043124 -31.32 
L 92.4475 -31.32 
L 91.851877 -31.32 
L 91.256253 -31.32 
L 90.66063 -31.32 
L 90.065006 -31.32 
L 89.469383 -31.32 
L 88.873759 -31.32 
L 88.278136 -31.32 
L 87.682512 -31.32 
L 87.086888 -31.32 
L 86.491265 -31.32 
L 85.895641 -31.32 
L 85.300018 -31.32 
L 84.704394 -31.32 
L 84.108771 -31.32 
L 83.513147 -31.32 
L 82.917524 -31.32 
L 82.3219 -31.32 
L 81.726276 -31.32 
L 81.130653 -31.32 
L 80.535029 -31.32 
L 79.939406 -31.32 
L 79.343782 -31.32 
L 78.748159 -31.32 
L 78.152535 -31.32 
L 77.556912 -31.32 
L 76.961288 -31.32 
L 76.365664 -31.32 
L 75.770041 -31.32 
L 75.174417 -31.32 
L 74.578794 -31.32 
L 73.98317 -31.32 
L 73.387547 -31.32 
L 72.791923 -31.32 
L 72.1963 -31.32 
L 71.600676 -31.32 
L 71.005052 -31.32 
L 70.409429 -31.32 
L 69.813805 -31.32 
L 69.218182 -31.32 
z
" style="stroke: #4c72b0; stroke-opacity: 0"/>
    </defs>
    <g clip-path="url(#pdc35a4ac5a)">
     <use xlink:href="#m4f378a3d8d" x="0" y="216" style="fill: #4c72b0; fill-opacity: 0; stroke: #4c72b0; stroke-opacity: 0"/>
    </g>
   </g>
   <g id="line2d_9">
    <path d="M 69.218182 183.61216 
L 74.578794 183.46874 
L 79.343782 183.090626 
L 83.513147 182.465409 
L 87.086888 181.663097 
L 90.065006 180.794635 
L 93.638748 179.504242 
L 97.212489 178.01211 
L 101.977477 175.794711 
L 106.146842 173.656938 
L 110.316207 171.225451 
L 113.294325 169.223463 
L 115.676819 167.409971 
L 118.059313 165.351047 
L 121.037431 162.442518 
L 124.015549 159.167704 
L 127.58929 154.822999 
L 132.354279 148.507178 
L 138.310514 140.173413 
L 149.627362 124.295204 
L 156.774844 114.592326 
L 165.113574 103.658496 
L 177.026045 88.010842 
L 181.19541 81.926606 
L 183.577904 78.239184 
L 194.299128 61.186031 
L 196.681622 57.937628 
L 198.468493 55.739996 
L 201.446611 52.530285 
L 203.233482 50.890936 
L 206.211599 48.467774 
L 208.594094 46.763701 
L 212.167835 44.432081 
L 219.910941 39.728624 
L 225.271553 36.720042 
L 227.654047 35.571322 
L 230.036542 34.582327 
L 231.823412 34.002963 
L 233.610283 33.641223 
L 235.992777 33.486095 
L 237.779648 33.640847 
L 239.566518 34.077223 
L 241.949013 35.013542 
L 244.331507 36.222064 
L 252.074613 40.468957 
L 254.457107 41.383113 
L 257.435225 42.217418 
L 262.200213 43.482538 
L 263.987084 44.132267 
L 265.773955 45.04268 
L 267.560825 46.204204 
L 269.347696 47.682038 
L 271.134567 49.479806 
L 272.921437 51.517987 
L 274.708308 53.842827 
L 277.686426 58.112181 
L 281.260167 63.79159 
L 286.620779 72.957133 
L 291.385768 81.76494 
L 294.959509 88.812224 
L 309.254474 117.955799 
L 312.232592 123.208449 
L 314.615086 126.999699 
L 317.593204 131.275625 
L 320.571322 135.128882 
L 331.292546 148.606282 
L 336.057534 155.349979 
L 340.822523 162.099927 
L 343.80064 165.970138 
L 346.183135 168.767997 
L 348.565629 171.253607 
L 350.948123 173.401932 
L 353.330617 175.224444 
L 355.713112 176.755925 
L 358.095606 178.031312 
L 360.4781 179.065583 
L 362.860594 179.898798 
L 365.838712 180.676992 
L 368.81683 181.201838 
L 371.794948 181.48768 
L 373.581818 181.536541 
L 373.581818 181.536541 
" clip-path="url(#pdc35a4ac5a)" style="fill: none; stroke: #4c72b0; stroke-width: 1.5; stroke-linecap: round"/>
   </g>
   <g id="line2d_10">
    <path d="M 135.505891 181.5048 
L 328.609244 181.5048 
" clip-path="url(#pdc35a4ac5a)" style="fill: none; stroke: #1a1a1a; stroke-width: 3"/>
   </g>
   <g id="patch_3">
    <path d="M 54 192.24 
L 388.8 192.24 
" style="fill: none; stroke: #808080; stroke-width: 1.25; stroke-linejoin: miter; stroke-linecap: square"/>
   </g>
   <g id="text_5">
    <!-- 0.26  -->
    <g style="fill: #262626" transform="translate(104.973391 173.5668) scale(0.12 -0.12)">
     <defs>
      <path id="DejaVuSans-20" transform="scale(0.015625)"/>
     </defs>
     <use xlink:href="#DejaVuSans-30"/>
     <use xlink:href="#DejaVuSans-2e" x="63.623047"/>
     <use xlink:href="#DejaVuSans-32" x="95.410156"/>
     <use xlink:href="#DejaVuSans-36" x="159.033203"/>
     <use xlink:href="#DejaVuSans-20" x="222.65625"/>
    </g>
   </g>
   <g id="text_6">
    <!--  0.82 -->
    <g style="fill: #262626" transform="translate(328.609244 173.5668) scale(0.12 -0.12)">
     <use xlink:href="#DejaVuSans-20"/>
     <use xlink:href="#DejaVuSans-30" x="31.787109"/>
     <use xlink:href="#DejaVuSans-2e" x="95.410156"/>
     <use xlink:href="#DejaVuSans-38" x="127.197266"/>
     <use xlink:href="#DejaVuSans-32" x="190.820312"/>
    </g>
   </g>
   <g id="text_7">
    <!-- 94% HDI -->
    <g style="fill: #262626" transform="translate(205.912567 137.052) scale(0.12 -0.12)">
     <defs>
      <path id="DejaVuSans-39" d="M 703 97 
L 703 672 
Q 941 559 1184 500 
Q 1428 441 1663 441 
Q 2288 441 2617 861 
Q 2947 1281 2994 2138 
Q 2813 1869 2534 1725 
Q 2256 1581 1919 1581 
Q 1219 1581 811 2004 
Q 403 2428 403 3163 
Q 403 3881 828 4315 
Q 1253 4750 1959 4750 
Q 2769 4750 3195 4129 
Q 3622 3509 3622 2328 
Q 3622 1225 3098 567 
Q 2575 -91 1691 -91 
Q 1453 -91 1209 -44 
Q 966 3 703 97 
z
M 1959 2075 
Q 2384 2075 2632 2365 
Q 2881 2656 2881 3163 
Q 2881 3666 2632 3958 
Q 2384 4250 1959 4250 
Q 1534 4250 1286 3958 
Q 1038 3666 1038 3163 
Q 1038 2656 1286 2365 
Q 1534 2075 1959 2075 
z
" transform="scale(0.015625)"/>
      <path id="DejaVuSans-25" d="M 4653 2053 
Q 4381 2053 4226 1822 
Q 4072 1591 4072 1178 
Q 4072 772 4226 539 
Q 4381 306 4653 306 
Q 4919 306 5073 539 
Q 5228 772 5228 1178 
Q 5228 1588 5073 1820 
Q 4919 2053 4653 2053 
z
M 4653 2450 
Q 5147 2450 5437 2106 
Q 5728 1763 5728 1178 
Q 5728 594 5436 251 
Q 5144 -91 4653 -91 
Q 4153 -91 3862 251 
Q 3572 594 3572 1178 
Q 3572 1766 3864 2108 
Q 4156 2450 4653 2450 
z
M 1428 4353 
Q 1159 4353 1004 4120 
Q 850 3888 850 3481 
Q 850 3069 1003 2837 
Q 1156 2606 1428 2606 
Q 1700 2606 1854 2837 
Q 2009 3069 2009 3481 
Q 2009 3884 1853 4118 
Q 1697 4353 1428 4353 
z
M 4250 4750 
L 4750 4750 
L 1831 -91 
L 1331 -91 
L 4250 4750 
z
M 1428 4750 
Q 1922 4750 2215 4408 
Q 2509 4066 2509 3481 
Q 2509 2891 2217 2550 
Q 1925 2209 1428 2209 
Q 931 2209 642 2551 
Q 353 2894 353 3481 
Q 353 4063 643 4406 
Q 934 4750 1428 4750 
z
" transform="scale(0.015625)"/>
      <path id="DejaVuSans-48" d="M 628 4666 
L 1259 4666 
L 1259 2753 
L 3553 2753 
L 3553 4666 
L 4184 4666 
L 4184 0 
L 3553 0 
L 3553 2222 
L 1259 2222 
L 1259 0 
L 628 0 
L 628 4666 
z
" transform="scale(0.015625)"/>
      <path id="DejaVuSans-44" d="M 1259 4147 
L 1259 519 
L 2022 519 
Q 2988 519 3436 956 
Q 3884 1394 3884 2338 
Q 3884 3275 3436 3711 
Q 2988 4147 2022 4147 
L 1259 4147 
z
M 628 4666 
L 1925 4666 
Q 3281 4666 3915 4102 
Q 4550 3538 4550 2338 
Q 4550 1131 3912 565 
Q 3275 0 1925 0 
L 628 0 
L 628 4666 
z
" transform="scale(0.015625)"/>
      <path id="DejaVuSans-49" d="M 628 4666 
L 1259 4666 
L 1259 0 
L 628 0 
L 628 4666 
z
" transform="scale(0.015625)"/>
     </defs>
     <use xlink:href="#DejaVuSans-39"/>
     <use xlink:href="#DejaVuSans-34" x="63.623047"/>
     <use xlink:href="#DejaVuSans-25" x="127.246094"/>
     <use xlink:href="#DejaVuSans-20" x="222.265625"/>
     <use xlink:href="#DejaVuSans-48" x="254.052734"/>
     <use xlink:href="#DejaVuSans-44" x="329.248047"/>
     <use xlink:href="#DejaVuSans-49" x="406.25"/>
    </g>
   </g>
   <g id="text_8">
    <!-- mean=0.54 -->
    <g style="fill: #262626" transform="translate(196.76098 57.672) scale(0.12 -0.12)">
     <defs>
      <path id="DejaVuSans-6d" d="M 3328 2828 
Q 3544 3216 3844 3400 
Q 4144 3584 4550 3584 
Q 5097 3584 5394 3201 
Q 5691 2819 5691 2113 
L 5691 0 
L 5113 0 
L 5113 2094 
Q 5113 2597 4934 2840 
Q 4756 3084 4391 3084 
Q 3944 3084 3684 2787 
Q 3425 2491 3425 1978 
L 3425 0 
L 2847 0 
L 2847 2094 
Q 2847 2600 2669 2842 
Q 2491 3084 2119 3084 
Q 1678 3084 1418 2786 
Q 1159 2488 1159 1978 
L 1159 0 
L 581 0 
L 581 3500 
L 1159 3500 
L 1159 2956 
Q 1356 3278 1631 3431 
Q 1906 3584 2284 3584 
Q 2666 3584 2933 3390 
Q 3200 3197 3328 2828 
z
" transform="scale(0.015625)"/>
      <path id="DejaVuSans-65" d="M 3597 1894 
L 3597 1613 
L 953 1613 
Q 991 1019 1311 708 
Q 1631 397 2203 397 
Q 2534 397 2845 478 
Q 3156 559 3463 722 
L 3463 178 
Q 3153 47 2828 -22 
Q 2503 -91 2169 -91 
Q 1331 -91 842 396 
Q 353 884 353 1716 
Q 353 2575 817 3079 
Q 1281 3584 2069 3584 
Q 2775 3584 3186 3129 
Q 3597 2675 3597 1894 
z
M 3022 2063 
Q 3016 2534 2758 2815 
Q 2500 3097 2075 3097 
Q 1594 3097 1305 2825 
Q 1016 2553 972 2059 
L 3022 2063 
z
" transform="scale(0.015625)"/>
      <path id="DejaVuSans-61" d="M 2194 1759 
Q 1497 1759 1228 1600 
Q 959 1441 959 1056 
Q 959 750 1161 570 
Q 1363 391 1709 391 
Q 2188 391 2477 730 
Q 2766 1069 2766 1631 
L 2766 1759 
L 2194 1759 
z
M 3341 1997 
L 3341 0 
L 2766 0 
L 2766 531 
Q 2569 213 2275 61 
Q 1981 -91 1556 -91 
Q 1019 -91 701 211 
Q 384 513 384 1019 
Q 384 1609 779 1909 
Q 1175 2209 1959 2209 
L 2766 2209 
L 2766 2266 
Q 2766 2663 2505 2880 
Q 2244 3097 1772 3097 
Q 1472 3097 1187 3025 
Q 903 2953 641 2809 
L 641 3341 
Q 956 3463 1253 3523 
Q 1550 3584 1831 3584 
Q 2591 3584 2966 3190 
Q 3341 2797 3341 1997 
z
" transform="scale(0.015625)"/>
      <path id="DejaVuSans-6e" d="M 3513 2113 
L 3513 0 
L 2938 0 
L 2938 2094 
Q 2938 2591 2744 2837 
Q 2550 3084 2163 3084 
Q 1697 3084 1428 2787 
Q 1159 2491 1159 1978 
L 1159 0 
L 581 0 
L 581 3500 
L 1159 3500 
L 1159 2956 
Q 1366 3272 1645 3428 
Q 1925 3584 2291 3584 
Q 2894 3584 3203 3211 
Q 3513 2838 3513 2113 
z
" transform="scale(0.015625)"/>
      <path id="DejaVuSans-3d" d="M 678 2906 
L 4684 2906 
L 4684 2381 
L 678 2381 
L 678 2906 
z
M 678 1631 
L 4684 1631 
L 4684 1100 
L 678 1100 
L 678 1631 
z
" transform="scale(0.015625)"/>
      <path id="DejaVuSans-35" d="M 691 4666 
L 3169 4666 
L 3169 4134 
L 1269 4134 
L 1269 2991 
Q 1406 3038 1543 3061 
Q 1681 3084 1819 3084 
Q 2600 3084 3056 2656 
Q 3513 2228 3513 1497 
Q 3513 744 3044 326 
Q 2575 -91 1722 -91 
Q 1428 -91 1123 -41 
Q 819 9 494 109 
L 494 744 
Q 775 591 1075 516 
Q 1375 441 1709 441 
Q 2250 441 2565 725 
Q 2881 1009 2881 1497 
Q 2881 1984 2565 2268 
Q 2250 2553 1709 2553 
Q 1456 2553 1204 2497 
Q 953 2441 691 2322 
L 691 4666 
z
" transform="scale(0.015625)"/>
     </defs>
     <use xlink:href="#DejaVuSans-6d"/>
     <use xlink:href="#DejaVuSans-65" x="97.412109"/>
     <use xlink:href="#DejaVuSans-61" x="158.935547"/>
     <use xlink:href="#DejaVuSans-6e" x="220.214844"/>
     <use xlink:href="#DejaVuSans-3d" x="283.59375"/>
     <use xlink:href="#DejaVuSans-30" x="367.382812"/>
     <use xlink:href="#DejaVuSans-2e" x="431.005859"/>
     <use xlink:href="#DejaVuSans-35" x="462.792969"/>
     <use xlink:href="#DejaVuSans-34" x="526.416016"/>
    </g>
   </g>
   <g id="text_9">
    <!-- regularity -->
    <g style="fill: #262626" transform="translate(192.384375 19.92) scale(0.12 -0.12)">
     <defs>
      <path id="DejaVuSans-72" d="M 2631 2963 
Q 2534 3019 2420 3045 
Q 2306 3072 2169 3072 
Q 1681 3072 1420 2755 
Q 1159 2438 1159 1844 
L 1159 0 
L 581 0 
L 581 3500 
L 1159 3500 
L 1159 2956 
Q 1341 3275 1631 3429 
Q 1922 3584 2338 3584 
Q 2397 3584 2469 3576 
Q 2541 3569 2628 3553 
L 2631 2963 
z
" transform="scale(0.015625)"/>
      <path id="DejaVuSans-67" d="M 2906 1791 
Q 2906 2416 2648 2759 
Q 2391 3103 1925 3103 
Q 1463 3103 1205 2759 
Q 947 2416 947 1791 
Q 947 1169 1205 825 
Q 1463 481 1925 481 
Q 2391 481 2648 825 
Q 2906 1169 2906 1791 
z
M 3481 434 
Q 3481 -459 3084 -895 
Q 2688 -1331 1869 -1331 
Q 1566 -1331 1297 -1286 
Q 1028 -1241 775 -1147 
L 775 -588 
Q 1028 -725 1275 -790 
Q 1522 -856 1778 -856 
Q 2344 -856 2625 -561 
Q 2906 -266 2906 331 
L 2906 616 
Q 2728 306 2450 153 
Q 2172 0 1784 0 
Q 1141 0 747 490 
Q 353 981 353 1791 
Q 353 2603 747 3093 
Q 1141 3584 1784 3584 
Q 2172 3584 2450 3431 
Q 2728 3278 2906 2969 
L 2906 3500 
L 3481 3500 
L 3481 434 
z
" transform="scale(0.015625)"/>
      <path id="DejaVuSans-75" d="M 544 1381 
L 544 3500 
L 1119 3500 
L 1119 1403 
Q 1119 906 1312 657 
Q 1506 409 1894 409 
Q 2359 409 2629 706 
Q 2900 1003 2900 1516 
L 2900 3500 
L 3475 3500 
L 3475 0 
L 2900 0 
L 2900 538 
Q 2691 219 2414 64 
Q 2138 -91 1772 -91 
Q 1169 -91 856 284 
Q 544 659 544 1381 
z
M 1991 3584 
L 1991 3584 
z
" transform="scale(0.015625)"/>
      <path id="DejaVuSans-6c" d="M 603 4863 
L 1178 4863 
L 1178 0 
L 603 0 
L 603 4863 
z
" transform="scale(0.015625)"/>
      <path id="DejaVuSans-69" d="M 603 3500 
L 1178 3500 
L 1178 0 
L 603 0 
L 603 3500 
z
M 603 4863 
L 1178 4863 
L 1178 4134 
L 603 4134 
L 603 4863 
z
" transform="scale(0.015625)"/>
      <path id="DejaVuSans-74" d="M 1172 4494 
L 1172 3500 
L 2356 3500 
L 2356 3053 
L 1172 3053 
L 1172 1153 
Q 1172 725 1289 603 
Q 1406 481 1766 481 
L 2356 481 
L 2356 0 
L 1766 0 
Q 1100 0 847 248 
Q 594 497 594 1153 
L 594 3053 
L 172 3053 
L 172 3500 
L 594 3500 
L 594 4494 
L 1172 4494 
z
" transform="scale(0.015625)"/>
      <path id="DejaVuSans-79" d="M 2059 -325 
Q 1816 -950 1584 -1140 
Q 1353 -1331 966 -1331 
L 506 -1331 
L 506 -850 
L 844 -850 
Q 1081 -850 1212 -737 
Q 1344 -625 1503 -206 
L 1606 56 
L 191 3500 
L 800 3500 
L 1894 763 
L 2988 3500 
L 3597 3500 
L 2059 -325 
z
" transform="scale(0.015625)"/>
     </defs>
     <use xlink:href="#DejaVuSans-72"/>
     <use xlink:href="#DejaVuSans-65" x="38.863281"/>
     <use xlink:href="#DejaVuSans-67" x="100.386719"/>
     <use xlink:href="#DejaVuSans-75" x="163.863281"/>
     <use xlink:href="#DejaVuSans-6c" x="227.242188"/>
     <use xlink:href="#DejaVuSans-61" x="255.025391"/>
     <use xlink:href="#DejaVuSans-72" x="316.304688"/>
     <use xlink:href="#DejaVuSans-69" x="357.417969"/>
     <use xlink:href="#DejaVuSans-74" x="385.201172"/>
     <use xlink:href="#DejaVuSans-79" x="424.410156"/>
    </g>
   </g>
  </g>
 </g>
 <defs>
  <clipPath id="pdc35a4ac5a">
   <rect x="54" y="25.92" width="334.8" height="166.32"/>
  </clipPath>
 </defs>
</svg>
